%TF.GenerationSoftware,KiCad,Pcbnew,10.0.0*%
%TF.CreationDate,2026-10-01T10:12:22+02:00*%
%TF.ProjectId,AirHumidifier_hardware,41697248-756d-4696-9469-666965725f68,rev?*%
%TF.SameCoordinates,Original*%
%TF.FileFunction,Drillmap*%
%TF.FilePolarity,Positive*%
%FSLAX45Y45*%
G04 Gerber Fmt 4.5, Leading zero omitted, Abs format (unit mm)*
G04 Created by KiCad (PCBNEW 10.0.0) date 2026-10-01 10:12:22*
%MOMM*%
%LPD*%
G01*
G04 APERTURE LIST*
%ADD10C,0.050000*%
%ADD11C,0.200000*%
%ADD12C,0.100000*%
%ADD13C,0.130000*%
%ADD14C,0.220000*%
G04 APERTURE END LIST*
D10*
X13570000Y-7165000D02*
X18370000Y-7165000D01*
X18370000Y-13365000D01*
X13570000Y-13365000D01*
X13570000Y-7165000D01*
D11*
D12*
X13730000Y-11560000D02*
X13760000Y-11590000D01*
X13760000Y-11560000D02*
X13730000Y-11590000D01*
X13730000Y-11635000D02*
X13760000Y-11665000D01*
X13760000Y-11635000D02*
X13730000Y-11665000D01*
X13730000Y-11710000D02*
X13760000Y-11740000D01*
X13760000Y-11710000D02*
X13730000Y-11740000D01*
X13730000Y-11785000D02*
X13760000Y-11815000D01*
X13760000Y-11785000D02*
X13730000Y-11815000D01*
X13735000Y-11150000D02*
X13765000Y-11180000D01*
X13765000Y-11150000D02*
X13735000Y-11180000D01*
X13735000Y-11225000D02*
X13765000Y-11255000D01*
X13765000Y-11225000D02*
X13735000Y-11255000D01*
X13735000Y-11300000D02*
X13765000Y-11330000D01*
X13765000Y-11300000D02*
X13735000Y-11330000D01*
X13735000Y-11375000D02*
X13765000Y-11405000D01*
X13765000Y-11375000D02*
X13735000Y-11405000D01*
X13790000Y-7875000D02*
X13820000Y-7905000D01*
X13820000Y-7875000D02*
X13790000Y-7905000D01*
X13792500Y-7805000D02*
X13822500Y-7835000D01*
X13822500Y-7805000D02*
X13792500Y-7835000D01*
X13805000Y-11560000D02*
X13835000Y-11590000D01*
X13835000Y-11560000D02*
X13805000Y-11590000D01*
X13805000Y-11635000D02*
X13835000Y-11665000D01*
X13835000Y-11635000D02*
X13805000Y-11665000D01*
X13805000Y-11710000D02*
X13835000Y-11740000D01*
X13835000Y-11710000D02*
X13805000Y-11740000D01*
X13805000Y-11785000D02*
X13835000Y-11815000D01*
X13835000Y-11785000D02*
X13805000Y-11815000D01*
X13810000Y-11150000D02*
X13840000Y-11180000D01*
X13840000Y-11150000D02*
X13810000Y-11180000D01*
X13810000Y-11225000D02*
X13840000Y-11255000D01*
X13840000Y-11225000D02*
X13810000Y-11255000D01*
X13810000Y-11300000D02*
X13840000Y-11330000D01*
X13840000Y-11300000D02*
X13810000Y-11330000D01*
X13810000Y-11375000D02*
X13840000Y-11405000D01*
X13840000Y-11375000D02*
X13810000Y-11405000D01*
X13865000Y-7875000D02*
X13895000Y-7905000D01*
X13895000Y-7875000D02*
X13865000Y-7905000D01*
X13867500Y-7805000D02*
X13897500Y-7835000D01*
X13897500Y-7805000D02*
X13867500Y-7835000D01*
X13880000Y-11560000D02*
X13910000Y-11590000D01*
X13910000Y-11560000D02*
X13880000Y-11590000D01*
X13880000Y-11635000D02*
X13910000Y-11665000D01*
X13910000Y-11635000D02*
X13880000Y-11665000D01*
X13880000Y-11710000D02*
X13910000Y-11740000D01*
X13910000Y-11710000D02*
X13880000Y-11740000D01*
X13880000Y-11785000D02*
X13910000Y-11815000D01*
X13910000Y-11785000D02*
X13880000Y-11815000D01*
X13885000Y-11150000D02*
X13915000Y-11180000D01*
X13915000Y-11150000D02*
X13885000Y-11180000D01*
X13885000Y-11225000D02*
X13915000Y-11255000D01*
X13915000Y-11225000D02*
X13885000Y-11255000D01*
X13885000Y-11300000D02*
X13915000Y-11330000D01*
X13915000Y-11300000D02*
X13885000Y-11330000D01*
X13885000Y-11375000D02*
X13915000Y-11405000D01*
X13915000Y-11375000D02*
X13885000Y-11405000D01*
X13940000Y-7875000D02*
X13970000Y-7905000D01*
X13970000Y-7875000D02*
X13940000Y-7905000D01*
X13942500Y-7805000D02*
X13972500Y-7835000D01*
X13972500Y-7805000D02*
X13942500Y-7835000D01*
X14015000Y-7875000D02*
X14045000Y-7905000D01*
X14045000Y-7875000D02*
X14015000Y-7905000D01*
X14017500Y-7805000D02*
X14047500Y-7835000D01*
X14047500Y-7805000D02*
X14017500Y-7835000D01*
X14212500Y-11047500D02*
X14242500Y-11077500D01*
X14242500Y-11047500D02*
X14212500Y-11077500D01*
X14345000Y-11545000D02*
X14375000Y-11575000D01*
X14375000Y-11545000D02*
X14345000Y-11575000D01*
X14345000Y-11620000D02*
X14375000Y-11650000D01*
X14375000Y-11620000D02*
X14345000Y-11650000D01*
X14345000Y-11695000D02*
X14375000Y-11725000D01*
X14375000Y-11695000D02*
X14345000Y-11725000D01*
X14345000Y-11770000D02*
X14375000Y-11800000D01*
X14375000Y-11770000D02*
X14345000Y-11800000D01*
X14420000Y-11545000D02*
X14450000Y-11575000D01*
X14450000Y-11545000D02*
X14420000Y-11575000D01*
X14420000Y-11620000D02*
X14450000Y-11650000D01*
X14450000Y-11620000D02*
X14420000Y-11650000D01*
X14420000Y-11695000D02*
X14450000Y-11725000D01*
X14450000Y-11695000D02*
X14420000Y-11725000D01*
X14420000Y-11770000D02*
X14450000Y-11800000D01*
X14450000Y-11770000D02*
X14420000Y-11800000D01*
X14425000Y-9435000D02*
X14455000Y-9465000D01*
X14455000Y-9435000D02*
X14425000Y-9465000D01*
X14432500Y-12650000D02*
X14462500Y-12680000D01*
X14462500Y-12650000D02*
X14432500Y-12680000D01*
X14432500Y-12725000D02*
X14462500Y-12755000D01*
X14462500Y-12725000D02*
X14432500Y-12755000D01*
X14432500Y-12800000D02*
X14462500Y-12830000D01*
X14462500Y-12800000D02*
X14432500Y-12830000D01*
X14432500Y-12875000D02*
X14462500Y-12905000D01*
X14462500Y-12875000D02*
X14432500Y-12905000D01*
X14460000Y-7897500D02*
X14490000Y-7927500D01*
X14490000Y-7897500D02*
X14460000Y-7927500D01*
X14475000Y-10395000D02*
X14505000Y-10425000D01*
X14505000Y-10395000D02*
X14475000Y-10425000D01*
X14480000Y-10705509D02*
X14510000Y-10735509D01*
X14510000Y-10705509D02*
X14480000Y-10735509D01*
X14480000Y-10785509D02*
X14510000Y-10815509D01*
X14510000Y-10785509D02*
X14480000Y-10815509D01*
X14480000Y-10865510D02*
X14510000Y-10895510D01*
X14510000Y-10865510D02*
X14480000Y-10895510D01*
X14495000Y-11545000D02*
X14525000Y-11575000D01*
X14525000Y-11545000D02*
X14495000Y-11575000D01*
X14495000Y-11620000D02*
X14525000Y-11650000D01*
X14525000Y-11620000D02*
X14495000Y-11650000D01*
X14495000Y-11695000D02*
X14525000Y-11725000D01*
X14525000Y-11695000D02*
X14495000Y-11725000D01*
X14495000Y-11770000D02*
X14525000Y-11800000D01*
X14525000Y-11770000D02*
X14495000Y-11800000D01*
X14507500Y-12650000D02*
X14537500Y-12680000D01*
X14537500Y-12650000D02*
X14507500Y-12680000D01*
X14507500Y-12725000D02*
X14537500Y-12755000D01*
X14537500Y-12725000D02*
X14507500Y-12755000D01*
X14507500Y-12800000D02*
X14537500Y-12830000D01*
X14537500Y-12800000D02*
X14507500Y-12830000D01*
X14507500Y-12875000D02*
X14537500Y-12905000D01*
X14537500Y-12875000D02*
X14507500Y-12905000D01*
X14515000Y-9560000D02*
X14545000Y-9590000D01*
X14545000Y-9560000D02*
X14515000Y-9590000D01*
X14515000Y-9635000D02*
X14545000Y-9665000D01*
X14545000Y-9635000D02*
X14515000Y-9665000D01*
X14520000Y-8600000D02*
X14550000Y-8630000D01*
X14550000Y-8600000D02*
X14520000Y-8630000D01*
X14520000Y-9055000D02*
X14550000Y-9085000D01*
X14550000Y-9055000D02*
X14520000Y-9085000D01*
X14555000Y-11880000D02*
X14585000Y-11910000D01*
X14585000Y-11880000D02*
X14555000Y-11910000D01*
X14555000Y-11955000D02*
X14585000Y-11985000D01*
X14585000Y-11955000D02*
X14555000Y-11985000D01*
X14582500Y-12650000D02*
X14612500Y-12680000D01*
X14612500Y-12650000D02*
X14582500Y-12680000D01*
X14582500Y-12725000D02*
X14612500Y-12755000D01*
X14612500Y-12725000D02*
X14582500Y-12755000D01*
X14582500Y-12800000D02*
X14612500Y-12830000D01*
X14612500Y-12800000D02*
X14582500Y-12830000D01*
X14582500Y-12875000D02*
X14612500Y-12905000D01*
X14612500Y-12875000D02*
X14582500Y-12905000D01*
X14590000Y-9560000D02*
X14620000Y-9590000D01*
X14620000Y-9560000D02*
X14590000Y-9590000D01*
X14590000Y-9635000D02*
X14620000Y-9665000D01*
X14620000Y-9635000D02*
X14590000Y-9665000D01*
X14595000Y-11290000D02*
X14625000Y-11320000D01*
X14625000Y-11290000D02*
X14595000Y-11320000D01*
X14595000Y-11365000D02*
X14625000Y-11395000D01*
X14625000Y-11365000D02*
X14595000Y-11395000D01*
X14630000Y-11880000D02*
X14660000Y-11910000D01*
X14660000Y-11880000D02*
X14630000Y-11910000D01*
X14630000Y-11955000D02*
X14660000Y-11985000D01*
X14660000Y-11955000D02*
X14630000Y-11985000D01*
X14665000Y-9560000D02*
X14695000Y-9590000D01*
X14695000Y-9560000D02*
X14665000Y-9590000D01*
X14665000Y-9635000D02*
X14695000Y-9665000D01*
X14695000Y-9635000D02*
X14665000Y-9665000D01*
X14670000Y-11290000D02*
X14700000Y-11320000D01*
X14700000Y-11290000D02*
X14670000Y-11320000D01*
X14670000Y-11365000D02*
X14700000Y-11395000D01*
X14700000Y-11365000D02*
X14670000Y-11395000D01*
X14705000Y-11880000D02*
X14735000Y-11910000D01*
X14735000Y-11880000D02*
X14705000Y-11910000D01*
X14705000Y-11955000D02*
X14735000Y-11985000D01*
X14735000Y-11955000D02*
X14705000Y-11985000D01*
X14745000Y-11290000D02*
X14775000Y-11320000D01*
X14775000Y-11290000D02*
X14745000Y-11320000D01*
X14745000Y-11365000D02*
X14775000Y-11395000D01*
X14775000Y-11365000D02*
X14745000Y-11395000D01*
X14800000Y-8225000D02*
X14830000Y-8255000D01*
X14830000Y-8225000D02*
X14800000Y-8255000D01*
X14805000Y-11880000D02*
X14835000Y-11910000D01*
X14835000Y-11880000D02*
X14805000Y-11910000D01*
X14805000Y-11955000D02*
X14835000Y-11985000D01*
X14835000Y-11955000D02*
X14805000Y-11985000D01*
X14812500Y-12647500D02*
X14842500Y-12677500D01*
X14842500Y-12647500D02*
X14812500Y-12677500D01*
X14812500Y-12722500D02*
X14842500Y-12752500D01*
X14842500Y-12722500D02*
X14812500Y-12752500D01*
X14812500Y-12797500D02*
X14842500Y-12827500D01*
X14842500Y-12797500D02*
X14812500Y-12827500D01*
X14812500Y-12872500D02*
X14842500Y-12902500D01*
X14842500Y-12872500D02*
X14812500Y-12902500D01*
X14815000Y-8605000D02*
X14845000Y-8635000D01*
X14845000Y-8605000D02*
X14815000Y-8635000D01*
X14825000Y-9355000D02*
X14855000Y-9385000D01*
X14855000Y-9355000D02*
X14825000Y-9385000D01*
X14865000Y-11295000D02*
X14895000Y-11325000D01*
X14895000Y-11295000D02*
X14865000Y-11325000D01*
X14880000Y-11880000D02*
X14910000Y-11910000D01*
X14910000Y-11880000D02*
X14880000Y-11910000D01*
X14880000Y-11955000D02*
X14910000Y-11985000D01*
X14910000Y-11955000D02*
X14880000Y-11985000D01*
X14887500Y-12647500D02*
X14917500Y-12677500D01*
X14917500Y-12647500D02*
X14887500Y-12677500D01*
X14887500Y-12722500D02*
X14917500Y-12752500D01*
X14917500Y-12722500D02*
X14887500Y-12752500D01*
X14887500Y-12797500D02*
X14917500Y-12827500D01*
X14917500Y-12797500D02*
X14887500Y-12827500D01*
X14887500Y-12872500D02*
X14917500Y-12902500D01*
X14917500Y-12872500D02*
X14887500Y-12902500D01*
X14955000Y-11880000D02*
X14985000Y-11910000D01*
X14985000Y-11880000D02*
X14955000Y-11910000D01*
X14955000Y-11955000D02*
X14985000Y-11985000D01*
X14985000Y-11955000D02*
X14955000Y-11985000D01*
X14962500Y-12647500D02*
X14992500Y-12677500D01*
X14992500Y-12647500D02*
X14962500Y-12677500D01*
X14962500Y-12722500D02*
X14992500Y-12752500D01*
X14992500Y-12722500D02*
X14962500Y-12752500D01*
X14962500Y-12797500D02*
X14992500Y-12827500D01*
X14992500Y-12797500D02*
X14962500Y-12827500D01*
X14962500Y-12872500D02*
X14992500Y-12902500D01*
X14992500Y-12872500D02*
X14962500Y-12902500D01*
X15045000Y-11395000D02*
X15075000Y-11425000D01*
X15075000Y-11395000D02*
X15045000Y-11425000D01*
X15045000Y-11470000D02*
X15075000Y-11500000D01*
X15075000Y-11470000D02*
X15045000Y-11500000D01*
X15045000Y-11545000D02*
X15075000Y-11575000D01*
X15075000Y-11545000D02*
X15045000Y-11575000D01*
X15095000Y-12185000D02*
X15125000Y-12215000D01*
X15125000Y-12185000D02*
X15095000Y-12215000D01*
X15095000Y-12260000D02*
X15125000Y-12290000D01*
X15125000Y-12260000D02*
X15095000Y-12290000D01*
X15095000Y-12335000D02*
X15125000Y-12365000D01*
X15125000Y-12335000D02*
X15095000Y-12365000D01*
X15095000Y-12410000D02*
X15125000Y-12440000D01*
X15125000Y-12410000D02*
X15095000Y-12440000D01*
X15120000Y-11395000D02*
X15150000Y-11425000D01*
X15150000Y-11395000D02*
X15120000Y-11425000D01*
X15120000Y-11470000D02*
X15150000Y-11500000D01*
X15150000Y-11470000D02*
X15120000Y-11500000D01*
X15120000Y-11545000D02*
X15150000Y-11575000D01*
X15150000Y-11545000D02*
X15120000Y-11575000D01*
X15170000Y-12185000D02*
X15200000Y-12215000D01*
X15200000Y-12185000D02*
X15170000Y-12215000D01*
X15170000Y-12260000D02*
X15200000Y-12290000D01*
X15200000Y-12260000D02*
X15170000Y-12290000D01*
X15170000Y-12335000D02*
X15200000Y-12365000D01*
X15200000Y-12335000D02*
X15170000Y-12365000D01*
X15170000Y-12410000D02*
X15200000Y-12440000D01*
X15200000Y-12410000D02*
X15170000Y-12440000D01*
X15195000Y-11395000D02*
X15225000Y-11425000D01*
X15225000Y-11395000D02*
X15195000Y-11425000D01*
X15195000Y-11470000D02*
X15225000Y-11500000D01*
X15225000Y-11470000D02*
X15195000Y-11500000D01*
X15195000Y-11545000D02*
X15225000Y-11575000D01*
X15225000Y-11545000D02*
X15195000Y-11575000D01*
X15235000Y-11155000D02*
X15265000Y-11185000D01*
X15265000Y-11155000D02*
X15235000Y-11185000D01*
X15245000Y-12185000D02*
X15275000Y-12215000D01*
X15275000Y-12185000D02*
X15245000Y-12215000D01*
X15245000Y-12260000D02*
X15275000Y-12290000D01*
X15275000Y-12260000D02*
X15245000Y-12290000D01*
X15245000Y-12335000D02*
X15275000Y-12365000D01*
X15275000Y-12335000D02*
X15245000Y-12365000D01*
X15245000Y-12410000D02*
X15275000Y-12440000D01*
X15275000Y-12410000D02*
X15245000Y-12440000D01*
X15270000Y-11395000D02*
X15300000Y-11425000D01*
X15300000Y-11395000D02*
X15270000Y-11425000D01*
X15270000Y-11470000D02*
X15300000Y-11500000D01*
X15300000Y-11470000D02*
X15270000Y-11500000D01*
X15270000Y-11545000D02*
X15300000Y-11575000D01*
X15300000Y-11545000D02*
X15270000Y-11575000D01*
X15325000Y-8195000D02*
X15355000Y-8225000D01*
X15355000Y-8195000D02*
X15325000Y-8225000D01*
X15325000Y-10165000D02*
X15355000Y-10195000D01*
X15355000Y-10165000D02*
X15325000Y-10195000D01*
X15347500Y-10470000D02*
X15377500Y-10500000D01*
X15377500Y-10470000D02*
X15347500Y-10500000D01*
X15350000Y-10250000D02*
X15380000Y-10280000D01*
X15380000Y-10250000D02*
X15350000Y-10280000D01*
X15350000Y-13155000D02*
X15380000Y-13185000D01*
X15380000Y-13155000D02*
X15350000Y-13185000D01*
X15352500Y-10350000D02*
X15382500Y-10380000D01*
X15382500Y-10350000D02*
X15352500Y-10380000D01*
X15357500Y-8865000D02*
X15387500Y-8895000D01*
X15387500Y-8865000D02*
X15357500Y-8895000D01*
X15360000Y-10585000D02*
X15390000Y-10615000D01*
X15390000Y-10585000D02*
X15360000Y-10615000D01*
X15370000Y-7725000D02*
X15400000Y-7755000D01*
X15400000Y-7725000D02*
X15370000Y-7755000D01*
X15370000Y-7800000D02*
X15400000Y-7830000D01*
X15400000Y-7800000D02*
X15370000Y-7830000D01*
X15370000Y-7875000D02*
X15400000Y-7905000D01*
X15400000Y-7875000D02*
X15370000Y-7905000D01*
X15370000Y-7950000D02*
X15400000Y-7980000D01*
X15400000Y-7950000D02*
X15370000Y-7980000D01*
X15410000Y-7397500D02*
X15440000Y-7427500D01*
X15440000Y-7397500D02*
X15410000Y-7427500D01*
X15412500Y-7327500D02*
X15442500Y-7357500D01*
X15442500Y-7327500D02*
X15412500Y-7357500D01*
X15425000Y-13155000D02*
X15455000Y-13185000D01*
X15455000Y-13155000D02*
X15425000Y-13185000D01*
X15440000Y-7727500D02*
X15470000Y-7757500D01*
X15470000Y-7727500D02*
X15440000Y-7757500D01*
X15440000Y-7802500D02*
X15470000Y-7832500D01*
X15470000Y-7802500D02*
X15440000Y-7832500D01*
X15440000Y-7877500D02*
X15470000Y-7907500D01*
X15470000Y-7877500D02*
X15440000Y-7907500D01*
X15440000Y-7952500D02*
X15470000Y-7982500D01*
X15470000Y-7952500D02*
X15440000Y-7982500D01*
X15455000Y-10305000D02*
X15485000Y-10335000D01*
X15485000Y-10305000D02*
X15455000Y-10335000D01*
X15470000Y-10505000D02*
X15500000Y-10535000D01*
X15500000Y-10505000D02*
X15470000Y-10535000D01*
X15482500Y-10035000D02*
X15512500Y-10065000D01*
X15512500Y-10035000D02*
X15482500Y-10065000D01*
X15485000Y-7397500D02*
X15515000Y-7427500D01*
X15515000Y-7397500D02*
X15485000Y-7427500D01*
X15487500Y-7327500D02*
X15517500Y-7357500D01*
X15517500Y-7327500D02*
X15487500Y-7357500D01*
X15500000Y-13155000D02*
X15530000Y-13185000D01*
X15530000Y-13155000D02*
X15500000Y-13185000D01*
X15560000Y-7397500D02*
X15590000Y-7427500D01*
X15590000Y-7397500D02*
X15560000Y-7427500D01*
X15562500Y-7327500D02*
X15592500Y-7357500D01*
X15592500Y-7327500D02*
X15562500Y-7357500D01*
X15575000Y-13155000D02*
X15605000Y-13185000D01*
X15605000Y-13155000D02*
X15575000Y-13185000D01*
X15602500Y-10115000D02*
X15632500Y-10145000D01*
X15632500Y-10115000D02*
X15602500Y-10145000D01*
X15604650Y-10785508D02*
X15634650Y-10815508D01*
X15634650Y-10785508D02*
X15604650Y-10815508D01*
X15605113Y-10705509D02*
X15635113Y-10735509D01*
X15635113Y-10705509D02*
X15605113Y-10735509D01*
X15605792Y-10865500D02*
X15635792Y-10895500D01*
X15635792Y-10865500D02*
X15605792Y-10895500D01*
X15615000Y-10025000D02*
X15645000Y-10055000D01*
X15645000Y-10025000D02*
X15615000Y-10055000D01*
X15630000Y-8905000D02*
X15660000Y-8935000D01*
X15660000Y-8905000D02*
X15630000Y-8935000D01*
X15635000Y-7397500D02*
X15665000Y-7427500D01*
X15665000Y-7397500D02*
X15635000Y-7427500D01*
X15637500Y-7327500D02*
X15667500Y-7357500D01*
X15667500Y-7327500D02*
X15637500Y-7357500D01*
X15650000Y-10245000D02*
X15680000Y-10275000D01*
X15680000Y-10245000D02*
X15650000Y-10275000D01*
X15680000Y-13155000D02*
X15710000Y-13185000D01*
X15710000Y-13155000D02*
X15680000Y-13185000D01*
X15695000Y-10597500D02*
X15725000Y-10627500D01*
X15725000Y-10597500D02*
X15695000Y-10627500D01*
X15727500Y-8560000D02*
X15757500Y-8590000D01*
X15757500Y-8560000D02*
X15727500Y-8590000D01*
X15730000Y-8490000D02*
X15760000Y-8520000D01*
X15760000Y-8490000D02*
X15730000Y-8520000D01*
X15755000Y-8895000D02*
X15785000Y-8925000D01*
X15785000Y-8895000D02*
X15755000Y-8925000D01*
X15755000Y-13155000D02*
X15785000Y-13185000D01*
X15785000Y-13155000D02*
X15755000Y-13185000D01*
X15775000Y-11465000D02*
X15805000Y-11495000D01*
X15805000Y-11465000D02*
X15775000Y-11495000D01*
X15802500Y-8560000D02*
X15832500Y-8590000D01*
X15832500Y-8560000D02*
X15802500Y-8590000D01*
X15802500Y-10675000D02*
X15832500Y-10705000D01*
X15832500Y-10675000D02*
X15802500Y-10705000D01*
X15805000Y-8490000D02*
X15835000Y-8520000D01*
X15835000Y-8490000D02*
X15805000Y-8520000D01*
X15830000Y-10245000D02*
X15860000Y-10275000D01*
X15860000Y-10245000D02*
X15830000Y-10275000D01*
X15830000Y-13155000D02*
X15860000Y-13185000D01*
X15860000Y-13155000D02*
X15830000Y-13185000D01*
X15842500Y-10000000D02*
X15872500Y-10030000D01*
X15872500Y-10000000D02*
X15842500Y-10030000D01*
X15847500Y-10090000D02*
X15877500Y-10120000D01*
X15877500Y-10090000D02*
X15847500Y-10120000D01*
X15877500Y-8560000D02*
X15907500Y-8590000D01*
X15907500Y-8560000D02*
X15877500Y-8590000D01*
X15880000Y-8490000D02*
X15910000Y-8520000D01*
X15910000Y-8490000D02*
X15880000Y-8520000D01*
X15885000Y-10765000D02*
X15915000Y-10795000D01*
X15915000Y-10765000D02*
X15885000Y-10795000D01*
X15905000Y-13155000D02*
X15935000Y-13185000D01*
X15935000Y-13155000D02*
X15905000Y-13185000D01*
X15915000Y-7335000D02*
X15945000Y-7365000D01*
X15945000Y-7335000D02*
X15915000Y-7365000D01*
X15935000Y-9210000D02*
X15965000Y-9240000D01*
X15965000Y-9210000D02*
X15935000Y-9240000D01*
X15937500Y-10010000D02*
X15967500Y-10040000D01*
X15967500Y-10010000D02*
X15937500Y-10040000D01*
X15952500Y-8560000D02*
X15982500Y-8590000D01*
X15982500Y-8560000D02*
X15952500Y-8590000D01*
X15952500Y-10297500D02*
X15982500Y-10327500D01*
X15982500Y-10297500D02*
X15952500Y-10327500D01*
X15955000Y-8490000D02*
X15985000Y-8520000D01*
X15985000Y-8490000D02*
X15955000Y-8520000D01*
X15962500Y-10415000D02*
X15992500Y-10445000D01*
X15992500Y-10415000D02*
X15962500Y-10445000D01*
X15990000Y-9725000D02*
X16020000Y-9755000D01*
X16020000Y-9725000D02*
X15990000Y-9755000D01*
X15990000Y-10492500D02*
X16020000Y-10522500D01*
X16020000Y-10492500D02*
X15990000Y-10522500D01*
X16060000Y-9205000D02*
X16090000Y-9235000D01*
X16090000Y-9205000D02*
X16060000Y-9235000D01*
X16065000Y-9555000D02*
X16095000Y-9585000D01*
X16095000Y-9555000D02*
X16065000Y-9585000D01*
X16065000Y-10205000D02*
X16095000Y-10235000D01*
X16095000Y-10205000D02*
X16065000Y-10235000D01*
X16075000Y-10575000D02*
X16105000Y-10605000D01*
X16105000Y-10575000D02*
X16075000Y-10605000D01*
X16100000Y-10407500D02*
X16130000Y-10437500D01*
X16130000Y-10407500D02*
X16100000Y-10437500D01*
X16115000Y-7745000D02*
X16145000Y-7775000D01*
X16145000Y-7745000D02*
X16115000Y-7775000D01*
X16115000Y-8805000D02*
X16145000Y-8835000D01*
X16145000Y-8805000D02*
X16115000Y-8835000D01*
X16145000Y-10650000D02*
X16175000Y-10680000D01*
X16175000Y-10650000D02*
X16145000Y-10680000D01*
X16150000Y-9480000D02*
X16180000Y-9510000D01*
X16180000Y-9480000D02*
X16150000Y-9510000D01*
X16150000Y-10200000D02*
X16180000Y-10230000D01*
X16180000Y-10200000D02*
X16150000Y-10230000D01*
X16197500Y-8297500D02*
X16227500Y-8327500D01*
X16227500Y-8297500D02*
X16197500Y-8327500D01*
X16200000Y-8227500D02*
X16230000Y-8257500D01*
X16230000Y-8227500D02*
X16200000Y-8257500D01*
X16272500Y-8297500D02*
X16302500Y-8327500D01*
X16302500Y-8297500D02*
X16272500Y-8327500D01*
X16275000Y-8227500D02*
X16305000Y-8257500D01*
X16305000Y-8227500D02*
X16275000Y-8257500D01*
X16285000Y-7397500D02*
X16315000Y-7427500D01*
X16315000Y-7397500D02*
X16285000Y-7427500D01*
X16287500Y-7327500D02*
X16317500Y-7357500D01*
X16317500Y-7327500D02*
X16287500Y-7357500D01*
X16332500Y-12267500D02*
X16362500Y-12297500D01*
X16362500Y-12267500D02*
X16332500Y-12297500D01*
X16332500Y-12342500D02*
X16362500Y-12372500D01*
X16362500Y-12342500D02*
X16332500Y-12372500D01*
X16347500Y-8297500D02*
X16377500Y-8327500D01*
X16377500Y-8297500D02*
X16347500Y-8327500D01*
X16350000Y-8227500D02*
X16380000Y-8257500D01*
X16380000Y-8227500D02*
X16350000Y-8257500D01*
X16360000Y-7397500D02*
X16390000Y-7427500D01*
X16390000Y-7397500D02*
X16360000Y-7427500D01*
X16360000Y-7905000D02*
X16390000Y-7935000D01*
X16390000Y-7905000D02*
X16360000Y-7935000D01*
X16362500Y-7327500D02*
X16392500Y-7357500D01*
X16392500Y-7327500D02*
X16362500Y-7357500D01*
X16362500Y-7835000D02*
X16392500Y-7865000D01*
X16392500Y-7835000D02*
X16362500Y-7865000D01*
X16407500Y-12267500D02*
X16437500Y-12297500D01*
X16437500Y-12267500D02*
X16407500Y-12297500D01*
X16407500Y-12342500D02*
X16437500Y-12372500D01*
X16437500Y-12342500D02*
X16407500Y-12372500D01*
X16422500Y-8297500D02*
X16452500Y-8327500D01*
X16452500Y-8297500D02*
X16422500Y-8327500D01*
X16422500Y-8530000D02*
X16452500Y-8560000D01*
X16452500Y-8530000D02*
X16422500Y-8560000D01*
X16422500Y-8605000D02*
X16452500Y-8635000D01*
X16452500Y-8605000D02*
X16422500Y-8635000D01*
X16422500Y-8680000D02*
X16452500Y-8710000D01*
X16452500Y-8680000D02*
X16422500Y-8710000D01*
X16422500Y-8755000D02*
X16452500Y-8785000D01*
X16452500Y-8755000D02*
X16422500Y-8785000D01*
X16425000Y-8227500D02*
X16455000Y-8257500D01*
X16455000Y-8227500D02*
X16425000Y-8257500D01*
X16435000Y-7397500D02*
X16465000Y-7427500D01*
X16465000Y-7397500D02*
X16435000Y-7427500D01*
X16435000Y-7905000D02*
X16465000Y-7935000D01*
X16465000Y-7905000D02*
X16435000Y-7935000D01*
X16437500Y-7327500D02*
X16467500Y-7357500D01*
X16467500Y-7327500D02*
X16437500Y-7357500D01*
X16437500Y-7835000D02*
X16467500Y-7865000D01*
X16467500Y-7835000D02*
X16437500Y-7865000D01*
X16482500Y-12267500D02*
X16512500Y-12297500D01*
X16512500Y-12267500D02*
X16482500Y-12297500D01*
X16482500Y-12342500D02*
X16512500Y-12372500D01*
X16512500Y-12342500D02*
X16482500Y-12372500D01*
X16492500Y-8532500D02*
X16522500Y-8562500D01*
X16522500Y-8532500D02*
X16492500Y-8562500D01*
X16492500Y-8607500D02*
X16522500Y-8637500D01*
X16522500Y-8607500D02*
X16492500Y-8637500D01*
X16492500Y-8682500D02*
X16522500Y-8712500D01*
X16522500Y-8682500D02*
X16492500Y-8712500D01*
X16492500Y-8757500D02*
X16522500Y-8787500D01*
X16522500Y-8757500D02*
X16492500Y-8787500D01*
X16495000Y-11275000D02*
X16525000Y-11305000D01*
X16525000Y-11275000D02*
X16495000Y-11305000D01*
X16510000Y-7397500D02*
X16540000Y-7427500D01*
X16540000Y-7397500D02*
X16510000Y-7427500D01*
X16510000Y-7905000D02*
X16540000Y-7935000D01*
X16540000Y-7905000D02*
X16510000Y-7935000D01*
X16512500Y-7327500D02*
X16542500Y-7357500D01*
X16542500Y-7327500D02*
X16512500Y-7357500D01*
X16512500Y-7835000D02*
X16542500Y-7865000D01*
X16542500Y-7835000D02*
X16512500Y-7865000D01*
X16525000Y-10725000D02*
X16555000Y-10755000D01*
X16555000Y-10725000D02*
X16525000Y-10755000D01*
X16525000Y-12930000D02*
X16555000Y-12960000D01*
X16555000Y-12930000D02*
X16525000Y-12960000D01*
X16525000Y-13005000D02*
X16555000Y-13035000D01*
X16555000Y-13005000D02*
X16525000Y-13035000D01*
X16525000Y-13080000D02*
X16555000Y-13110000D01*
X16555000Y-13080000D02*
X16525000Y-13110000D01*
X16525000Y-13155000D02*
X16555000Y-13185000D01*
X16555000Y-13155000D02*
X16525000Y-13185000D01*
X16557500Y-12267500D02*
X16587500Y-12297500D01*
X16587500Y-12267500D02*
X16557500Y-12297500D01*
X16557500Y-12342500D02*
X16587500Y-12372500D01*
X16587500Y-12342500D02*
X16557500Y-12372500D01*
X16565000Y-9315000D02*
X16595000Y-9345000D01*
X16595000Y-9315000D02*
X16565000Y-9345000D01*
X16585000Y-7905000D02*
X16615000Y-7935000D01*
X16615000Y-7905000D02*
X16585000Y-7935000D01*
X16587500Y-7835000D02*
X16617500Y-7865000D01*
X16617500Y-7835000D02*
X16587500Y-7865000D01*
X16594000Y-8129000D02*
X16624000Y-8159000D01*
X16624000Y-8129000D02*
X16594000Y-8159000D01*
X16600000Y-12930000D02*
X16630000Y-12960000D01*
X16630000Y-12930000D02*
X16600000Y-12960000D01*
X16600000Y-13005000D02*
X16630000Y-13035000D01*
X16630000Y-13005000D02*
X16600000Y-13035000D01*
X16600000Y-13080000D02*
X16630000Y-13110000D01*
X16630000Y-13080000D02*
X16600000Y-13110000D01*
X16600000Y-13155000D02*
X16630000Y-13185000D01*
X16630000Y-13155000D02*
X16600000Y-13185000D01*
X16605000Y-10975000D02*
X16635000Y-11005000D01*
X16635000Y-10975000D02*
X16605000Y-11005000D01*
X16625000Y-7552000D02*
X16655000Y-7582000D01*
X16655000Y-7552000D02*
X16625000Y-7582000D01*
X16662500Y-12267500D02*
X16692500Y-12297500D01*
X16692500Y-12267500D02*
X16662500Y-12297500D01*
X16662500Y-12342500D02*
X16692500Y-12372500D01*
X16692500Y-12342500D02*
X16662500Y-12372500D01*
X16690000Y-9737500D02*
X16720000Y-9767500D01*
X16720000Y-9737500D02*
X16690000Y-9767500D01*
X16692500Y-13080000D02*
X16722500Y-13110000D01*
X16722500Y-13080000D02*
X16692500Y-13110000D01*
X16692500Y-13157500D02*
X16722500Y-13187500D01*
X16722500Y-13157500D02*
X16692500Y-13187500D01*
X16737500Y-12267500D02*
X16767500Y-12297500D01*
X16767500Y-12267500D02*
X16737500Y-12297500D01*
X16737500Y-12342500D02*
X16767500Y-12372500D01*
X16767500Y-12342500D02*
X16737500Y-12372500D01*
X16745000Y-10290000D02*
X16775000Y-10320000D01*
X16775000Y-10290000D02*
X16745000Y-10320000D01*
X16752500Y-9335000D02*
X16782500Y-9365000D01*
X16782500Y-9335000D02*
X16752500Y-9365000D01*
X16767500Y-13080000D02*
X16797500Y-13110000D01*
X16797500Y-13080000D02*
X16767500Y-13110000D01*
X16767500Y-13157500D02*
X16797500Y-13187500D01*
X16797500Y-13157500D02*
X16767500Y-13187500D01*
X16812500Y-12267500D02*
X16842500Y-12297500D01*
X16842500Y-12267500D02*
X16812500Y-12297500D01*
X16812500Y-12342500D02*
X16842500Y-12372500D01*
X16842500Y-12342500D02*
X16812500Y-12372500D01*
X16847500Y-12930000D02*
X16877500Y-12960000D01*
X16877500Y-12930000D02*
X16847500Y-12960000D01*
X16847500Y-13005000D02*
X16877500Y-13035000D01*
X16877500Y-13005000D02*
X16847500Y-13035000D01*
X16847500Y-13080000D02*
X16877500Y-13110000D01*
X16877500Y-13080000D02*
X16847500Y-13110000D01*
X16847500Y-13155000D02*
X16877500Y-13185000D01*
X16877500Y-13155000D02*
X16847500Y-13185000D01*
X16860000Y-10665000D02*
X16890000Y-10695000D01*
X16890000Y-10665000D02*
X16860000Y-10695000D01*
X16887500Y-12267500D02*
X16917500Y-12297500D01*
X16917500Y-12267500D02*
X16887500Y-12297500D01*
X16887500Y-12342500D02*
X16917500Y-12372500D01*
X16917500Y-12342500D02*
X16887500Y-12372500D01*
X16922500Y-12930000D02*
X16952500Y-12960000D01*
X16952500Y-12930000D02*
X16922500Y-12960000D01*
X16922500Y-13005000D02*
X16952500Y-13035000D01*
X16952500Y-13005000D02*
X16922500Y-13035000D01*
X16922500Y-13080000D02*
X16952500Y-13110000D01*
X16952500Y-13080000D02*
X16922500Y-13110000D01*
X16922500Y-13155000D02*
X16952500Y-13185000D01*
X16952500Y-13155000D02*
X16922500Y-13185000D01*
X17042500Y-7552500D02*
X17072500Y-7582500D01*
X17072500Y-7552500D02*
X17042500Y-7582500D01*
X17110000Y-9230000D02*
X17140000Y-9260000D01*
X17140000Y-9230000D02*
X17110000Y-9260000D01*
X17180000Y-8855000D02*
X17210000Y-8885000D01*
X17210000Y-8855000D02*
X17180000Y-8885000D01*
X17275000Y-11650000D02*
X17305000Y-11680000D01*
X17305000Y-11650000D02*
X17275000Y-11680000D01*
X17275000Y-11725000D02*
X17305000Y-11755000D01*
X17305000Y-11725000D02*
X17275000Y-11755000D01*
X17275000Y-11800000D02*
X17305000Y-11830000D01*
X17305000Y-11800000D02*
X17275000Y-11830000D01*
X17302500Y-9237500D02*
X17332500Y-9267500D01*
X17332500Y-9237500D02*
X17302500Y-9267500D01*
X17302500Y-9312500D02*
X17332500Y-9342500D01*
X17332500Y-9312500D02*
X17302500Y-9342500D01*
X17335000Y-11475000D02*
X17365000Y-11505000D01*
X17365000Y-11475000D02*
X17335000Y-11505000D01*
X17350000Y-11650000D02*
X17380000Y-11680000D01*
X17380000Y-11650000D02*
X17350000Y-11680000D01*
X17350000Y-11725000D02*
X17380000Y-11755000D01*
X17380000Y-11725000D02*
X17350000Y-11755000D01*
X17350000Y-11800000D02*
X17380000Y-11830000D01*
X17380000Y-11800000D02*
X17350000Y-11830000D01*
X17377500Y-9237500D02*
X17407500Y-9267500D01*
X17407500Y-9237500D02*
X17377500Y-9267500D01*
X17377500Y-9312500D02*
X17407500Y-9342500D01*
X17407500Y-9312500D02*
X17377500Y-9342500D01*
X17425000Y-11995000D02*
X17455000Y-12025000D01*
X17455000Y-11995000D02*
X17425000Y-12025000D01*
X17452500Y-9237500D02*
X17482500Y-9267500D01*
X17482500Y-9237500D02*
X17452500Y-9267500D01*
X17452500Y-9312500D02*
X17482500Y-9342500D01*
X17482500Y-9312500D02*
X17452500Y-9342500D01*
X17605000Y-10845000D02*
X17635000Y-10875000D01*
X17635000Y-10845000D02*
X17605000Y-10875000D01*
X17643000Y-7893000D02*
X17673000Y-7923000D01*
X17673000Y-7893000D02*
X17643000Y-7923000D01*
X17765000Y-12555000D02*
X17795000Y-12585000D01*
X17795000Y-12555000D02*
X17765000Y-12585000D01*
X18235000Y-7790000D02*
X18265000Y-7820000D01*
X18265000Y-7790000D02*
X18235000Y-7820000D01*
X18235000Y-7865000D02*
X18265000Y-7895000D01*
X18265000Y-7865000D02*
X18235000Y-7895000D01*
X18235000Y-7940000D02*
X18265000Y-7970000D01*
X18265000Y-7940000D02*
X18235000Y-7970000D01*
X18235000Y-8015000D02*
X18265000Y-8045000D01*
X18265000Y-8015000D02*
X18235000Y-8045000D01*
X18235000Y-8095000D02*
X18265000Y-8125000D01*
X18265000Y-8095000D02*
X18235000Y-8125000D01*
X18235000Y-8170000D02*
X18265000Y-8200000D01*
X18265000Y-8170000D02*
X18235000Y-8200000D01*
X18235000Y-8245000D02*
X18265000Y-8275000D01*
X18265000Y-8245000D02*
X18235000Y-8275000D01*
X18235000Y-8320000D02*
X18265000Y-8350000D01*
X18265000Y-8320000D02*
X18235000Y-8350000D01*
X18240000Y-8860000D02*
X18270000Y-8890000D01*
X18270000Y-8860000D02*
X18240000Y-8890000D01*
X18240000Y-8935000D02*
X18270000Y-8965000D01*
X18270000Y-8935000D02*
X18240000Y-8965000D01*
X18240000Y-9010000D02*
X18270000Y-9040000D01*
X18270000Y-9010000D02*
X18240000Y-9040000D01*
X18240000Y-9085000D02*
X18270000Y-9115000D01*
X18270000Y-9085000D02*
X18240000Y-9115000D01*
X18240000Y-9165000D02*
X18270000Y-9195000D01*
X18270000Y-9165000D02*
X18240000Y-9195000D01*
X18240000Y-9240000D02*
X18270000Y-9270000D01*
X18270000Y-9240000D02*
X18240000Y-9270000D01*
X18240000Y-9315000D02*
X18270000Y-9345000D01*
X18270000Y-9315000D02*
X18240000Y-9345000D01*
X18240000Y-9390000D02*
X18270000Y-9420000D01*
X18270000Y-9390000D02*
X18240000Y-9420000D01*
X15695000Y-8015000D02*
G75*
G02*
X15665000Y-8015000I-15000J0D01*
G01*
X15665000Y-8015000D02*
G75*
G02*
X15695000Y-8015000I15000J0D01*
G01*
X15695000Y-8155000D02*
G75*
G02*
X15665000Y-8155000I-15000J0D01*
G01*
X15665000Y-8155000D02*
G75*
G02*
X15695000Y-8155000I15000J0D01*
G01*
X15765000Y-7945000D02*
G75*
G02*
X15735000Y-7945000I-15000J0D01*
G01*
X15735000Y-7945000D02*
G75*
G02*
X15765000Y-7945000I15000J0D01*
G01*
X15765000Y-8085000D02*
G75*
G02*
X15735000Y-8085000I-15000J0D01*
G01*
X15735000Y-8085000D02*
G75*
G02*
X15765000Y-8085000I15000J0D01*
G01*
X15765000Y-8225000D02*
G75*
G02*
X15735000Y-8225000I-15000J0D01*
G01*
X15735000Y-8225000D02*
G75*
G02*
X15765000Y-8225000I15000J0D01*
G01*
X15835000Y-8015000D02*
G75*
G02*
X15805000Y-8015000I-15000J0D01*
G01*
X15805000Y-8015000D02*
G75*
G02*
X15835000Y-8015000I15000J0D01*
G01*
X15835000Y-8155000D02*
G75*
G02*
X15805000Y-8155000I-15000J0D01*
G01*
X15805000Y-8155000D02*
G75*
G02*
X15835000Y-8155000I15000J0D01*
G01*
X15905000Y-7945000D02*
G75*
G02*
X15875000Y-7945000I-15000J0D01*
G01*
X15875000Y-7945000D02*
G75*
G02*
X15905000Y-7945000I15000J0D01*
G01*
X15905000Y-8085000D02*
G75*
G02*
X15875000Y-8085000I-15000J0D01*
G01*
X15875000Y-8085000D02*
G75*
G02*
X15905000Y-8085000I15000J0D01*
G01*
X15905000Y-8225000D02*
G75*
G02*
X15875000Y-8225000I-15000J0D01*
G01*
X15875000Y-8225000D02*
G75*
G02*
X15905000Y-8225000I15000J0D01*
G01*
X15975000Y-8015000D02*
G75*
G02*
X15945000Y-8015000I-15000J0D01*
G01*
X15945000Y-8015000D02*
G75*
G02*
X15975000Y-8015000I15000J0D01*
G01*
X15975000Y-8155000D02*
G75*
G02*
X15945000Y-8155000I-15000J0D01*
G01*
X15945000Y-8155000D02*
G75*
G02*
X15975000Y-8155000I15000J0D01*
G01*
X13888500Y-9827500D02*
X13888500Y-9897500D01*
X13853500Y-9862500D02*
X13923500Y-9862500D01*
X14015500Y-9827500D02*
X14015500Y-9897500D01*
X13980500Y-9862500D02*
X14050500Y-9862500D01*
X14142500Y-9827500D02*
X14142500Y-9897500D01*
X14107500Y-9862500D02*
X14177500Y-9862500D01*
X14269500Y-9827500D02*
X14269500Y-9897500D01*
X14234500Y-9862500D02*
X14304500Y-9862500D01*
X17271820Y-12861820D02*
X17271820Y-12798180D01*
X17208180Y-12798180D01*
X17208180Y-12861820D01*
X17271820Y-12861820D01*
X17525820Y-12861820D02*
X17525820Y-12798180D01*
X17462180Y-12798180D01*
X17462180Y-12861820D01*
X17525820Y-12861820D01*
X13955000Y-8372000D02*
X14005000Y-8322000D01*
X13955000Y-8272000D01*
X13905000Y-8322000D01*
X13955000Y-8372000D01*
X13955000Y-8626000D02*
X14005000Y-8576000D01*
X13955000Y-8526000D01*
X13905000Y-8576000D01*
X13955000Y-8626000D01*
X13955000Y-8880000D02*
X14005000Y-8830000D01*
X13955000Y-8780000D01*
X13905000Y-8830000D01*
X13955000Y-8880000D01*
X13955000Y-9134000D02*
X14005000Y-9084000D01*
X13955000Y-9034000D01*
X13905000Y-9084000D01*
X13955000Y-9134000D01*
X14790000Y-11690000D02*
X14840000Y-11640000D01*
X14790000Y-11590000D01*
X14740000Y-11640000D01*
X14790000Y-11690000D01*
X14690000Y-11690000D02*
X14890000Y-11690000D01*
X14890000Y-11590000D02*
G75*
G02*
X14890000Y-11690000I0J-50000D01*
G01*
X14890000Y-11590000D02*
X14690000Y-11590000D01*
X14690000Y-11590000D02*
G75*
G03*
X14690000Y-11690000I0J-50000D01*
G01*
X14790000Y-12290000D02*
X14840000Y-12240000D01*
X14790000Y-12190000D01*
X14740000Y-12240000D01*
X14790000Y-12290000D01*
X14690000Y-12290000D02*
X14890000Y-12290000D01*
X14890000Y-12190000D02*
G75*
G02*
X14890000Y-12290000I0J-50000D01*
G01*
X14890000Y-12190000D02*
X14690000Y-12190000D01*
X14690000Y-12190000D02*
G75*
G03*
X14690000Y-12290000I0J-50000D01*
G01*
X15260000Y-11990000D02*
X15310000Y-11940000D01*
X15260000Y-11890000D01*
X15210000Y-11940000D01*
X15260000Y-11990000D01*
X15310000Y-12040000D02*
X15310000Y-11840000D01*
X15210000Y-11840000D02*
G75*
G02*
X15310000Y-11840000I50000J0D01*
G01*
X15210000Y-11840000D02*
X15210000Y-12040000D01*
X15210000Y-12040000D02*
G75*
G03*
X15310000Y-12040000I50000J0D01*
G01*
X17236000Y-10425000D02*
X17286000Y-10375000D01*
X17236000Y-10325000D01*
X17186000Y-10375000D01*
X17236000Y-10425000D01*
X17259000Y-9685000D02*
X17309000Y-9635000D01*
X17259000Y-9585000D01*
X17209000Y-9635000D01*
X17259000Y-9685000D01*
X17490000Y-10425000D02*
X17540000Y-10375000D01*
X17490000Y-10325000D01*
X17440000Y-10375000D01*
X17490000Y-10425000D01*
X17513000Y-9685000D02*
X17563000Y-9635000D01*
X17513000Y-9585000D01*
X17463000Y-9635000D01*
X17513000Y-9685000D01*
X17563500Y-8409500D02*
X17613500Y-8359500D01*
X17563500Y-8309500D01*
X17513500Y-8359500D01*
X17563500Y-8409500D01*
X17563500Y-8663500D02*
X17613500Y-8613500D01*
X17563500Y-8563500D01*
X17513500Y-8613500D01*
X17563500Y-8663500D01*
X17563500Y-8917500D02*
X17613500Y-8867500D01*
X17563500Y-8817500D01*
X17513500Y-8867500D01*
X17563500Y-8917500D01*
X17744000Y-10425000D02*
X17794000Y-10375000D01*
X17744000Y-10325000D01*
X17694000Y-10375000D01*
X17744000Y-10425000D01*
X17767000Y-9685000D02*
X17817000Y-9635000D01*
X17767000Y-9585000D01*
X17717000Y-9635000D01*
X17767000Y-9685000D01*
X17817500Y-8409500D02*
X17867500Y-8359500D01*
X17817500Y-8309500D01*
X17767500Y-8359500D01*
X17817500Y-8409500D01*
X17817500Y-8663500D02*
X17867500Y-8613500D01*
X17817500Y-8563500D01*
X17767500Y-8613500D01*
X17817500Y-8663500D01*
X17817500Y-8917500D02*
X17867500Y-8867500D01*
X17817500Y-8817500D01*
X17767500Y-8867500D01*
X17817500Y-8917500D01*
X17998000Y-10425000D02*
X18048000Y-10375000D01*
X17998000Y-10325000D01*
X17948000Y-10375000D01*
X17998000Y-10425000D01*
X18021000Y-9685000D02*
X18071000Y-9635000D01*
X18021000Y-9585000D01*
X17971000Y-9635000D01*
X18021000Y-9685000D01*
D13*
X17632500Y-11202000D02*
X17762500Y-11332000D01*
X17762500Y-11202000D02*
X17632500Y-11332000D01*
X17762500Y-11267000D02*
G75*
G02*
X17632500Y-11267000I-65000J0D01*
G01*
X17632500Y-11267000D02*
G75*
G02*
X17762500Y-11267000I65000J0D01*
G01*
X17632500Y-11710000D02*
X17762500Y-11840000D01*
X17762500Y-11710000D02*
X17632500Y-11840000D01*
X17762500Y-11775000D02*
G75*
G02*
X17632500Y-11775000I-65000J0D01*
G01*
X17632500Y-11775000D02*
G75*
G02*
X17762500Y-11775000I65000J0D01*
G01*
D14*
X13800000Y-7390000D02*
X14020000Y-7610000D01*
X14020000Y-7390000D02*
X13800000Y-7610000D01*
X13910000Y-7390000D02*
X13910000Y-7610000D01*
X13800000Y-7500000D02*
X14020000Y-7500000D01*
X13800000Y-12915000D02*
X14020000Y-13135000D01*
X14020000Y-12915000D02*
X13800000Y-13135000D01*
X13910000Y-12915000D02*
X13910000Y-13135000D01*
X13800000Y-13025000D02*
X14020000Y-13025000D01*
X17920000Y-7390000D02*
X18140000Y-7610000D01*
X18140000Y-7390000D02*
X17920000Y-7610000D01*
X18030000Y-7390000D02*
X18030000Y-7610000D01*
X17920000Y-7500000D02*
X18140000Y-7500000D01*
X17920000Y-12915000D02*
X18140000Y-13135000D01*
X18140000Y-12915000D02*
X17920000Y-13135000D01*
X18030000Y-12915000D02*
X18030000Y-13135000D01*
X17920000Y-13025000D02*
X18140000Y-13025000D01*
D11*
X13828277Y-13678984D02*
X13828277Y-13478984D01*
X13828277Y-13478984D02*
X13875896Y-13478984D01*
X13875896Y-13478984D02*
X13904467Y-13488508D01*
X13904467Y-13488508D02*
X13923515Y-13507555D01*
X13923515Y-13507555D02*
X13933039Y-13526603D01*
X13933039Y-13526603D02*
X13942562Y-13564698D01*
X13942562Y-13564698D02*
X13942562Y-13593269D01*
X13942562Y-13593269D02*
X13933039Y-13631365D01*
X13933039Y-13631365D02*
X13923515Y-13650412D01*
X13923515Y-13650412D02*
X13904467Y-13669460D01*
X13904467Y-13669460D02*
X13875896Y-13678984D01*
X13875896Y-13678984D02*
X13828277Y-13678984D01*
X14028277Y-13678984D02*
X14028277Y-13545650D01*
X14028277Y-13583746D02*
X14037801Y-13564698D01*
X14037801Y-13564698D02*
X14047324Y-13555174D01*
X14047324Y-13555174D02*
X14066372Y-13545650D01*
X14066372Y-13545650D02*
X14085420Y-13545650D01*
X14152086Y-13678984D02*
X14152086Y-13545650D01*
X14152086Y-13478984D02*
X14142562Y-13488508D01*
X14142562Y-13488508D02*
X14152086Y-13498031D01*
X14152086Y-13498031D02*
X14161610Y-13488508D01*
X14161610Y-13488508D02*
X14152086Y-13478984D01*
X14152086Y-13478984D02*
X14152086Y-13498031D01*
X14275896Y-13678984D02*
X14256848Y-13669460D01*
X14256848Y-13669460D02*
X14247324Y-13650412D01*
X14247324Y-13650412D02*
X14247324Y-13478984D01*
X14380658Y-13678984D02*
X14361610Y-13669460D01*
X14361610Y-13669460D02*
X14352086Y-13650412D01*
X14352086Y-13650412D02*
X14352086Y-13478984D01*
X14609229Y-13678984D02*
X14609229Y-13478984D01*
X14609229Y-13478984D02*
X14675896Y-13621841D01*
X14675896Y-13621841D02*
X14742562Y-13478984D01*
X14742562Y-13478984D02*
X14742562Y-13678984D01*
X14923515Y-13678984D02*
X14923515Y-13574222D01*
X14923515Y-13574222D02*
X14913991Y-13555174D01*
X14913991Y-13555174D02*
X14894943Y-13545650D01*
X14894943Y-13545650D02*
X14856848Y-13545650D01*
X14856848Y-13545650D02*
X14837801Y-13555174D01*
X14923515Y-13669460D02*
X14904467Y-13678984D01*
X14904467Y-13678984D02*
X14856848Y-13678984D01*
X14856848Y-13678984D02*
X14837801Y-13669460D01*
X14837801Y-13669460D02*
X14828277Y-13650412D01*
X14828277Y-13650412D02*
X14828277Y-13631365D01*
X14828277Y-13631365D02*
X14837801Y-13612317D01*
X14837801Y-13612317D02*
X14856848Y-13602793D01*
X14856848Y-13602793D02*
X14904467Y-13602793D01*
X14904467Y-13602793D02*
X14923515Y-13593269D01*
X15018753Y-13545650D02*
X15018753Y-13745650D01*
X15018753Y-13555174D02*
X15037801Y-13545650D01*
X15037801Y-13545650D02*
X15075896Y-13545650D01*
X15075896Y-13545650D02*
X15094943Y-13555174D01*
X15094943Y-13555174D02*
X15104467Y-13564698D01*
X15104467Y-13564698D02*
X15113991Y-13583746D01*
X15113991Y-13583746D02*
X15113991Y-13640888D01*
X15113991Y-13640888D02*
X15104467Y-13659936D01*
X15104467Y-13659936D02*
X15094943Y-13669460D01*
X15094943Y-13669460D02*
X15075896Y-13678984D01*
X15075896Y-13678984D02*
X15037801Y-13678984D01*
X15037801Y-13678984D02*
X15018753Y-13669460D01*
X15199705Y-13659936D02*
X15209229Y-13669460D01*
X15209229Y-13669460D02*
X15199705Y-13678984D01*
X15199705Y-13678984D02*
X15190182Y-13669460D01*
X15190182Y-13669460D02*
X15199705Y-13659936D01*
X15199705Y-13659936D02*
X15199705Y-13678984D01*
X15199705Y-13555174D02*
X15209229Y-13564698D01*
X15209229Y-13564698D02*
X15199705Y-13574222D01*
X15199705Y-13574222D02*
X15190182Y-13564698D01*
X15190182Y-13564698D02*
X15199705Y-13555174D01*
X15199705Y-13555174D02*
X15199705Y-13574222D01*
D12*
X13537500Y-13992500D02*
X13567500Y-14022500D01*
X13567500Y-13992500D02*
X13537500Y-14022500D01*
D11*
X13866372Y-13898984D02*
X13885420Y-13898984D01*
X13885420Y-13898984D02*
X13904467Y-13908508D01*
X13904467Y-13908508D02*
X13913991Y-13918031D01*
X13913991Y-13918031D02*
X13923515Y-13937079D01*
X13923515Y-13937079D02*
X13933039Y-13975174D01*
X13933039Y-13975174D02*
X13933039Y-14022793D01*
X13933039Y-14022793D02*
X13923515Y-14060888D01*
X13923515Y-14060888D02*
X13913991Y-14079936D01*
X13913991Y-14079936D02*
X13904467Y-14089460D01*
X13904467Y-14089460D02*
X13885420Y-14098984D01*
X13885420Y-14098984D02*
X13866372Y-14098984D01*
X13866372Y-14098984D02*
X13847324Y-14089460D01*
X13847324Y-14089460D02*
X13837801Y-14079936D01*
X13837801Y-14079936D02*
X13828277Y-14060888D01*
X13828277Y-14060888D02*
X13818753Y-14022793D01*
X13818753Y-14022793D02*
X13818753Y-13975174D01*
X13818753Y-13975174D02*
X13828277Y-13937079D01*
X13828277Y-13937079D02*
X13837801Y-13918031D01*
X13837801Y-13918031D02*
X13847324Y-13908508D01*
X13847324Y-13908508D02*
X13866372Y-13898984D01*
X14028277Y-14089460D02*
X14028277Y-14098984D01*
X14028277Y-14098984D02*
X14018753Y-14118031D01*
X14018753Y-14118031D02*
X14009229Y-14127555D01*
X14094943Y-13898984D02*
X14218753Y-13898984D01*
X14218753Y-13898984D02*
X14152086Y-13975174D01*
X14152086Y-13975174D02*
X14180658Y-13975174D01*
X14180658Y-13975174D02*
X14199705Y-13984698D01*
X14199705Y-13984698D02*
X14209229Y-13994222D01*
X14209229Y-13994222D02*
X14218753Y-14013269D01*
X14218753Y-14013269D02*
X14218753Y-14060888D01*
X14218753Y-14060888D02*
X14209229Y-14079936D01*
X14209229Y-14079936D02*
X14199705Y-14089460D01*
X14199705Y-14089460D02*
X14180658Y-14098984D01*
X14180658Y-14098984D02*
X14123515Y-14098984D01*
X14123515Y-14098984D02*
X14104467Y-14089460D01*
X14104467Y-14089460D02*
X14094943Y-14079936D01*
X14342562Y-13898984D02*
X14361610Y-13898984D01*
X14361610Y-13898984D02*
X14380658Y-13908508D01*
X14380658Y-13908508D02*
X14390182Y-13918031D01*
X14390182Y-13918031D02*
X14399705Y-13937079D01*
X14399705Y-13937079D02*
X14409229Y-13975174D01*
X14409229Y-13975174D02*
X14409229Y-14022793D01*
X14409229Y-14022793D02*
X14399705Y-14060888D01*
X14399705Y-14060888D02*
X14390182Y-14079936D01*
X14390182Y-14079936D02*
X14380658Y-14089460D01*
X14380658Y-14089460D02*
X14361610Y-14098984D01*
X14361610Y-14098984D02*
X14342562Y-14098984D01*
X14342562Y-14098984D02*
X14323515Y-14089460D01*
X14323515Y-14089460D02*
X14313991Y-14079936D01*
X14313991Y-14079936D02*
X14304467Y-14060888D01*
X14304467Y-14060888D02*
X14294943Y-14022793D01*
X14294943Y-14022793D02*
X14294943Y-13975174D01*
X14294943Y-13975174D02*
X14304467Y-13937079D01*
X14304467Y-13937079D02*
X14313991Y-13918031D01*
X14313991Y-13918031D02*
X14323515Y-13908508D01*
X14323515Y-13908508D02*
X14342562Y-13898984D01*
X14533039Y-13898984D02*
X14552086Y-13898984D01*
X14552086Y-13898984D02*
X14571134Y-13908508D01*
X14571134Y-13908508D02*
X14580658Y-13918031D01*
X14580658Y-13918031D02*
X14590182Y-13937079D01*
X14590182Y-13937079D02*
X14599705Y-13975174D01*
X14599705Y-13975174D02*
X14599705Y-14022793D01*
X14599705Y-14022793D02*
X14590182Y-14060888D01*
X14590182Y-14060888D02*
X14580658Y-14079936D01*
X14580658Y-14079936D02*
X14571134Y-14089460D01*
X14571134Y-14089460D02*
X14552086Y-14098984D01*
X14552086Y-14098984D02*
X14533039Y-14098984D01*
X14533039Y-14098984D02*
X14513991Y-14089460D01*
X14513991Y-14089460D02*
X14504467Y-14079936D01*
X14504467Y-14079936D02*
X14494943Y-14060888D01*
X14494943Y-14060888D02*
X14485420Y-14022793D01*
X14485420Y-14022793D02*
X14485420Y-13975174D01*
X14485420Y-13975174D02*
X14494943Y-13937079D01*
X14494943Y-13937079D02*
X14504467Y-13918031D01*
X14504467Y-13918031D02*
X14513991Y-13908508D01*
X14513991Y-13908508D02*
X14533039Y-13898984D01*
X14685420Y-14098984D02*
X14685420Y-13965650D01*
X14685420Y-13984698D02*
X14694943Y-13975174D01*
X14694943Y-13975174D02*
X14713991Y-13965650D01*
X14713991Y-13965650D02*
X14742563Y-13965650D01*
X14742563Y-13965650D02*
X14761610Y-13975174D01*
X14761610Y-13975174D02*
X14771134Y-13994222D01*
X14771134Y-13994222D02*
X14771134Y-14098984D01*
X14771134Y-13994222D02*
X14780658Y-13975174D01*
X14780658Y-13975174D02*
X14799705Y-13965650D01*
X14799705Y-13965650D02*
X14828277Y-13965650D01*
X14828277Y-13965650D02*
X14847324Y-13975174D01*
X14847324Y-13975174D02*
X14856848Y-13994222D01*
X14856848Y-13994222D02*
X14856848Y-14098984D01*
X14952086Y-14098984D02*
X14952086Y-13965650D01*
X14952086Y-13984698D02*
X14961610Y-13975174D01*
X14961610Y-13975174D02*
X14980658Y-13965650D01*
X14980658Y-13965650D02*
X15009229Y-13965650D01*
X15009229Y-13965650D02*
X15028277Y-13975174D01*
X15028277Y-13975174D02*
X15037801Y-13994222D01*
X15037801Y-13994222D02*
X15037801Y-14098984D01*
X15037801Y-13994222D02*
X15047324Y-13975174D01*
X15047324Y-13975174D02*
X15066372Y-13965650D01*
X15066372Y-13965650D02*
X15094943Y-13965650D01*
X15094943Y-13965650D02*
X15113991Y-13975174D01*
X15113991Y-13975174D02*
X15123515Y-13994222D01*
X15123515Y-13994222D02*
X15123515Y-14098984D01*
X15513991Y-13889460D02*
X15342563Y-14146603D01*
X15771134Y-13898984D02*
X15790182Y-13898984D01*
X15790182Y-13898984D02*
X15809229Y-13908508D01*
X15809229Y-13908508D02*
X15818753Y-13918031D01*
X15818753Y-13918031D02*
X15828277Y-13937079D01*
X15828277Y-13937079D02*
X15837801Y-13975174D01*
X15837801Y-13975174D02*
X15837801Y-14022793D01*
X15837801Y-14022793D02*
X15828277Y-14060888D01*
X15828277Y-14060888D02*
X15818753Y-14079936D01*
X15818753Y-14079936D02*
X15809229Y-14089460D01*
X15809229Y-14089460D02*
X15790182Y-14098984D01*
X15790182Y-14098984D02*
X15771134Y-14098984D01*
X15771134Y-14098984D02*
X15752086Y-14089460D01*
X15752086Y-14089460D02*
X15742563Y-14079936D01*
X15742563Y-14079936D02*
X15733039Y-14060888D01*
X15733039Y-14060888D02*
X15723515Y-14022793D01*
X15723515Y-14022793D02*
X15723515Y-13975174D01*
X15723515Y-13975174D02*
X15733039Y-13937079D01*
X15733039Y-13937079D02*
X15742563Y-13918031D01*
X15742563Y-13918031D02*
X15752086Y-13908508D01*
X15752086Y-13908508D02*
X15771134Y-13898984D01*
X15933039Y-14089460D02*
X15933039Y-14098984D01*
X15933039Y-14098984D02*
X15923515Y-14118031D01*
X15923515Y-14118031D02*
X15913991Y-14127555D01*
X16056848Y-13898984D02*
X16075896Y-13898984D01*
X16075896Y-13898984D02*
X16094944Y-13908508D01*
X16094944Y-13908508D02*
X16104467Y-13918031D01*
X16104467Y-13918031D02*
X16113991Y-13937079D01*
X16113991Y-13937079D02*
X16123515Y-13975174D01*
X16123515Y-13975174D02*
X16123515Y-14022793D01*
X16123515Y-14022793D02*
X16113991Y-14060888D01*
X16113991Y-14060888D02*
X16104467Y-14079936D01*
X16104467Y-14079936D02*
X16094944Y-14089460D01*
X16094944Y-14089460D02*
X16075896Y-14098984D01*
X16075896Y-14098984D02*
X16056848Y-14098984D01*
X16056848Y-14098984D02*
X16037801Y-14089460D01*
X16037801Y-14089460D02*
X16028277Y-14079936D01*
X16028277Y-14079936D02*
X16018753Y-14060888D01*
X16018753Y-14060888D02*
X16009229Y-14022793D01*
X16009229Y-14022793D02*
X16009229Y-13975174D01*
X16009229Y-13975174D02*
X16018753Y-13937079D01*
X16018753Y-13937079D02*
X16028277Y-13918031D01*
X16028277Y-13918031D02*
X16037801Y-13908508D01*
X16037801Y-13908508D02*
X16056848Y-13898984D01*
X16313991Y-14098984D02*
X16199706Y-14098984D01*
X16256848Y-14098984D02*
X16256848Y-13898984D01*
X16256848Y-13898984D02*
X16237801Y-13927555D01*
X16237801Y-13927555D02*
X16218753Y-13946603D01*
X16218753Y-13946603D02*
X16199706Y-13956127D01*
X16504467Y-14098984D02*
X16390182Y-14098984D01*
X16447325Y-14098984D02*
X16447325Y-13898984D01*
X16447325Y-13898984D02*
X16428277Y-13927555D01*
X16428277Y-13927555D02*
X16409229Y-13946603D01*
X16409229Y-13946603D02*
X16390182Y-13956127D01*
X16618753Y-13984698D02*
X16599706Y-13975174D01*
X16599706Y-13975174D02*
X16590182Y-13965650D01*
X16590182Y-13965650D02*
X16580658Y-13946603D01*
X16580658Y-13946603D02*
X16580658Y-13937079D01*
X16580658Y-13937079D02*
X16590182Y-13918031D01*
X16590182Y-13918031D02*
X16599706Y-13908508D01*
X16599706Y-13908508D02*
X16618753Y-13898984D01*
X16618753Y-13898984D02*
X16656848Y-13898984D01*
X16656848Y-13898984D02*
X16675896Y-13908508D01*
X16675896Y-13908508D02*
X16685420Y-13918031D01*
X16685420Y-13918031D02*
X16694944Y-13937079D01*
X16694944Y-13937079D02*
X16694944Y-13946603D01*
X16694944Y-13946603D02*
X16685420Y-13965650D01*
X16685420Y-13965650D02*
X16675896Y-13975174D01*
X16675896Y-13975174D02*
X16656848Y-13984698D01*
X16656848Y-13984698D02*
X16618753Y-13984698D01*
X16618753Y-13984698D02*
X16599706Y-13994222D01*
X16599706Y-13994222D02*
X16590182Y-14003746D01*
X16590182Y-14003746D02*
X16580658Y-14022793D01*
X16580658Y-14022793D02*
X16580658Y-14060888D01*
X16580658Y-14060888D02*
X16590182Y-14079936D01*
X16590182Y-14079936D02*
X16599706Y-14089460D01*
X16599706Y-14089460D02*
X16618753Y-14098984D01*
X16618753Y-14098984D02*
X16656848Y-14098984D01*
X16656848Y-14098984D02*
X16675896Y-14089460D01*
X16675896Y-14089460D02*
X16685420Y-14079936D01*
X16685420Y-14079936D02*
X16694944Y-14060888D01*
X16694944Y-14060888D02*
X16694944Y-14022793D01*
X16694944Y-14022793D02*
X16685420Y-14003746D01*
X16685420Y-14003746D02*
X16675896Y-13994222D01*
X16675896Y-13994222D02*
X16656848Y-13984698D01*
X16771134Y-13898984D02*
X16771134Y-13937079D01*
X16847325Y-13898984D02*
X16847325Y-13937079D01*
X17142563Y-14175174D02*
X17133039Y-14165650D01*
X17133039Y-14165650D02*
X17113991Y-14137079D01*
X17113991Y-14137079D02*
X17104468Y-14118031D01*
X17104468Y-14118031D02*
X17094944Y-14089460D01*
X17094944Y-14089460D02*
X17085420Y-14041841D01*
X17085420Y-14041841D02*
X17085420Y-14003746D01*
X17085420Y-14003746D02*
X17094944Y-13956127D01*
X17094944Y-13956127D02*
X17104468Y-13927555D01*
X17104468Y-13927555D02*
X17113991Y-13908508D01*
X17113991Y-13908508D02*
X17133039Y-13879936D01*
X17133039Y-13879936D02*
X17142563Y-13870412D01*
X17199706Y-13898984D02*
X17323515Y-13898984D01*
X17323515Y-13898984D02*
X17256849Y-13975174D01*
X17256849Y-13975174D02*
X17285420Y-13975174D01*
X17285420Y-13975174D02*
X17304468Y-13984698D01*
X17304468Y-13984698D02*
X17313991Y-13994222D01*
X17313991Y-13994222D02*
X17323515Y-14013269D01*
X17323515Y-14013269D02*
X17323515Y-14060888D01*
X17323515Y-14060888D02*
X17313991Y-14079936D01*
X17313991Y-14079936D02*
X17304468Y-14089460D01*
X17304468Y-14089460D02*
X17285420Y-14098984D01*
X17285420Y-14098984D02*
X17228277Y-14098984D01*
X17228277Y-14098984D02*
X17209230Y-14089460D01*
X17209230Y-14089460D02*
X17199706Y-14079936D01*
X17513991Y-14098984D02*
X17399706Y-14098984D01*
X17456849Y-14098984D02*
X17456849Y-13898984D01*
X17456849Y-13898984D02*
X17437801Y-13927555D01*
X17437801Y-13927555D02*
X17418753Y-13946603D01*
X17418753Y-13946603D02*
X17399706Y-13956127D01*
X17628277Y-13984698D02*
X17609230Y-13975174D01*
X17609230Y-13975174D02*
X17599706Y-13965650D01*
X17599706Y-13965650D02*
X17590182Y-13946603D01*
X17590182Y-13946603D02*
X17590182Y-13937079D01*
X17590182Y-13937079D02*
X17599706Y-13918031D01*
X17599706Y-13918031D02*
X17609230Y-13908508D01*
X17609230Y-13908508D02*
X17628277Y-13898984D01*
X17628277Y-13898984D02*
X17666372Y-13898984D01*
X17666372Y-13898984D02*
X17685420Y-13908508D01*
X17685420Y-13908508D02*
X17694944Y-13918031D01*
X17694944Y-13918031D02*
X17704468Y-13937079D01*
X17704468Y-13937079D02*
X17704468Y-13946603D01*
X17704468Y-13946603D02*
X17694944Y-13965650D01*
X17694944Y-13965650D02*
X17685420Y-13975174D01*
X17685420Y-13975174D02*
X17666372Y-13984698D01*
X17666372Y-13984698D02*
X17628277Y-13984698D01*
X17628277Y-13984698D02*
X17609230Y-13994222D01*
X17609230Y-13994222D02*
X17599706Y-14003746D01*
X17599706Y-14003746D02*
X17590182Y-14022793D01*
X17590182Y-14022793D02*
X17590182Y-14060888D01*
X17590182Y-14060888D02*
X17599706Y-14079936D01*
X17599706Y-14079936D02*
X17609230Y-14089460D01*
X17609230Y-14089460D02*
X17628277Y-14098984D01*
X17628277Y-14098984D02*
X17666372Y-14098984D01*
X17666372Y-14098984D02*
X17685420Y-14089460D01*
X17685420Y-14089460D02*
X17694944Y-14079936D01*
X17694944Y-14079936D02*
X17704468Y-14060888D01*
X17704468Y-14060888D02*
X17704468Y-14022793D01*
X17704468Y-14022793D02*
X17694944Y-14003746D01*
X17694944Y-14003746D02*
X17685420Y-13994222D01*
X17685420Y-13994222D02*
X17666372Y-13984698D01*
X17942563Y-14098984D02*
X17942563Y-13898984D01*
X18028277Y-14098984D02*
X18028277Y-13994222D01*
X18028277Y-13994222D02*
X18018753Y-13975174D01*
X18018753Y-13975174D02*
X17999706Y-13965650D01*
X17999706Y-13965650D02*
X17971134Y-13965650D01*
X17971134Y-13965650D02*
X17952087Y-13975174D01*
X17952087Y-13975174D02*
X17942563Y-13984698D01*
X18152087Y-14098984D02*
X18133039Y-14089460D01*
X18133039Y-14089460D02*
X18123515Y-14079936D01*
X18123515Y-14079936D02*
X18113992Y-14060888D01*
X18113992Y-14060888D02*
X18113992Y-14003746D01*
X18113992Y-14003746D02*
X18123515Y-13984698D01*
X18123515Y-13984698D02*
X18133039Y-13975174D01*
X18133039Y-13975174D02*
X18152087Y-13965650D01*
X18152087Y-13965650D02*
X18180658Y-13965650D01*
X18180658Y-13965650D02*
X18199706Y-13975174D01*
X18199706Y-13975174D02*
X18209230Y-13984698D01*
X18209230Y-13984698D02*
X18218753Y-14003746D01*
X18218753Y-14003746D02*
X18218753Y-14060888D01*
X18218753Y-14060888D02*
X18209230Y-14079936D01*
X18209230Y-14079936D02*
X18199706Y-14089460D01*
X18199706Y-14089460D02*
X18180658Y-14098984D01*
X18180658Y-14098984D02*
X18152087Y-14098984D01*
X18333039Y-14098984D02*
X18313992Y-14089460D01*
X18313992Y-14089460D02*
X18304468Y-14070412D01*
X18304468Y-14070412D02*
X18304468Y-13898984D01*
X18485420Y-14089460D02*
X18466373Y-14098984D01*
X18466373Y-14098984D02*
X18428277Y-14098984D01*
X18428277Y-14098984D02*
X18409230Y-14089460D01*
X18409230Y-14089460D02*
X18399706Y-14070412D01*
X18399706Y-14070412D02*
X18399706Y-13994222D01*
X18399706Y-13994222D02*
X18409230Y-13975174D01*
X18409230Y-13975174D02*
X18428277Y-13965650D01*
X18428277Y-13965650D02*
X18466373Y-13965650D01*
X18466373Y-13965650D02*
X18485420Y-13975174D01*
X18485420Y-13975174D02*
X18494944Y-13994222D01*
X18494944Y-13994222D02*
X18494944Y-14013269D01*
X18494944Y-14013269D02*
X18399706Y-14032317D01*
X18571134Y-14089460D02*
X18590182Y-14098984D01*
X18590182Y-14098984D02*
X18628277Y-14098984D01*
X18628277Y-14098984D02*
X18647325Y-14089460D01*
X18647325Y-14089460D02*
X18656849Y-14070412D01*
X18656849Y-14070412D02*
X18656849Y-14060888D01*
X18656849Y-14060888D02*
X18647325Y-14041841D01*
X18647325Y-14041841D02*
X18628277Y-14032317D01*
X18628277Y-14032317D02*
X18599706Y-14032317D01*
X18599706Y-14032317D02*
X18580658Y-14022793D01*
X18580658Y-14022793D02*
X18571134Y-14003746D01*
X18571134Y-14003746D02*
X18571134Y-13994222D01*
X18571134Y-13994222D02*
X18580658Y-13975174D01*
X18580658Y-13975174D02*
X18599706Y-13965650D01*
X18599706Y-13965650D02*
X18628277Y-13965650D01*
X18628277Y-13965650D02*
X18647325Y-13975174D01*
X18723515Y-14175174D02*
X18733039Y-14165650D01*
X18733039Y-14165650D02*
X18752087Y-14137079D01*
X18752087Y-14137079D02*
X18761611Y-14118031D01*
X18761611Y-14118031D02*
X18771134Y-14089460D01*
X18771134Y-14089460D02*
X18780658Y-14041841D01*
X18780658Y-14041841D02*
X18780658Y-14003746D01*
X18780658Y-14003746D02*
X18771134Y-13956127D01*
X18771134Y-13956127D02*
X18761611Y-13927555D01*
X18761611Y-13927555D02*
X18752087Y-13908508D01*
X18752087Y-13908508D02*
X18733039Y-13879936D01*
X18733039Y-13879936D02*
X18723515Y-13870412D01*
D12*
X13567500Y-14271500D02*
G75*
G02*
X13537500Y-14271500I-15000J0D01*
G01*
X13537500Y-14271500D02*
G75*
G02*
X13567500Y-14271500I15000J0D01*
G01*
D11*
X13866372Y-14162984D02*
X13885420Y-14162984D01*
X13885420Y-14162984D02*
X13904467Y-14172508D01*
X13904467Y-14172508D02*
X13913991Y-14182031D01*
X13913991Y-14182031D02*
X13923515Y-14201079D01*
X13923515Y-14201079D02*
X13933039Y-14239174D01*
X13933039Y-14239174D02*
X13933039Y-14286793D01*
X13933039Y-14286793D02*
X13923515Y-14324888D01*
X13923515Y-14324888D02*
X13913991Y-14343936D01*
X13913991Y-14343936D02*
X13904467Y-14353460D01*
X13904467Y-14353460D02*
X13885420Y-14362984D01*
X13885420Y-14362984D02*
X13866372Y-14362984D01*
X13866372Y-14362984D02*
X13847324Y-14353460D01*
X13847324Y-14353460D02*
X13837801Y-14343936D01*
X13837801Y-14343936D02*
X13828277Y-14324888D01*
X13828277Y-14324888D02*
X13818753Y-14286793D01*
X13818753Y-14286793D02*
X13818753Y-14239174D01*
X13818753Y-14239174D02*
X13828277Y-14201079D01*
X13828277Y-14201079D02*
X13837801Y-14182031D01*
X13837801Y-14182031D02*
X13847324Y-14172508D01*
X13847324Y-14172508D02*
X13866372Y-14162984D01*
X14028277Y-14353460D02*
X14028277Y-14362984D01*
X14028277Y-14362984D02*
X14018753Y-14382031D01*
X14018753Y-14382031D02*
X14009229Y-14391555D01*
X14094943Y-14162984D02*
X14218753Y-14162984D01*
X14218753Y-14162984D02*
X14152086Y-14239174D01*
X14152086Y-14239174D02*
X14180658Y-14239174D01*
X14180658Y-14239174D02*
X14199705Y-14248698D01*
X14199705Y-14248698D02*
X14209229Y-14258222D01*
X14209229Y-14258222D02*
X14218753Y-14277269D01*
X14218753Y-14277269D02*
X14218753Y-14324888D01*
X14218753Y-14324888D02*
X14209229Y-14343936D01*
X14209229Y-14343936D02*
X14199705Y-14353460D01*
X14199705Y-14353460D02*
X14180658Y-14362984D01*
X14180658Y-14362984D02*
X14123515Y-14362984D01*
X14123515Y-14362984D02*
X14104467Y-14353460D01*
X14104467Y-14353460D02*
X14094943Y-14343936D01*
X14342562Y-14162984D02*
X14361610Y-14162984D01*
X14361610Y-14162984D02*
X14380658Y-14172508D01*
X14380658Y-14172508D02*
X14390182Y-14182031D01*
X14390182Y-14182031D02*
X14399705Y-14201079D01*
X14399705Y-14201079D02*
X14409229Y-14239174D01*
X14409229Y-14239174D02*
X14409229Y-14286793D01*
X14409229Y-14286793D02*
X14399705Y-14324888D01*
X14399705Y-14324888D02*
X14390182Y-14343936D01*
X14390182Y-14343936D02*
X14380658Y-14353460D01*
X14380658Y-14353460D02*
X14361610Y-14362984D01*
X14361610Y-14362984D02*
X14342562Y-14362984D01*
X14342562Y-14362984D02*
X14323515Y-14353460D01*
X14323515Y-14353460D02*
X14313991Y-14343936D01*
X14313991Y-14343936D02*
X14304467Y-14324888D01*
X14304467Y-14324888D02*
X14294943Y-14286793D01*
X14294943Y-14286793D02*
X14294943Y-14239174D01*
X14294943Y-14239174D02*
X14304467Y-14201079D01*
X14304467Y-14201079D02*
X14313991Y-14182031D01*
X14313991Y-14182031D02*
X14323515Y-14172508D01*
X14323515Y-14172508D02*
X14342562Y-14162984D01*
X14533039Y-14162984D02*
X14552086Y-14162984D01*
X14552086Y-14162984D02*
X14571134Y-14172508D01*
X14571134Y-14172508D02*
X14580658Y-14182031D01*
X14580658Y-14182031D02*
X14590182Y-14201079D01*
X14590182Y-14201079D02*
X14599705Y-14239174D01*
X14599705Y-14239174D02*
X14599705Y-14286793D01*
X14599705Y-14286793D02*
X14590182Y-14324888D01*
X14590182Y-14324888D02*
X14580658Y-14343936D01*
X14580658Y-14343936D02*
X14571134Y-14353460D01*
X14571134Y-14353460D02*
X14552086Y-14362984D01*
X14552086Y-14362984D02*
X14533039Y-14362984D01*
X14533039Y-14362984D02*
X14513991Y-14353460D01*
X14513991Y-14353460D02*
X14504467Y-14343936D01*
X14504467Y-14343936D02*
X14494943Y-14324888D01*
X14494943Y-14324888D02*
X14485420Y-14286793D01*
X14485420Y-14286793D02*
X14485420Y-14239174D01*
X14485420Y-14239174D02*
X14494943Y-14201079D01*
X14494943Y-14201079D02*
X14504467Y-14182031D01*
X14504467Y-14182031D02*
X14513991Y-14172508D01*
X14513991Y-14172508D02*
X14533039Y-14162984D01*
X14685420Y-14362984D02*
X14685420Y-14229650D01*
X14685420Y-14248698D02*
X14694943Y-14239174D01*
X14694943Y-14239174D02*
X14713991Y-14229650D01*
X14713991Y-14229650D02*
X14742563Y-14229650D01*
X14742563Y-14229650D02*
X14761610Y-14239174D01*
X14761610Y-14239174D02*
X14771134Y-14258222D01*
X14771134Y-14258222D02*
X14771134Y-14362984D01*
X14771134Y-14258222D02*
X14780658Y-14239174D01*
X14780658Y-14239174D02*
X14799705Y-14229650D01*
X14799705Y-14229650D02*
X14828277Y-14229650D01*
X14828277Y-14229650D02*
X14847324Y-14239174D01*
X14847324Y-14239174D02*
X14856848Y-14258222D01*
X14856848Y-14258222D02*
X14856848Y-14362984D01*
X14952086Y-14362984D02*
X14952086Y-14229650D01*
X14952086Y-14248698D02*
X14961610Y-14239174D01*
X14961610Y-14239174D02*
X14980658Y-14229650D01*
X14980658Y-14229650D02*
X15009229Y-14229650D01*
X15009229Y-14229650D02*
X15028277Y-14239174D01*
X15028277Y-14239174D02*
X15037801Y-14258222D01*
X15037801Y-14258222D02*
X15037801Y-14362984D01*
X15037801Y-14258222D02*
X15047324Y-14239174D01*
X15047324Y-14239174D02*
X15066372Y-14229650D01*
X15066372Y-14229650D02*
X15094943Y-14229650D01*
X15094943Y-14229650D02*
X15113991Y-14239174D01*
X15113991Y-14239174D02*
X15123515Y-14258222D01*
X15123515Y-14258222D02*
X15123515Y-14362984D01*
X15513991Y-14153460D02*
X15342563Y-14410603D01*
X15771134Y-14162984D02*
X15790182Y-14162984D01*
X15790182Y-14162984D02*
X15809229Y-14172508D01*
X15809229Y-14172508D02*
X15818753Y-14182031D01*
X15818753Y-14182031D02*
X15828277Y-14201079D01*
X15828277Y-14201079D02*
X15837801Y-14239174D01*
X15837801Y-14239174D02*
X15837801Y-14286793D01*
X15837801Y-14286793D02*
X15828277Y-14324888D01*
X15828277Y-14324888D02*
X15818753Y-14343936D01*
X15818753Y-14343936D02*
X15809229Y-14353460D01*
X15809229Y-14353460D02*
X15790182Y-14362984D01*
X15790182Y-14362984D02*
X15771134Y-14362984D01*
X15771134Y-14362984D02*
X15752086Y-14353460D01*
X15752086Y-14353460D02*
X15742563Y-14343936D01*
X15742563Y-14343936D02*
X15733039Y-14324888D01*
X15733039Y-14324888D02*
X15723515Y-14286793D01*
X15723515Y-14286793D02*
X15723515Y-14239174D01*
X15723515Y-14239174D02*
X15733039Y-14201079D01*
X15733039Y-14201079D02*
X15742563Y-14182031D01*
X15742563Y-14182031D02*
X15752086Y-14172508D01*
X15752086Y-14172508D02*
X15771134Y-14162984D01*
X15933039Y-14353460D02*
X15933039Y-14362984D01*
X15933039Y-14362984D02*
X15923515Y-14382031D01*
X15923515Y-14382031D02*
X15913991Y-14391555D01*
X16056848Y-14162984D02*
X16075896Y-14162984D01*
X16075896Y-14162984D02*
X16094944Y-14172508D01*
X16094944Y-14172508D02*
X16104467Y-14182031D01*
X16104467Y-14182031D02*
X16113991Y-14201079D01*
X16113991Y-14201079D02*
X16123515Y-14239174D01*
X16123515Y-14239174D02*
X16123515Y-14286793D01*
X16123515Y-14286793D02*
X16113991Y-14324888D01*
X16113991Y-14324888D02*
X16104467Y-14343936D01*
X16104467Y-14343936D02*
X16094944Y-14353460D01*
X16094944Y-14353460D02*
X16075896Y-14362984D01*
X16075896Y-14362984D02*
X16056848Y-14362984D01*
X16056848Y-14362984D02*
X16037801Y-14353460D01*
X16037801Y-14353460D02*
X16028277Y-14343936D01*
X16028277Y-14343936D02*
X16018753Y-14324888D01*
X16018753Y-14324888D02*
X16009229Y-14286793D01*
X16009229Y-14286793D02*
X16009229Y-14239174D01*
X16009229Y-14239174D02*
X16018753Y-14201079D01*
X16018753Y-14201079D02*
X16028277Y-14182031D01*
X16028277Y-14182031D02*
X16037801Y-14172508D01*
X16037801Y-14172508D02*
X16056848Y-14162984D01*
X16313991Y-14362984D02*
X16199706Y-14362984D01*
X16256848Y-14362984D02*
X16256848Y-14162984D01*
X16256848Y-14162984D02*
X16237801Y-14191555D01*
X16237801Y-14191555D02*
X16218753Y-14210603D01*
X16218753Y-14210603D02*
X16199706Y-14220127D01*
X16504467Y-14362984D02*
X16390182Y-14362984D01*
X16447325Y-14362984D02*
X16447325Y-14162984D01*
X16447325Y-14162984D02*
X16428277Y-14191555D01*
X16428277Y-14191555D02*
X16409229Y-14210603D01*
X16409229Y-14210603D02*
X16390182Y-14220127D01*
X16618753Y-14248698D02*
X16599706Y-14239174D01*
X16599706Y-14239174D02*
X16590182Y-14229650D01*
X16590182Y-14229650D02*
X16580658Y-14210603D01*
X16580658Y-14210603D02*
X16580658Y-14201079D01*
X16580658Y-14201079D02*
X16590182Y-14182031D01*
X16590182Y-14182031D02*
X16599706Y-14172508D01*
X16599706Y-14172508D02*
X16618753Y-14162984D01*
X16618753Y-14162984D02*
X16656848Y-14162984D01*
X16656848Y-14162984D02*
X16675896Y-14172508D01*
X16675896Y-14172508D02*
X16685420Y-14182031D01*
X16685420Y-14182031D02*
X16694944Y-14201079D01*
X16694944Y-14201079D02*
X16694944Y-14210603D01*
X16694944Y-14210603D02*
X16685420Y-14229650D01*
X16685420Y-14229650D02*
X16675896Y-14239174D01*
X16675896Y-14239174D02*
X16656848Y-14248698D01*
X16656848Y-14248698D02*
X16618753Y-14248698D01*
X16618753Y-14248698D02*
X16599706Y-14258222D01*
X16599706Y-14258222D02*
X16590182Y-14267746D01*
X16590182Y-14267746D02*
X16580658Y-14286793D01*
X16580658Y-14286793D02*
X16580658Y-14324888D01*
X16580658Y-14324888D02*
X16590182Y-14343936D01*
X16590182Y-14343936D02*
X16599706Y-14353460D01*
X16599706Y-14353460D02*
X16618753Y-14362984D01*
X16618753Y-14362984D02*
X16656848Y-14362984D01*
X16656848Y-14362984D02*
X16675896Y-14353460D01*
X16675896Y-14353460D02*
X16685420Y-14343936D01*
X16685420Y-14343936D02*
X16694944Y-14324888D01*
X16694944Y-14324888D02*
X16694944Y-14286793D01*
X16694944Y-14286793D02*
X16685420Y-14267746D01*
X16685420Y-14267746D02*
X16675896Y-14258222D01*
X16675896Y-14258222D02*
X16656848Y-14248698D01*
X16771134Y-14162984D02*
X16771134Y-14201079D01*
X16847325Y-14162984D02*
X16847325Y-14201079D01*
X17142563Y-14439174D02*
X17133039Y-14429650D01*
X17133039Y-14429650D02*
X17113991Y-14401079D01*
X17113991Y-14401079D02*
X17104468Y-14382031D01*
X17104468Y-14382031D02*
X17094944Y-14353460D01*
X17094944Y-14353460D02*
X17085420Y-14305841D01*
X17085420Y-14305841D02*
X17085420Y-14267746D01*
X17085420Y-14267746D02*
X17094944Y-14220127D01*
X17094944Y-14220127D02*
X17104468Y-14191555D01*
X17104468Y-14191555D02*
X17113991Y-14172508D01*
X17113991Y-14172508D02*
X17133039Y-14143936D01*
X17133039Y-14143936D02*
X17142563Y-14134412D01*
X17323515Y-14362984D02*
X17209230Y-14362984D01*
X17266372Y-14362984D02*
X17266372Y-14162984D01*
X17266372Y-14162984D02*
X17247325Y-14191555D01*
X17247325Y-14191555D02*
X17228277Y-14210603D01*
X17228277Y-14210603D02*
X17209230Y-14220127D01*
X17399706Y-14182031D02*
X17409230Y-14172508D01*
X17409230Y-14172508D02*
X17428277Y-14162984D01*
X17428277Y-14162984D02*
X17475896Y-14162984D01*
X17475896Y-14162984D02*
X17494944Y-14172508D01*
X17494944Y-14172508D02*
X17504468Y-14182031D01*
X17504468Y-14182031D02*
X17513991Y-14201079D01*
X17513991Y-14201079D02*
X17513991Y-14220127D01*
X17513991Y-14220127D02*
X17504468Y-14248698D01*
X17504468Y-14248698D02*
X17390182Y-14362984D01*
X17390182Y-14362984D02*
X17513991Y-14362984D01*
X17752087Y-14362984D02*
X17752087Y-14162984D01*
X17837801Y-14362984D02*
X17837801Y-14258222D01*
X17837801Y-14258222D02*
X17828277Y-14239174D01*
X17828277Y-14239174D02*
X17809230Y-14229650D01*
X17809230Y-14229650D02*
X17780658Y-14229650D01*
X17780658Y-14229650D02*
X17761611Y-14239174D01*
X17761611Y-14239174D02*
X17752087Y-14248698D01*
X17961611Y-14362984D02*
X17942563Y-14353460D01*
X17942563Y-14353460D02*
X17933039Y-14343936D01*
X17933039Y-14343936D02*
X17923515Y-14324888D01*
X17923515Y-14324888D02*
X17923515Y-14267746D01*
X17923515Y-14267746D02*
X17933039Y-14248698D01*
X17933039Y-14248698D02*
X17942563Y-14239174D01*
X17942563Y-14239174D02*
X17961611Y-14229650D01*
X17961611Y-14229650D02*
X17990182Y-14229650D01*
X17990182Y-14229650D02*
X18009230Y-14239174D01*
X18009230Y-14239174D02*
X18018753Y-14248698D01*
X18018753Y-14248698D02*
X18028277Y-14267746D01*
X18028277Y-14267746D02*
X18028277Y-14324888D01*
X18028277Y-14324888D02*
X18018753Y-14343936D01*
X18018753Y-14343936D02*
X18009230Y-14353460D01*
X18009230Y-14353460D02*
X17990182Y-14362984D01*
X17990182Y-14362984D02*
X17961611Y-14362984D01*
X18142563Y-14362984D02*
X18123515Y-14353460D01*
X18123515Y-14353460D02*
X18113992Y-14334412D01*
X18113992Y-14334412D02*
X18113992Y-14162984D01*
X18294944Y-14353460D02*
X18275896Y-14362984D01*
X18275896Y-14362984D02*
X18237801Y-14362984D01*
X18237801Y-14362984D02*
X18218753Y-14353460D01*
X18218753Y-14353460D02*
X18209230Y-14334412D01*
X18209230Y-14334412D02*
X18209230Y-14258222D01*
X18209230Y-14258222D02*
X18218753Y-14239174D01*
X18218753Y-14239174D02*
X18237801Y-14229650D01*
X18237801Y-14229650D02*
X18275896Y-14229650D01*
X18275896Y-14229650D02*
X18294944Y-14239174D01*
X18294944Y-14239174D02*
X18304468Y-14258222D01*
X18304468Y-14258222D02*
X18304468Y-14277269D01*
X18304468Y-14277269D02*
X18209230Y-14296317D01*
X18380658Y-14353460D02*
X18399706Y-14362984D01*
X18399706Y-14362984D02*
X18437801Y-14362984D01*
X18437801Y-14362984D02*
X18456849Y-14353460D01*
X18456849Y-14353460D02*
X18466373Y-14334412D01*
X18466373Y-14334412D02*
X18466373Y-14324888D01*
X18466373Y-14324888D02*
X18456849Y-14305841D01*
X18456849Y-14305841D02*
X18437801Y-14296317D01*
X18437801Y-14296317D02*
X18409230Y-14296317D01*
X18409230Y-14296317D02*
X18390182Y-14286793D01*
X18390182Y-14286793D02*
X18380658Y-14267746D01*
X18380658Y-14267746D02*
X18380658Y-14258222D01*
X18380658Y-14258222D02*
X18390182Y-14239174D01*
X18390182Y-14239174D02*
X18409230Y-14229650D01*
X18409230Y-14229650D02*
X18437801Y-14229650D01*
X18437801Y-14229650D02*
X18456849Y-14239174D01*
X18533039Y-14439174D02*
X18542563Y-14429650D01*
X18542563Y-14429650D02*
X18561611Y-14401079D01*
X18561611Y-14401079D02*
X18571134Y-14382031D01*
X18571134Y-14382031D02*
X18580658Y-14353460D01*
X18580658Y-14353460D02*
X18590182Y-14305841D01*
X18590182Y-14305841D02*
X18590182Y-14267746D01*
X18590182Y-14267746D02*
X18580658Y-14220127D01*
X18580658Y-14220127D02*
X18571134Y-14191555D01*
X18571134Y-14191555D02*
X18561611Y-14172508D01*
X18561611Y-14172508D02*
X18542563Y-14143936D01*
X18542563Y-14143936D02*
X18533039Y-14134412D01*
D12*
X13532500Y-14500500D02*
X13532500Y-14570500D01*
X13497500Y-14535500D02*
X13567500Y-14535500D01*
D11*
X13866372Y-14426984D02*
X13885420Y-14426984D01*
X13885420Y-14426984D02*
X13904467Y-14436508D01*
X13904467Y-14436508D02*
X13913991Y-14446031D01*
X13913991Y-14446031D02*
X13923515Y-14465079D01*
X13923515Y-14465079D02*
X13933039Y-14503174D01*
X13933039Y-14503174D02*
X13933039Y-14550793D01*
X13933039Y-14550793D02*
X13923515Y-14588888D01*
X13923515Y-14588888D02*
X13913991Y-14607936D01*
X13913991Y-14607936D02*
X13904467Y-14617460D01*
X13904467Y-14617460D02*
X13885420Y-14626984D01*
X13885420Y-14626984D02*
X13866372Y-14626984D01*
X13866372Y-14626984D02*
X13847324Y-14617460D01*
X13847324Y-14617460D02*
X13837801Y-14607936D01*
X13837801Y-14607936D02*
X13828277Y-14588888D01*
X13828277Y-14588888D02*
X13818753Y-14550793D01*
X13818753Y-14550793D02*
X13818753Y-14503174D01*
X13818753Y-14503174D02*
X13828277Y-14465079D01*
X13828277Y-14465079D02*
X13837801Y-14446031D01*
X13837801Y-14446031D02*
X13847324Y-14436508D01*
X13847324Y-14436508D02*
X13866372Y-14426984D01*
X14028277Y-14617460D02*
X14028277Y-14626984D01*
X14028277Y-14626984D02*
X14018753Y-14646031D01*
X14018753Y-14646031D02*
X14009229Y-14655555D01*
X14094943Y-14426984D02*
X14228277Y-14426984D01*
X14228277Y-14426984D02*
X14142562Y-14626984D01*
X14342562Y-14426984D02*
X14361610Y-14426984D01*
X14361610Y-14426984D02*
X14380658Y-14436508D01*
X14380658Y-14436508D02*
X14390182Y-14446031D01*
X14390182Y-14446031D02*
X14399705Y-14465079D01*
X14399705Y-14465079D02*
X14409229Y-14503174D01*
X14409229Y-14503174D02*
X14409229Y-14550793D01*
X14409229Y-14550793D02*
X14399705Y-14588888D01*
X14399705Y-14588888D02*
X14390182Y-14607936D01*
X14390182Y-14607936D02*
X14380658Y-14617460D01*
X14380658Y-14617460D02*
X14361610Y-14626984D01*
X14361610Y-14626984D02*
X14342562Y-14626984D01*
X14342562Y-14626984D02*
X14323515Y-14617460D01*
X14323515Y-14617460D02*
X14313991Y-14607936D01*
X14313991Y-14607936D02*
X14304467Y-14588888D01*
X14304467Y-14588888D02*
X14294943Y-14550793D01*
X14294943Y-14550793D02*
X14294943Y-14503174D01*
X14294943Y-14503174D02*
X14304467Y-14465079D01*
X14304467Y-14465079D02*
X14313991Y-14446031D01*
X14313991Y-14446031D02*
X14323515Y-14436508D01*
X14323515Y-14436508D02*
X14342562Y-14426984D01*
X14533039Y-14426984D02*
X14552086Y-14426984D01*
X14552086Y-14426984D02*
X14571134Y-14436508D01*
X14571134Y-14436508D02*
X14580658Y-14446031D01*
X14580658Y-14446031D02*
X14590182Y-14465079D01*
X14590182Y-14465079D02*
X14599705Y-14503174D01*
X14599705Y-14503174D02*
X14599705Y-14550793D01*
X14599705Y-14550793D02*
X14590182Y-14588888D01*
X14590182Y-14588888D02*
X14580658Y-14607936D01*
X14580658Y-14607936D02*
X14571134Y-14617460D01*
X14571134Y-14617460D02*
X14552086Y-14626984D01*
X14552086Y-14626984D02*
X14533039Y-14626984D01*
X14533039Y-14626984D02*
X14513991Y-14617460D01*
X14513991Y-14617460D02*
X14504467Y-14607936D01*
X14504467Y-14607936D02*
X14494943Y-14588888D01*
X14494943Y-14588888D02*
X14485420Y-14550793D01*
X14485420Y-14550793D02*
X14485420Y-14503174D01*
X14485420Y-14503174D02*
X14494943Y-14465079D01*
X14494943Y-14465079D02*
X14504467Y-14446031D01*
X14504467Y-14446031D02*
X14513991Y-14436508D01*
X14513991Y-14436508D02*
X14533039Y-14426984D01*
X14685420Y-14626984D02*
X14685420Y-14493650D01*
X14685420Y-14512698D02*
X14694943Y-14503174D01*
X14694943Y-14503174D02*
X14713991Y-14493650D01*
X14713991Y-14493650D02*
X14742563Y-14493650D01*
X14742563Y-14493650D02*
X14761610Y-14503174D01*
X14761610Y-14503174D02*
X14771134Y-14522222D01*
X14771134Y-14522222D02*
X14771134Y-14626984D01*
X14771134Y-14522222D02*
X14780658Y-14503174D01*
X14780658Y-14503174D02*
X14799705Y-14493650D01*
X14799705Y-14493650D02*
X14828277Y-14493650D01*
X14828277Y-14493650D02*
X14847324Y-14503174D01*
X14847324Y-14503174D02*
X14856848Y-14522222D01*
X14856848Y-14522222D02*
X14856848Y-14626984D01*
X14952086Y-14626984D02*
X14952086Y-14493650D01*
X14952086Y-14512698D02*
X14961610Y-14503174D01*
X14961610Y-14503174D02*
X14980658Y-14493650D01*
X14980658Y-14493650D02*
X15009229Y-14493650D01*
X15009229Y-14493650D02*
X15028277Y-14503174D01*
X15028277Y-14503174D02*
X15037801Y-14522222D01*
X15037801Y-14522222D02*
X15037801Y-14626984D01*
X15037801Y-14522222D02*
X15047324Y-14503174D01*
X15047324Y-14503174D02*
X15066372Y-14493650D01*
X15066372Y-14493650D02*
X15094943Y-14493650D01*
X15094943Y-14493650D02*
X15113991Y-14503174D01*
X15113991Y-14503174D02*
X15123515Y-14522222D01*
X15123515Y-14522222D02*
X15123515Y-14626984D01*
X15513991Y-14417460D02*
X15342563Y-14674603D01*
X15771134Y-14426984D02*
X15790182Y-14426984D01*
X15790182Y-14426984D02*
X15809229Y-14436508D01*
X15809229Y-14436508D02*
X15818753Y-14446031D01*
X15818753Y-14446031D02*
X15828277Y-14465079D01*
X15828277Y-14465079D02*
X15837801Y-14503174D01*
X15837801Y-14503174D02*
X15837801Y-14550793D01*
X15837801Y-14550793D02*
X15828277Y-14588888D01*
X15828277Y-14588888D02*
X15818753Y-14607936D01*
X15818753Y-14607936D02*
X15809229Y-14617460D01*
X15809229Y-14617460D02*
X15790182Y-14626984D01*
X15790182Y-14626984D02*
X15771134Y-14626984D01*
X15771134Y-14626984D02*
X15752086Y-14617460D01*
X15752086Y-14617460D02*
X15742563Y-14607936D01*
X15742563Y-14607936D02*
X15733039Y-14588888D01*
X15733039Y-14588888D02*
X15723515Y-14550793D01*
X15723515Y-14550793D02*
X15723515Y-14503174D01*
X15723515Y-14503174D02*
X15733039Y-14465079D01*
X15733039Y-14465079D02*
X15742563Y-14446031D01*
X15742563Y-14446031D02*
X15752086Y-14436508D01*
X15752086Y-14436508D02*
X15771134Y-14426984D01*
X15933039Y-14617460D02*
X15933039Y-14626984D01*
X15933039Y-14626984D02*
X15923515Y-14646031D01*
X15923515Y-14646031D02*
X15913991Y-14655555D01*
X16056848Y-14426984D02*
X16075896Y-14426984D01*
X16075896Y-14426984D02*
X16094944Y-14436508D01*
X16094944Y-14436508D02*
X16104467Y-14446031D01*
X16104467Y-14446031D02*
X16113991Y-14465079D01*
X16113991Y-14465079D02*
X16123515Y-14503174D01*
X16123515Y-14503174D02*
X16123515Y-14550793D01*
X16123515Y-14550793D02*
X16113991Y-14588888D01*
X16113991Y-14588888D02*
X16104467Y-14607936D01*
X16104467Y-14607936D02*
X16094944Y-14617460D01*
X16094944Y-14617460D02*
X16075896Y-14626984D01*
X16075896Y-14626984D02*
X16056848Y-14626984D01*
X16056848Y-14626984D02*
X16037801Y-14617460D01*
X16037801Y-14617460D02*
X16028277Y-14607936D01*
X16028277Y-14607936D02*
X16018753Y-14588888D01*
X16018753Y-14588888D02*
X16009229Y-14550793D01*
X16009229Y-14550793D02*
X16009229Y-14503174D01*
X16009229Y-14503174D02*
X16018753Y-14465079D01*
X16018753Y-14465079D02*
X16028277Y-14446031D01*
X16028277Y-14446031D02*
X16037801Y-14436508D01*
X16037801Y-14436508D02*
X16056848Y-14426984D01*
X16199706Y-14446031D02*
X16209229Y-14436508D01*
X16209229Y-14436508D02*
X16228277Y-14426984D01*
X16228277Y-14426984D02*
X16275896Y-14426984D01*
X16275896Y-14426984D02*
X16294944Y-14436508D01*
X16294944Y-14436508D02*
X16304467Y-14446031D01*
X16304467Y-14446031D02*
X16313991Y-14465079D01*
X16313991Y-14465079D02*
X16313991Y-14484127D01*
X16313991Y-14484127D02*
X16304467Y-14512698D01*
X16304467Y-14512698D02*
X16190182Y-14626984D01*
X16190182Y-14626984D02*
X16313991Y-14626984D01*
X16380658Y-14426984D02*
X16513991Y-14426984D01*
X16513991Y-14426984D02*
X16428277Y-14626984D01*
X16675896Y-14426984D02*
X16637801Y-14426984D01*
X16637801Y-14426984D02*
X16618753Y-14436508D01*
X16618753Y-14436508D02*
X16609229Y-14446031D01*
X16609229Y-14446031D02*
X16590182Y-14474603D01*
X16590182Y-14474603D02*
X16580658Y-14512698D01*
X16580658Y-14512698D02*
X16580658Y-14588888D01*
X16580658Y-14588888D02*
X16590182Y-14607936D01*
X16590182Y-14607936D02*
X16599706Y-14617460D01*
X16599706Y-14617460D02*
X16618753Y-14626984D01*
X16618753Y-14626984D02*
X16656848Y-14626984D01*
X16656848Y-14626984D02*
X16675896Y-14617460D01*
X16675896Y-14617460D02*
X16685420Y-14607936D01*
X16685420Y-14607936D02*
X16694944Y-14588888D01*
X16694944Y-14588888D02*
X16694944Y-14541269D01*
X16694944Y-14541269D02*
X16685420Y-14522222D01*
X16685420Y-14522222D02*
X16675896Y-14512698D01*
X16675896Y-14512698D02*
X16656848Y-14503174D01*
X16656848Y-14503174D02*
X16618753Y-14503174D01*
X16618753Y-14503174D02*
X16599706Y-14512698D01*
X16599706Y-14512698D02*
X16590182Y-14522222D01*
X16590182Y-14522222D02*
X16580658Y-14541269D01*
X16771134Y-14426984D02*
X16771134Y-14465079D01*
X16847325Y-14426984D02*
X16847325Y-14465079D01*
X17142563Y-14703174D02*
X17133039Y-14693650D01*
X17133039Y-14693650D02*
X17113991Y-14665079D01*
X17113991Y-14665079D02*
X17104468Y-14646031D01*
X17104468Y-14646031D02*
X17094944Y-14617460D01*
X17094944Y-14617460D02*
X17085420Y-14569841D01*
X17085420Y-14569841D02*
X17085420Y-14531746D01*
X17085420Y-14531746D02*
X17094944Y-14484127D01*
X17094944Y-14484127D02*
X17104468Y-14455555D01*
X17104468Y-14455555D02*
X17113991Y-14436508D01*
X17113991Y-14436508D02*
X17133039Y-14407936D01*
X17133039Y-14407936D02*
X17142563Y-14398412D01*
X17304468Y-14493650D02*
X17304468Y-14626984D01*
X17256849Y-14417460D02*
X17209230Y-14560317D01*
X17209230Y-14560317D02*
X17333039Y-14560317D01*
X17561611Y-14626984D02*
X17561611Y-14426984D01*
X17647325Y-14626984D02*
X17647325Y-14522222D01*
X17647325Y-14522222D02*
X17637801Y-14503174D01*
X17637801Y-14503174D02*
X17618753Y-14493650D01*
X17618753Y-14493650D02*
X17590182Y-14493650D01*
X17590182Y-14493650D02*
X17571134Y-14503174D01*
X17571134Y-14503174D02*
X17561611Y-14512698D01*
X17771134Y-14626984D02*
X17752087Y-14617460D01*
X17752087Y-14617460D02*
X17742563Y-14607936D01*
X17742563Y-14607936D02*
X17733039Y-14588888D01*
X17733039Y-14588888D02*
X17733039Y-14531746D01*
X17733039Y-14531746D02*
X17742563Y-14512698D01*
X17742563Y-14512698D02*
X17752087Y-14503174D01*
X17752087Y-14503174D02*
X17771134Y-14493650D01*
X17771134Y-14493650D02*
X17799706Y-14493650D01*
X17799706Y-14493650D02*
X17818753Y-14503174D01*
X17818753Y-14503174D02*
X17828277Y-14512698D01*
X17828277Y-14512698D02*
X17837801Y-14531746D01*
X17837801Y-14531746D02*
X17837801Y-14588888D01*
X17837801Y-14588888D02*
X17828277Y-14607936D01*
X17828277Y-14607936D02*
X17818753Y-14617460D01*
X17818753Y-14617460D02*
X17799706Y-14626984D01*
X17799706Y-14626984D02*
X17771134Y-14626984D01*
X17952087Y-14626984D02*
X17933039Y-14617460D01*
X17933039Y-14617460D02*
X17923515Y-14598412D01*
X17923515Y-14598412D02*
X17923515Y-14426984D01*
X18104468Y-14617460D02*
X18085420Y-14626984D01*
X18085420Y-14626984D02*
X18047325Y-14626984D01*
X18047325Y-14626984D02*
X18028277Y-14617460D01*
X18028277Y-14617460D02*
X18018753Y-14598412D01*
X18018753Y-14598412D02*
X18018753Y-14522222D01*
X18018753Y-14522222D02*
X18028277Y-14503174D01*
X18028277Y-14503174D02*
X18047325Y-14493650D01*
X18047325Y-14493650D02*
X18085420Y-14493650D01*
X18085420Y-14493650D02*
X18104468Y-14503174D01*
X18104468Y-14503174D02*
X18113992Y-14522222D01*
X18113992Y-14522222D02*
X18113992Y-14541269D01*
X18113992Y-14541269D02*
X18018753Y-14560317D01*
X18190182Y-14617460D02*
X18209230Y-14626984D01*
X18209230Y-14626984D02*
X18247325Y-14626984D01*
X18247325Y-14626984D02*
X18266373Y-14617460D01*
X18266373Y-14617460D02*
X18275896Y-14598412D01*
X18275896Y-14598412D02*
X18275896Y-14588888D01*
X18275896Y-14588888D02*
X18266373Y-14569841D01*
X18266373Y-14569841D02*
X18247325Y-14560317D01*
X18247325Y-14560317D02*
X18218753Y-14560317D01*
X18218753Y-14560317D02*
X18199706Y-14550793D01*
X18199706Y-14550793D02*
X18190182Y-14531746D01*
X18190182Y-14531746D02*
X18190182Y-14522222D01*
X18190182Y-14522222D02*
X18199706Y-14503174D01*
X18199706Y-14503174D02*
X18218753Y-14493650D01*
X18218753Y-14493650D02*
X18247325Y-14493650D01*
X18247325Y-14493650D02*
X18266373Y-14503174D01*
X18342563Y-14703174D02*
X18352087Y-14693650D01*
X18352087Y-14693650D02*
X18371134Y-14665079D01*
X18371134Y-14665079D02*
X18380658Y-14646031D01*
X18380658Y-14646031D02*
X18390182Y-14617460D01*
X18390182Y-14617460D02*
X18399706Y-14569841D01*
X18399706Y-14569841D02*
X18399706Y-14531746D01*
X18399706Y-14531746D02*
X18390182Y-14484127D01*
X18390182Y-14484127D02*
X18380658Y-14455555D01*
X18380658Y-14455555D02*
X18371134Y-14436508D01*
X18371134Y-14436508D02*
X18352087Y-14407936D01*
X18352087Y-14407936D02*
X18342563Y-14398412D01*
D12*
X13554320Y-14831320D02*
X13554320Y-14767680D01*
X13490680Y-14767680D01*
X13490680Y-14831320D01*
X13554320Y-14831320D01*
D11*
X13866372Y-14690984D02*
X13885420Y-14690984D01*
X13885420Y-14690984D02*
X13904467Y-14700508D01*
X13904467Y-14700508D02*
X13913991Y-14710031D01*
X13913991Y-14710031D02*
X13923515Y-14729079D01*
X13923515Y-14729079D02*
X13933039Y-14767174D01*
X13933039Y-14767174D02*
X13933039Y-14814793D01*
X13933039Y-14814793D02*
X13923515Y-14852888D01*
X13923515Y-14852888D02*
X13913991Y-14871936D01*
X13913991Y-14871936D02*
X13904467Y-14881460D01*
X13904467Y-14881460D02*
X13885420Y-14890984D01*
X13885420Y-14890984D02*
X13866372Y-14890984D01*
X13866372Y-14890984D02*
X13847324Y-14881460D01*
X13847324Y-14881460D02*
X13837801Y-14871936D01*
X13837801Y-14871936D02*
X13828277Y-14852888D01*
X13828277Y-14852888D02*
X13818753Y-14814793D01*
X13818753Y-14814793D02*
X13818753Y-14767174D01*
X13818753Y-14767174D02*
X13828277Y-14729079D01*
X13828277Y-14729079D02*
X13837801Y-14710031D01*
X13837801Y-14710031D02*
X13847324Y-14700508D01*
X13847324Y-14700508D02*
X13866372Y-14690984D01*
X14028277Y-14881460D02*
X14028277Y-14890984D01*
X14028277Y-14890984D02*
X14018753Y-14910031D01*
X14018753Y-14910031D02*
X14009229Y-14919555D01*
X14123515Y-14890984D02*
X14161610Y-14890984D01*
X14161610Y-14890984D02*
X14180658Y-14881460D01*
X14180658Y-14881460D02*
X14190182Y-14871936D01*
X14190182Y-14871936D02*
X14209229Y-14843365D01*
X14209229Y-14843365D02*
X14218753Y-14805269D01*
X14218753Y-14805269D02*
X14218753Y-14729079D01*
X14218753Y-14729079D02*
X14209229Y-14710031D01*
X14209229Y-14710031D02*
X14199705Y-14700508D01*
X14199705Y-14700508D02*
X14180658Y-14690984D01*
X14180658Y-14690984D02*
X14142562Y-14690984D01*
X14142562Y-14690984D02*
X14123515Y-14700508D01*
X14123515Y-14700508D02*
X14113991Y-14710031D01*
X14113991Y-14710031D02*
X14104467Y-14729079D01*
X14104467Y-14729079D02*
X14104467Y-14776698D01*
X14104467Y-14776698D02*
X14113991Y-14795746D01*
X14113991Y-14795746D02*
X14123515Y-14805269D01*
X14123515Y-14805269D02*
X14142562Y-14814793D01*
X14142562Y-14814793D02*
X14180658Y-14814793D01*
X14180658Y-14814793D02*
X14199705Y-14805269D01*
X14199705Y-14805269D02*
X14209229Y-14795746D01*
X14209229Y-14795746D02*
X14218753Y-14776698D01*
X14342562Y-14690984D02*
X14361610Y-14690984D01*
X14361610Y-14690984D02*
X14380658Y-14700508D01*
X14380658Y-14700508D02*
X14390182Y-14710031D01*
X14390182Y-14710031D02*
X14399705Y-14729079D01*
X14399705Y-14729079D02*
X14409229Y-14767174D01*
X14409229Y-14767174D02*
X14409229Y-14814793D01*
X14409229Y-14814793D02*
X14399705Y-14852888D01*
X14399705Y-14852888D02*
X14390182Y-14871936D01*
X14390182Y-14871936D02*
X14380658Y-14881460D01*
X14380658Y-14881460D02*
X14361610Y-14890984D01*
X14361610Y-14890984D02*
X14342562Y-14890984D01*
X14342562Y-14890984D02*
X14323515Y-14881460D01*
X14323515Y-14881460D02*
X14313991Y-14871936D01*
X14313991Y-14871936D02*
X14304467Y-14852888D01*
X14304467Y-14852888D02*
X14294943Y-14814793D01*
X14294943Y-14814793D02*
X14294943Y-14767174D01*
X14294943Y-14767174D02*
X14304467Y-14729079D01*
X14304467Y-14729079D02*
X14313991Y-14710031D01*
X14313991Y-14710031D02*
X14323515Y-14700508D01*
X14323515Y-14700508D02*
X14342562Y-14690984D01*
X14533039Y-14690984D02*
X14552086Y-14690984D01*
X14552086Y-14690984D02*
X14571134Y-14700508D01*
X14571134Y-14700508D02*
X14580658Y-14710031D01*
X14580658Y-14710031D02*
X14590182Y-14729079D01*
X14590182Y-14729079D02*
X14599705Y-14767174D01*
X14599705Y-14767174D02*
X14599705Y-14814793D01*
X14599705Y-14814793D02*
X14590182Y-14852888D01*
X14590182Y-14852888D02*
X14580658Y-14871936D01*
X14580658Y-14871936D02*
X14571134Y-14881460D01*
X14571134Y-14881460D02*
X14552086Y-14890984D01*
X14552086Y-14890984D02*
X14533039Y-14890984D01*
X14533039Y-14890984D02*
X14513991Y-14881460D01*
X14513991Y-14881460D02*
X14504467Y-14871936D01*
X14504467Y-14871936D02*
X14494943Y-14852888D01*
X14494943Y-14852888D02*
X14485420Y-14814793D01*
X14485420Y-14814793D02*
X14485420Y-14767174D01*
X14485420Y-14767174D02*
X14494943Y-14729079D01*
X14494943Y-14729079D02*
X14504467Y-14710031D01*
X14504467Y-14710031D02*
X14513991Y-14700508D01*
X14513991Y-14700508D02*
X14533039Y-14690984D01*
X14685420Y-14890984D02*
X14685420Y-14757650D01*
X14685420Y-14776698D02*
X14694943Y-14767174D01*
X14694943Y-14767174D02*
X14713991Y-14757650D01*
X14713991Y-14757650D02*
X14742563Y-14757650D01*
X14742563Y-14757650D02*
X14761610Y-14767174D01*
X14761610Y-14767174D02*
X14771134Y-14786222D01*
X14771134Y-14786222D02*
X14771134Y-14890984D01*
X14771134Y-14786222D02*
X14780658Y-14767174D01*
X14780658Y-14767174D02*
X14799705Y-14757650D01*
X14799705Y-14757650D02*
X14828277Y-14757650D01*
X14828277Y-14757650D02*
X14847324Y-14767174D01*
X14847324Y-14767174D02*
X14856848Y-14786222D01*
X14856848Y-14786222D02*
X14856848Y-14890984D01*
X14952086Y-14890984D02*
X14952086Y-14757650D01*
X14952086Y-14776698D02*
X14961610Y-14767174D01*
X14961610Y-14767174D02*
X14980658Y-14757650D01*
X14980658Y-14757650D02*
X15009229Y-14757650D01*
X15009229Y-14757650D02*
X15028277Y-14767174D01*
X15028277Y-14767174D02*
X15037801Y-14786222D01*
X15037801Y-14786222D02*
X15037801Y-14890984D01*
X15037801Y-14786222D02*
X15047324Y-14767174D01*
X15047324Y-14767174D02*
X15066372Y-14757650D01*
X15066372Y-14757650D02*
X15094943Y-14757650D01*
X15094943Y-14757650D02*
X15113991Y-14767174D01*
X15113991Y-14767174D02*
X15123515Y-14786222D01*
X15123515Y-14786222D02*
X15123515Y-14890984D01*
X15513991Y-14681460D02*
X15342563Y-14938603D01*
X15771134Y-14690984D02*
X15790182Y-14690984D01*
X15790182Y-14690984D02*
X15809229Y-14700508D01*
X15809229Y-14700508D02*
X15818753Y-14710031D01*
X15818753Y-14710031D02*
X15828277Y-14729079D01*
X15828277Y-14729079D02*
X15837801Y-14767174D01*
X15837801Y-14767174D02*
X15837801Y-14814793D01*
X15837801Y-14814793D02*
X15828277Y-14852888D01*
X15828277Y-14852888D02*
X15818753Y-14871936D01*
X15818753Y-14871936D02*
X15809229Y-14881460D01*
X15809229Y-14881460D02*
X15790182Y-14890984D01*
X15790182Y-14890984D02*
X15771134Y-14890984D01*
X15771134Y-14890984D02*
X15752086Y-14881460D01*
X15752086Y-14881460D02*
X15742563Y-14871936D01*
X15742563Y-14871936D02*
X15733039Y-14852888D01*
X15733039Y-14852888D02*
X15723515Y-14814793D01*
X15723515Y-14814793D02*
X15723515Y-14767174D01*
X15723515Y-14767174D02*
X15733039Y-14729079D01*
X15733039Y-14729079D02*
X15742563Y-14710031D01*
X15742563Y-14710031D02*
X15752086Y-14700508D01*
X15752086Y-14700508D02*
X15771134Y-14690984D01*
X15933039Y-14881460D02*
X15933039Y-14890984D01*
X15933039Y-14890984D02*
X15923515Y-14910031D01*
X15923515Y-14910031D02*
X15913991Y-14919555D01*
X16056848Y-14690984D02*
X16075896Y-14690984D01*
X16075896Y-14690984D02*
X16094944Y-14700508D01*
X16094944Y-14700508D02*
X16104467Y-14710031D01*
X16104467Y-14710031D02*
X16113991Y-14729079D01*
X16113991Y-14729079D02*
X16123515Y-14767174D01*
X16123515Y-14767174D02*
X16123515Y-14814793D01*
X16123515Y-14814793D02*
X16113991Y-14852888D01*
X16113991Y-14852888D02*
X16104467Y-14871936D01*
X16104467Y-14871936D02*
X16094944Y-14881460D01*
X16094944Y-14881460D02*
X16075896Y-14890984D01*
X16075896Y-14890984D02*
X16056848Y-14890984D01*
X16056848Y-14890984D02*
X16037801Y-14881460D01*
X16037801Y-14881460D02*
X16028277Y-14871936D01*
X16028277Y-14871936D02*
X16018753Y-14852888D01*
X16018753Y-14852888D02*
X16009229Y-14814793D01*
X16009229Y-14814793D02*
X16009229Y-14767174D01*
X16009229Y-14767174D02*
X16018753Y-14729079D01*
X16018753Y-14729079D02*
X16028277Y-14710031D01*
X16028277Y-14710031D02*
X16037801Y-14700508D01*
X16037801Y-14700508D02*
X16056848Y-14690984D01*
X16190182Y-14690984D02*
X16313991Y-14690984D01*
X16313991Y-14690984D02*
X16247325Y-14767174D01*
X16247325Y-14767174D02*
X16275896Y-14767174D01*
X16275896Y-14767174D02*
X16294944Y-14776698D01*
X16294944Y-14776698D02*
X16304467Y-14786222D01*
X16304467Y-14786222D02*
X16313991Y-14805269D01*
X16313991Y-14805269D02*
X16313991Y-14852888D01*
X16313991Y-14852888D02*
X16304467Y-14871936D01*
X16304467Y-14871936D02*
X16294944Y-14881460D01*
X16294944Y-14881460D02*
X16275896Y-14890984D01*
X16275896Y-14890984D02*
X16218753Y-14890984D01*
X16218753Y-14890984D02*
X16199706Y-14881460D01*
X16199706Y-14881460D02*
X16190182Y-14871936D01*
X16494944Y-14690984D02*
X16399706Y-14690984D01*
X16399706Y-14690984D02*
X16390182Y-14786222D01*
X16390182Y-14786222D02*
X16399706Y-14776698D01*
X16399706Y-14776698D02*
X16418753Y-14767174D01*
X16418753Y-14767174D02*
X16466372Y-14767174D01*
X16466372Y-14767174D02*
X16485420Y-14776698D01*
X16485420Y-14776698D02*
X16494944Y-14786222D01*
X16494944Y-14786222D02*
X16504467Y-14805269D01*
X16504467Y-14805269D02*
X16504467Y-14852888D01*
X16504467Y-14852888D02*
X16494944Y-14871936D01*
X16494944Y-14871936D02*
X16485420Y-14881460D01*
X16485420Y-14881460D02*
X16466372Y-14890984D01*
X16466372Y-14890984D02*
X16418753Y-14890984D01*
X16418753Y-14890984D02*
X16399706Y-14881460D01*
X16399706Y-14881460D02*
X16390182Y-14871936D01*
X16675896Y-14757650D02*
X16675896Y-14890984D01*
X16628277Y-14681460D02*
X16580658Y-14824317D01*
X16580658Y-14824317D02*
X16704467Y-14824317D01*
X16771134Y-14690984D02*
X16771134Y-14729079D01*
X16847325Y-14690984D02*
X16847325Y-14729079D01*
X17142563Y-14967174D02*
X17133039Y-14957650D01*
X17133039Y-14957650D02*
X17113991Y-14929079D01*
X17113991Y-14929079D02*
X17104468Y-14910031D01*
X17104468Y-14910031D02*
X17094944Y-14881460D01*
X17094944Y-14881460D02*
X17085420Y-14833841D01*
X17085420Y-14833841D02*
X17085420Y-14795746D01*
X17085420Y-14795746D02*
X17094944Y-14748127D01*
X17094944Y-14748127D02*
X17104468Y-14719555D01*
X17104468Y-14719555D02*
X17113991Y-14700508D01*
X17113991Y-14700508D02*
X17133039Y-14671936D01*
X17133039Y-14671936D02*
X17142563Y-14662412D01*
X17209230Y-14710031D02*
X17218753Y-14700508D01*
X17218753Y-14700508D02*
X17237801Y-14690984D01*
X17237801Y-14690984D02*
X17285420Y-14690984D01*
X17285420Y-14690984D02*
X17304468Y-14700508D01*
X17304468Y-14700508D02*
X17313991Y-14710031D01*
X17313991Y-14710031D02*
X17323515Y-14729079D01*
X17323515Y-14729079D02*
X17323515Y-14748127D01*
X17323515Y-14748127D02*
X17313991Y-14776698D01*
X17313991Y-14776698D02*
X17199706Y-14890984D01*
X17199706Y-14890984D02*
X17323515Y-14890984D01*
X17561611Y-14890984D02*
X17561611Y-14690984D01*
X17647325Y-14890984D02*
X17647325Y-14786222D01*
X17647325Y-14786222D02*
X17637801Y-14767174D01*
X17637801Y-14767174D02*
X17618753Y-14757650D01*
X17618753Y-14757650D02*
X17590182Y-14757650D01*
X17590182Y-14757650D02*
X17571134Y-14767174D01*
X17571134Y-14767174D02*
X17561611Y-14776698D01*
X17771134Y-14890984D02*
X17752087Y-14881460D01*
X17752087Y-14881460D02*
X17742563Y-14871936D01*
X17742563Y-14871936D02*
X17733039Y-14852888D01*
X17733039Y-14852888D02*
X17733039Y-14795746D01*
X17733039Y-14795746D02*
X17742563Y-14776698D01*
X17742563Y-14776698D02*
X17752087Y-14767174D01*
X17752087Y-14767174D02*
X17771134Y-14757650D01*
X17771134Y-14757650D02*
X17799706Y-14757650D01*
X17799706Y-14757650D02*
X17818753Y-14767174D01*
X17818753Y-14767174D02*
X17828277Y-14776698D01*
X17828277Y-14776698D02*
X17837801Y-14795746D01*
X17837801Y-14795746D02*
X17837801Y-14852888D01*
X17837801Y-14852888D02*
X17828277Y-14871936D01*
X17828277Y-14871936D02*
X17818753Y-14881460D01*
X17818753Y-14881460D02*
X17799706Y-14890984D01*
X17799706Y-14890984D02*
X17771134Y-14890984D01*
X17952087Y-14890984D02*
X17933039Y-14881460D01*
X17933039Y-14881460D02*
X17923515Y-14862412D01*
X17923515Y-14862412D02*
X17923515Y-14690984D01*
X18104468Y-14881460D02*
X18085420Y-14890984D01*
X18085420Y-14890984D02*
X18047325Y-14890984D01*
X18047325Y-14890984D02*
X18028277Y-14881460D01*
X18028277Y-14881460D02*
X18018753Y-14862412D01*
X18018753Y-14862412D02*
X18018753Y-14786222D01*
X18018753Y-14786222D02*
X18028277Y-14767174D01*
X18028277Y-14767174D02*
X18047325Y-14757650D01*
X18047325Y-14757650D02*
X18085420Y-14757650D01*
X18085420Y-14757650D02*
X18104468Y-14767174D01*
X18104468Y-14767174D02*
X18113992Y-14786222D01*
X18113992Y-14786222D02*
X18113992Y-14805269D01*
X18113992Y-14805269D02*
X18018753Y-14824317D01*
X18190182Y-14881460D02*
X18209230Y-14890984D01*
X18209230Y-14890984D02*
X18247325Y-14890984D01*
X18247325Y-14890984D02*
X18266373Y-14881460D01*
X18266373Y-14881460D02*
X18275896Y-14862412D01*
X18275896Y-14862412D02*
X18275896Y-14852888D01*
X18275896Y-14852888D02*
X18266373Y-14833841D01*
X18266373Y-14833841D02*
X18247325Y-14824317D01*
X18247325Y-14824317D02*
X18218753Y-14824317D01*
X18218753Y-14824317D02*
X18199706Y-14814793D01*
X18199706Y-14814793D02*
X18190182Y-14795746D01*
X18190182Y-14795746D02*
X18190182Y-14786222D01*
X18190182Y-14786222D02*
X18199706Y-14767174D01*
X18199706Y-14767174D02*
X18218753Y-14757650D01*
X18218753Y-14757650D02*
X18247325Y-14757650D01*
X18247325Y-14757650D02*
X18266373Y-14767174D01*
X18342563Y-14967174D02*
X18352087Y-14957650D01*
X18352087Y-14957650D02*
X18371134Y-14929079D01*
X18371134Y-14929079D02*
X18380658Y-14910031D01*
X18380658Y-14910031D02*
X18390182Y-14881460D01*
X18390182Y-14881460D02*
X18399706Y-14833841D01*
X18399706Y-14833841D02*
X18399706Y-14795746D01*
X18399706Y-14795746D02*
X18390182Y-14748127D01*
X18390182Y-14748127D02*
X18380658Y-14719555D01*
X18380658Y-14719555D02*
X18371134Y-14700508D01*
X18371134Y-14700508D02*
X18352087Y-14671936D01*
X18352087Y-14671936D02*
X18342563Y-14662412D01*
D12*
X13517500Y-15113500D02*
X13567500Y-15063500D01*
X13517500Y-15013500D01*
X13467500Y-15063500D01*
X13517500Y-15113500D01*
D11*
X13933039Y-15154984D02*
X13818753Y-15154984D01*
X13875896Y-15154984D02*
X13875896Y-14954984D01*
X13875896Y-14954984D02*
X13856848Y-14983555D01*
X13856848Y-14983555D02*
X13837801Y-15002603D01*
X13837801Y-15002603D02*
X13818753Y-15012127D01*
X14028277Y-15145460D02*
X14028277Y-15154984D01*
X14028277Y-15154984D02*
X14018753Y-15174031D01*
X14018753Y-15174031D02*
X14009229Y-15183555D01*
X14152086Y-14954984D02*
X14171134Y-14954984D01*
X14171134Y-14954984D02*
X14190182Y-14964508D01*
X14190182Y-14964508D02*
X14199705Y-14974031D01*
X14199705Y-14974031D02*
X14209229Y-14993079D01*
X14209229Y-14993079D02*
X14218753Y-15031174D01*
X14218753Y-15031174D02*
X14218753Y-15078793D01*
X14218753Y-15078793D02*
X14209229Y-15116888D01*
X14209229Y-15116888D02*
X14199705Y-15135936D01*
X14199705Y-15135936D02*
X14190182Y-15145460D01*
X14190182Y-15145460D02*
X14171134Y-15154984D01*
X14171134Y-15154984D02*
X14152086Y-15154984D01*
X14152086Y-15154984D02*
X14133039Y-15145460D01*
X14133039Y-15145460D02*
X14123515Y-15135936D01*
X14123515Y-15135936D02*
X14113991Y-15116888D01*
X14113991Y-15116888D02*
X14104467Y-15078793D01*
X14104467Y-15078793D02*
X14104467Y-15031174D01*
X14104467Y-15031174D02*
X14113991Y-14993079D01*
X14113991Y-14993079D02*
X14123515Y-14974031D01*
X14123515Y-14974031D02*
X14133039Y-14964508D01*
X14133039Y-14964508D02*
X14152086Y-14954984D01*
X14342562Y-14954984D02*
X14361610Y-14954984D01*
X14361610Y-14954984D02*
X14380658Y-14964508D01*
X14380658Y-14964508D02*
X14390182Y-14974031D01*
X14390182Y-14974031D02*
X14399705Y-14993079D01*
X14399705Y-14993079D02*
X14409229Y-15031174D01*
X14409229Y-15031174D02*
X14409229Y-15078793D01*
X14409229Y-15078793D02*
X14399705Y-15116888D01*
X14399705Y-15116888D02*
X14390182Y-15135936D01*
X14390182Y-15135936D02*
X14380658Y-15145460D01*
X14380658Y-15145460D02*
X14361610Y-15154984D01*
X14361610Y-15154984D02*
X14342562Y-15154984D01*
X14342562Y-15154984D02*
X14323515Y-15145460D01*
X14323515Y-15145460D02*
X14313991Y-15135936D01*
X14313991Y-15135936D02*
X14304467Y-15116888D01*
X14304467Y-15116888D02*
X14294943Y-15078793D01*
X14294943Y-15078793D02*
X14294943Y-15031174D01*
X14294943Y-15031174D02*
X14304467Y-14993079D01*
X14304467Y-14993079D02*
X14313991Y-14974031D01*
X14313991Y-14974031D02*
X14323515Y-14964508D01*
X14323515Y-14964508D02*
X14342562Y-14954984D01*
X14533039Y-14954984D02*
X14552086Y-14954984D01*
X14552086Y-14954984D02*
X14571134Y-14964508D01*
X14571134Y-14964508D02*
X14580658Y-14974031D01*
X14580658Y-14974031D02*
X14590182Y-14993079D01*
X14590182Y-14993079D02*
X14599705Y-15031174D01*
X14599705Y-15031174D02*
X14599705Y-15078793D01*
X14599705Y-15078793D02*
X14590182Y-15116888D01*
X14590182Y-15116888D02*
X14580658Y-15135936D01*
X14580658Y-15135936D02*
X14571134Y-15145460D01*
X14571134Y-15145460D02*
X14552086Y-15154984D01*
X14552086Y-15154984D02*
X14533039Y-15154984D01*
X14533039Y-15154984D02*
X14513991Y-15145460D01*
X14513991Y-15145460D02*
X14504467Y-15135936D01*
X14504467Y-15135936D02*
X14494943Y-15116888D01*
X14494943Y-15116888D02*
X14485420Y-15078793D01*
X14485420Y-15078793D02*
X14485420Y-15031174D01*
X14485420Y-15031174D02*
X14494943Y-14993079D01*
X14494943Y-14993079D02*
X14504467Y-14974031D01*
X14504467Y-14974031D02*
X14513991Y-14964508D01*
X14513991Y-14964508D02*
X14533039Y-14954984D01*
X14685420Y-15154984D02*
X14685420Y-15021650D01*
X14685420Y-15040698D02*
X14694943Y-15031174D01*
X14694943Y-15031174D02*
X14713991Y-15021650D01*
X14713991Y-15021650D02*
X14742563Y-15021650D01*
X14742563Y-15021650D02*
X14761610Y-15031174D01*
X14761610Y-15031174D02*
X14771134Y-15050222D01*
X14771134Y-15050222D02*
X14771134Y-15154984D01*
X14771134Y-15050222D02*
X14780658Y-15031174D01*
X14780658Y-15031174D02*
X14799705Y-15021650D01*
X14799705Y-15021650D02*
X14828277Y-15021650D01*
X14828277Y-15021650D02*
X14847324Y-15031174D01*
X14847324Y-15031174D02*
X14856848Y-15050222D01*
X14856848Y-15050222D02*
X14856848Y-15154984D01*
X14952086Y-15154984D02*
X14952086Y-15021650D01*
X14952086Y-15040698D02*
X14961610Y-15031174D01*
X14961610Y-15031174D02*
X14980658Y-15021650D01*
X14980658Y-15021650D02*
X15009229Y-15021650D01*
X15009229Y-15021650D02*
X15028277Y-15031174D01*
X15028277Y-15031174D02*
X15037801Y-15050222D01*
X15037801Y-15050222D02*
X15037801Y-15154984D01*
X15037801Y-15050222D02*
X15047324Y-15031174D01*
X15047324Y-15031174D02*
X15066372Y-15021650D01*
X15066372Y-15021650D02*
X15094943Y-15021650D01*
X15094943Y-15021650D02*
X15113991Y-15031174D01*
X15113991Y-15031174D02*
X15123515Y-15050222D01*
X15123515Y-15050222D02*
X15123515Y-15154984D01*
X15513991Y-14945460D02*
X15342563Y-15202603D01*
X15771134Y-14954984D02*
X15790182Y-14954984D01*
X15790182Y-14954984D02*
X15809229Y-14964508D01*
X15809229Y-14964508D02*
X15818753Y-14974031D01*
X15818753Y-14974031D02*
X15828277Y-14993079D01*
X15828277Y-14993079D02*
X15837801Y-15031174D01*
X15837801Y-15031174D02*
X15837801Y-15078793D01*
X15837801Y-15078793D02*
X15828277Y-15116888D01*
X15828277Y-15116888D02*
X15818753Y-15135936D01*
X15818753Y-15135936D02*
X15809229Y-15145460D01*
X15809229Y-15145460D02*
X15790182Y-15154984D01*
X15790182Y-15154984D02*
X15771134Y-15154984D01*
X15771134Y-15154984D02*
X15752086Y-15145460D01*
X15752086Y-15145460D02*
X15742563Y-15135936D01*
X15742563Y-15135936D02*
X15733039Y-15116888D01*
X15733039Y-15116888D02*
X15723515Y-15078793D01*
X15723515Y-15078793D02*
X15723515Y-15031174D01*
X15723515Y-15031174D02*
X15733039Y-14993079D01*
X15733039Y-14993079D02*
X15742563Y-14974031D01*
X15742563Y-14974031D02*
X15752086Y-14964508D01*
X15752086Y-14964508D02*
X15771134Y-14954984D01*
X15933039Y-15145460D02*
X15933039Y-15154984D01*
X15933039Y-15154984D02*
X15923515Y-15174031D01*
X15923515Y-15174031D02*
X15913991Y-15183555D01*
X16056848Y-14954984D02*
X16075896Y-14954984D01*
X16075896Y-14954984D02*
X16094944Y-14964508D01*
X16094944Y-14964508D02*
X16104467Y-14974031D01*
X16104467Y-14974031D02*
X16113991Y-14993079D01*
X16113991Y-14993079D02*
X16123515Y-15031174D01*
X16123515Y-15031174D02*
X16123515Y-15078793D01*
X16123515Y-15078793D02*
X16113991Y-15116888D01*
X16113991Y-15116888D02*
X16104467Y-15135936D01*
X16104467Y-15135936D02*
X16094944Y-15145460D01*
X16094944Y-15145460D02*
X16075896Y-15154984D01*
X16075896Y-15154984D02*
X16056848Y-15154984D01*
X16056848Y-15154984D02*
X16037801Y-15145460D01*
X16037801Y-15145460D02*
X16028277Y-15135936D01*
X16028277Y-15135936D02*
X16018753Y-15116888D01*
X16018753Y-15116888D02*
X16009229Y-15078793D01*
X16009229Y-15078793D02*
X16009229Y-15031174D01*
X16009229Y-15031174D02*
X16018753Y-14993079D01*
X16018753Y-14993079D02*
X16028277Y-14974031D01*
X16028277Y-14974031D02*
X16037801Y-14964508D01*
X16037801Y-14964508D02*
X16056848Y-14954984D01*
X16190182Y-14954984D02*
X16313991Y-14954984D01*
X16313991Y-14954984D02*
X16247325Y-15031174D01*
X16247325Y-15031174D02*
X16275896Y-15031174D01*
X16275896Y-15031174D02*
X16294944Y-15040698D01*
X16294944Y-15040698D02*
X16304467Y-15050222D01*
X16304467Y-15050222D02*
X16313991Y-15069269D01*
X16313991Y-15069269D02*
X16313991Y-15116888D01*
X16313991Y-15116888D02*
X16304467Y-15135936D01*
X16304467Y-15135936D02*
X16294944Y-15145460D01*
X16294944Y-15145460D02*
X16275896Y-15154984D01*
X16275896Y-15154984D02*
X16218753Y-15154984D01*
X16218753Y-15154984D02*
X16199706Y-15145460D01*
X16199706Y-15145460D02*
X16190182Y-15135936D01*
X16409229Y-15154984D02*
X16447325Y-15154984D01*
X16447325Y-15154984D02*
X16466372Y-15145460D01*
X16466372Y-15145460D02*
X16475896Y-15135936D01*
X16475896Y-15135936D02*
X16494944Y-15107365D01*
X16494944Y-15107365D02*
X16504467Y-15069269D01*
X16504467Y-15069269D02*
X16504467Y-14993079D01*
X16504467Y-14993079D02*
X16494944Y-14974031D01*
X16494944Y-14974031D02*
X16485420Y-14964508D01*
X16485420Y-14964508D02*
X16466372Y-14954984D01*
X16466372Y-14954984D02*
X16428277Y-14954984D01*
X16428277Y-14954984D02*
X16409229Y-14964508D01*
X16409229Y-14964508D02*
X16399706Y-14974031D01*
X16399706Y-14974031D02*
X16390182Y-14993079D01*
X16390182Y-14993079D02*
X16390182Y-15040698D01*
X16390182Y-15040698D02*
X16399706Y-15059746D01*
X16399706Y-15059746D02*
X16409229Y-15069269D01*
X16409229Y-15069269D02*
X16428277Y-15078793D01*
X16428277Y-15078793D02*
X16466372Y-15078793D01*
X16466372Y-15078793D02*
X16485420Y-15069269D01*
X16485420Y-15069269D02*
X16494944Y-15059746D01*
X16494944Y-15059746D02*
X16504467Y-15040698D01*
X16675896Y-15021650D02*
X16675896Y-15154984D01*
X16628277Y-14945460D02*
X16580658Y-15088317D01*
X16580658Y-15088317D02*
X16704467Y-15088317D01*
X16771134Y-14954984D02*
X16771134Y-14993079D01*
X16847325Y-14954984D02*
X16847325Y-14993079D01*
X17142563Y-15231174D02*
X17133039Y-15221650D01*
X17133039Y-15221650D02*
X17113991Y-15193079D01*
X17113991Y-15193079D02*
X17104468Y-15174031D01*
X17104468Y-15174031D02*
X17094944Y-15145460D01*
X17094944Y-15145460D02*
X17085420Y-15097841D01*
X17085420Y-15097841D02*
X17085420Y-15059746D01*
X17085420Y-15059746D02*
X17094944Y-15012127D01*
X17094944Y-15012127D02*
X17104468Y-14983555D01*
X17104468Y-14983555D02*
X17113991Y-14964508D01*
X17113991Y-14964508D02*
X17133039Y-14935936D01*
X17133039Y-14935936D02*
X17142563Y-14926412D01*
X17323515Y-15154984D02*
X17209230Y-15154984D01*
X17266372Y-15154984D02*
X17266372Y-14954984D01*
X17266372Y-14954984D02*
X17247325Y-14983555D01*
X17247325Y-14983555D02*
X17228277Y-15002603D01*
X17228277Y-15002603D02*
X17209230Y-15012127D01*
X17437801Y-15040698D02*
X17418753Y-15031174D01*
X17418753Y-15031174D02*
X17409230Y-15021650D01*
X17409230Y-15021650D02*
X17399706Y-15002603D01*
X17399706Y-15002603D02*
X17399706Y-14993079D01*
X17399706Y-14993079D02*
X17409230Y-14974031D01*
X17409230Y-14974031D02*
X17418753Y-14964508D01*
X17418753Y-14964508D02*
X17437801Y-14954984D01*
X17437801Y-14954984D02*
X17475896Y-14954984D01*
X17475896Y-14954984D02*
X17494944Y-14964508D01*
X17494944Y-14964508D02*
X17504468Y-14974031D01*
X17504468Y-14974031D02*
X17513991Y-14993079D01*
X17513991Y-14993079D02*
X17513991Y-15002603D01*
X17513991Y-15002603D02*
X17504468Y-15021650D01*
X17504468Y-15021650D02*
X17494944Y-15031174D01*
X17494944Y-15031174D02*
X17475896Y-15040698D01*
X17475896Y-15040698D02*
X17437801Y-15040698D01*
X17437801Y-15040698D02*
X17418753Y-15050222D01*
X17418753Y-15050222D02*
X17409230Y-15059746D01*
X17409230Y-15059746D02*
X17399706Y-15078793D01*
X17399706Y-15078793D02*
X17399706Y-15116888D01*
X17399706Y-15116888D02*
X17409230Y-15135936D01*
X17409230Y-15135936D02*
X17418753Y-15145460D01*
X17418753Y-15145460D02*
X17437801Y-15154984D01*
X17437801Y-15154984D02*
X17475896Y-15154984D01*
X17475896Y-15154984D02*
X17494944Y-15145460D01*
X17494944Y-15145460D02*
X17504468Y-15135936D01*
X17504468Y-15135936D02*
X17513991Y-15116888D01*
X17513991Y-15116888D02*
X17513991Y-15078793D01*
X17513991Y-15078793D02*
X17504468Y-15059746D01*
X17504468Y-15059746D02*
X17494944Y-15050222D01*
X17494944Y-15050222D02*
X17475896Y-15040698D01*
X17752087Y-15154984D02*
X17752087Y-14954984D01*
X17837801Y-15154984D02*
X17837801Y-15050222D01*
X17837801Y-15050222D02*
X17828277Y-15031174D01*
X17828277Y-15031174D02*
X17809230Y-15021650D01*
X17809230Y-15021650D02*
X17780658Y-15021650D01*
X17780658Y-15021650D02*
X17761611Y-15031174D01*
X17761611Y-15031174D02*
X17752087Y-15040698D01*
X17961611Y-15154984D02*
X17942563Y-15145460D01*
X17942563Y-15145460D02*
X17933039Y-15135936D01*
X17933039Y-15135936D02*
X17923515Y-15116888D01*
X17923515Y-15116888D02*
X17923515Y-15059746D01*
X17923515Y-15059746D02*
X17933039Y-15040698D01*
X17933039Y-15040698D02*
X17942563Y-15031174D01*
X17942563Y-15031174D02*
X17961611Y-15021650D01*
X17961611Y-15021650D02*
X17990182Y-15021650D01*
X17990182Y-15021650D02*
X18009230Y-15031174D01*
X18009230Y-15031174D02*
X18018753Y-15040698D01*
X18018753Y-15040698D02*
X18028277Y-15059746D01*
X18028277Y-15059746D02*
X18028277Y-15116888D01*
X18028277Y-15116888D02*
X18018753Y-15135936D01*
X18018753Y-15135936D02*
X18009230Y-15145460D01*
X18009230Y-15145460D02*
X17990182Y-15154984D01*
X17990182Y-15154984D02*
X17961611Y-15154984D01*
X18142563Y-15154984D02*
X18123515Y-15145460D01*
X18123515Y-15145460D02*
X18113992Y-15126412D01*
X18113992Y-15126412D02*
X18113992Y-14954984D01*
X18294944Y-15145460D02*
X18275896Y-15154984D01*
X18275896Y-15154984D02*
X18237801Y-15154984D01*
X18237801Y-15154984D02*
X18218753Y-15145460D01*
X18218753Y-15145460D02*
X18209230Y-15126412D01*
X18209230Y-15126412D02*
X18209230Y-15050222D01*
X18209230Y-15050222D02*
X18218753Y-15031174D01*
X18218753Y-15031174D02*
X18237801Y-15021650D01*
X18237801Y-15021650D02*
X18275896Y-15021650D01*
X18275896Y-15021650D02*
X18294944Y-15031174D01*
X18294944Y-15031174D02*
X18304468Y-15050222D01*
X18304468Y-15050222D02*
X18304468Y-15069269D01*
X18304468Y-15069269D02*
X18209230Y-15088317D01*
X18380658Y-15145460D02*
X18399706Y-15154984D01*
X18399706Y-15154984D02*
X18437801Y-15154984D01*
X18437801Y-15154984D02*
X18456849Y-15145460D01*
X18456849Y-15145460D02*
X18466373Y-15126412D01*
X18466373Y-15126412D02*
X18466373Y-15116888D01*
X18466373Y-15116888D02*
X18456849Y-15097841D01*
X18456849Y-15097841D02*
X18437801Y-15088317D01*
X18437801Y-15088317D02*
X18409230Y-15088317D01*
X18409230Y-15088317D02*
X18390182Y-15078793D01*
X18390182Y-15078793D02*
X18380658Y-15059746D01*
X18380658Y-15059746D02*
X18380658Y-15050222D01*
X18380658Y-15050222D02*
X18390182Y-15031174D01*
X18390182Y-15031174D02*
X18409230Y-15021650D01*
X18409230Y-15021650D02*
X18437801Y-15021650D01*
X18437801Y-15021650D02*
X18456849Y-15031174D01*
X18704468Y-15078793D02*
X18856849Y-15078793D01*
X18780658Y-15154984D02*
X18780658Y-15002603D01*
X19085420Y-14954984D02*
X19209230Y-14954984D01*
X19209230Y-14954984D02*
X19142563Y-15031174D01*
X19142563Y-15031174D02*
X19171135Y-15031174D01*
X19171135Y-15031174D02*
X19190182Y-15040698D01*
X19190182Y-15040698D02*
X19199706Y-15050222D01*
X19199706Y-15050222D02*
X19209230Y-15069269D01*
X19209230Y-15069269D02*
X19209230Y-15116888D01*
X19209230Y-15116888D02*
X19199706Y-15135936D01*
X19199706Y-15135936D02*
X19190182Y-15145460D01*
X19190182Y-15145460D02*
X19171135Y-15154984D01*
X19171135Y-15154984D02*
X19113992Y-15154984D01*
X19113992Y-15154984D02*
X19094944Y-15145460D01*
X19094944Y-15145460D02*
X19085420Y-15135936D01*
X19437801Y-15145460D02*
X19456849Y-15154984D01*
X19456849Y-15154984D02*
X19494944Y-15154984D01*
X19494944Y-15154984D02*
X19513992Y-15145460D01*
X19513992Y-15145460D02*
X19523516Y-15126412D01*
X19523516Y-15126412D02*
X19523516Y-15116888D01*
X19523516Y-15116888D02*
X19513992Y-15097841D01*
X19513992Y-15097841D02*
X19494944Y-15088317D01*
X19494944Y-15088317D02*
X19466373Y-15088317D01*
X19466373Y-15088317D02*
X19447325Y-15078793D01*
X19447325Y-15078793D02*
X19437801Y-15059746D01*
X19437801Y-15059746D02*
X19437801Y-15050222D01*
X19437801Y-15050222D02*
X19447325Y-15031174D01*
X19447325Y-15031174D02*
X19466373Y-15021650D01*
X19466373Y-15021650D02*
X19494944Y-15021650D01*
X19494944Y-15021650D02*
X19513992Y-15031174D01*
X19637801Y-15154984D02*
X19618754Y-15145460D01*
X19618754Y-15145460D02*
X19609230Y-15126412D01*
X19609230Y-15126412D02*
X19609230Y-14954984D01*
X19742563Y-15154984D02*
X19723516Y-15145460D01*
X19723516Y-15145460D02*
X19713992Y-15135936D01*
X19713992Y-15135936D02*
X19704468Y-15116888D01*
X19704468Y-15116888D02*
X19704468Y-15059746D01*
X19704468Y-15059746D02*
X19713992Y-15040698D01*
X19713992Y-15040698D02*
X19723516Y-15031174D01*
X19723516Y-15031174D02*
X19742563Y-15021650D01*
X19742563Y-15021650D02*
X19771135Y-15021650D01*
X19771135Y-15021650D02*
X19790182Y-15031174D01*
X19790182Y-15031174D02*
X19799706Y-15040698D01*
X19799706Y-15040698D02*
X19809230Y-15059746D01*
X19809230Y-15059746D02*
X19809230Y-15116888D01*
X19809230Y-15116888D02*
X19799706Y-15135936D01*
X19799706Y-15135936D02*
X19790182Y-15145460D01*
X19790182Y-15145460D02*
X19771135Y-15154984D01*
X19771135Y-15154984D02*
X19742563Y-15154984D01*
X19866373Y-15021650D02*
X19942563Y-15021650D01*
X19894944Y-14954984D02*
X19894944Y-15126412D01*
X19894944Y-15126412D02*
X19904468Y-15145460D01*
X19904468Y-15145460D02*
X19923516Y-15154984D01*
X19923516Y-15154984D02*
X19942563Y-15154984D01*
X19999706Y-15145460D02*
X20018754Y-15154984D01*
X20018754Y-15154984D02*
X20056849Y-15154984D01*
X20056849Y-15154984D02*
X20075897Y-15145460D01*
X20075897Y-15145460D02*
X20085420Y-15126412D01*
X20085420Y-15126412D02*
X20085420Y-15116888D01*
X20085420Y-15116888D02*
X20075897Y-15097841D01*
X20075897Y-15097841D02*
X20056849Y-15088317D01*
X20056849Y-15088317D02*
X20028277Y-15088317D01*
X20028277Y-15088317D02*
X20009230Y-15078793D01*
X20009230Y-15078793D02*
X19999706Y-15059746D01*
X19999706Y-15059746D02*
X19999706Y-15050222D01*
X19999706Y-15050222D02*
X20009230Y-15031174D01*
X20009230Y-15031174D02*
X20028277Y-15021650D01*
X20028277Y-15021650D02*
X20056849Y-15021650D01*
X20056849Y-15021650D02*
X20075897Y-15031174D01*
X20152087Y-15231174D02*
X20161611Y-15221650D01*
X20161611Y-15221650D02*
X20180658Y-15193079D01*
X20180658Y-15193079D02*
X20190182Y-15174031D01*
X20190182Y-15174031D02*
X20199706Y-15145460D01*
X20199706Y-15145460D02*
X20209230Y-15097841D01*
X20209230Y-15097841D02*
X20209230Y-15059746D01*
X20209230Y-15059746D02*
X20199706Y-15012127D01*
X20199706Y-15012127D02*
X20190182Y-14983555D01*
X20190182Y-14983555D02*
X20180658Y-14964508D01*
X20180658Y-14964508D02*
X20161611Y-14935936D01*
X20161611Y-14935936D02*
X20152087Y-14926412D01*
D13*
X13437500Y-15262500D02*
X13567500Y-15392500D01*
X13567500Y-15262500D02*
X13437500Y-15392500D01*
X13567500Y-15327500D02*
G75*
G02*
X13437500Y-15327500I-65000J0D01*
G01*
X13437500Y-15327500D02*
G75*
G02*
X13567500Y-15327500I65000J0D01*
G01*
D11*
X13933039Y-15418984D02*
X13818753Y-15418984D01*
X13875896Y-15418984D02*
X13875896Y-15218984D01*
X13875896Y-15218984D02*
X13856848Y-15247555D01*
X13856848Y-15247555D02*
X13837801Y-15266603D01*
X13837801Y-15266603D02*
X13818753Y-15276127D01*
X14028277Y-15409460D02*
X14028277Y-15418984D01*
X14028277Y-15418984D02*
X14018753Y-15438031D01*
X14018753Y-15438031D02*
X14009229Y-15447555D01*
X14094943Y-15218984D02*
X14218753Y-15218984D01*
X14218753Y-15218984D02*
X14152086Y-15295174D01*
X14152086Y-15295174D02*
X14180658Y-15295174D01*
X14180658Y-15295174D02*
X14199705Y-15304698D01*
X14199705Y-15304698D02*
X14209229Y-15314222D01*
X14209229Y-15314222D02*
X14218753Y-15333269D01*
X14218753Y-15333269D02*
X14218753Y-15380888D01*
X14218753Y-15380888D02*
X14209229Y-15399936D01*
X14209229Y-15399936D02*
X14199705Y-15409460D01*
X14199705Y-15409460D02*
X14180658Y-15418984D01*
X14180658Y-15418984D02*
X14123515Y-15418984D01*
X14123515Y-15418984D02*
X14104467Y-15409460D01*
X14104467Y-15409460D02*
X14094943Y-15399936D01*
X14342562Y-15218984D02*
X14361610Y-15218984D01*
X14361610Y-15218984D02*
X14380658Y-15228508D01*
X14380658Y-15228508D02*
X14390182Y-15238031D01*
X14390182Y-15238031D02*
X14399705Y-15257079D01*
X14399705Y-15257079D02*
X14409229Y-15295174D01*
X14409229Y-15295174D02*
X14409229Y-15342793D01*
X14409229Y-15342793D02*
X14399705Y-15380888D01*
X14399705Y-15380888D02*
X14390182Y-15399936D01*
X14390182Y-15399936D02*
X14380658Y-15409460D01*
X14380658Y-15409460D02*
X14361610Y-15418984D01*
X14361610Y-15418984D02*
X14342562Y-15418984D01*
X14342562Y-15418984D02*
X14323515Y-15409460D01*
X14323515Y-15409460D02*
X14313991Y-15399936D01*
X14313991Y-15399936D02*
X14304467Y-15380888D01*
X14304467Y-15380888D02*
X14294943Y-15342793D01*
X14294943Y-15342793D02*
X14294943Y-15295174D01*
X14294943Y-15295174D02*
X14304467Y-15257079D01*
X14304467Y-15257079D02*
X14313991Y-15238031D01*
X14313991Y-15238031D02*
X14323515Y-15228508D01*
X14323515Y-15228508D02*
X14342562Y-15218984D01*
X14533039Y-15218984D02*
X14552086Y-15218984D01*
X14552086Y-15218984D02*
X14571134Y-15228508D01*
X14571134Y-15228508D02*
X14580658Y-15238031D01*
X14580658Y-15238031D02*
X14590182Y-15257079D01*
X14590182Y-15257079D02*
X14599705Y-15295174D01*
X14599705Y-15295174D02*
X14599705Y-15342793D01*
X14599705Y-15342793D02*
X14590182Y-15380888D01*
X14590182Y-15380888D02*
X14580658Y-15399936D01*
X14580658Y-15399936D02*
X14571134Y-15409460D01*
X14571134Y-15409460D02*
X14552086Y-15418984D01*
X14552086Y-15418984D02*
X14533039Y-15418984D01*
X14533039Y-15418984D02*
X14513991Y-15409460D01*
X14513991Y-15409460D02*
X14504467Y-15399936D01*
X14504467Y-15399936D02*
X14494943Y-15380888D01*
X14494943Y-15380888D02*
X14485420Y-15342793D01*
X14485420Y-15342793D02*
X14485420Y-15295174D01*
X14485420Y-15295174D02*
X14494943Y-15257079D01*
X14494943Y-15257079D02*
X14504467Y-15238031D01*
X14504467Y-15238031D02*
X14513991Y-15228508D01*
X14513991Y-15228508D02*
X14533039Y-15218984D01*
X14685420Y-15418984D02*
X14685420Y-15285650D01*
X14685420Y-15304698D02*
X14694943Y-15295174D01*
X14694943Y-15295174D02*
X14713991Y-15285650D01*
X14713991Y-15285650D02*
X14742563Y-15285650D01*
X14742563Y-15285650D02*
X14761610Y-15295174D01*
X14761610Y-15295174D02*
X14771134Y-15314222D01*
X14771134Y-15314222D02*
X14771134Y-15418984D01*
X14771134Y-15314222D02*
X14780658Y-15295174D01*
X14780658Y-15295174D02*
X14799705Y-15285650D01*
X14799705Y-15285650D02*
X14828277Y-15285650D01*
X14828277Y-15285650D02*
X14847324Y-15295174D01*
X14847324Y-15295174D02*
X14856848Y-15314222D01*
X14856848Y-15314222D02*
X14856848Y-15418984D01*
X14952086Y-15418984D02*
X14952086Y-15285650D01*
X14952086Y-15304698D02*
X14961610Y-15295174D01*
X14961610Y-15295174D02*
X14980658Y-15285650D01*
X14980658Y-15285650D02*
X15009229Y-15285650D01*
X15009229Y-15285650D02*
X15028277Y-15295174D01*
X15028277Y-15295174D02*
X15037801Y-15314222D01*
X15037801Y-15314222D02*
X15037801Y-15418984D01*
X15037801Y-15314222D02*
X15047324Y-15295174D01*
X15047324Y-15295174D02*
X15066372Y-15285650D01*
X15066372Y-15285650D02*
X15094943Y-15285650D01*
X15094943Y-15285650D02*
X15113991Y-15295174D01*
X15113991Y-15295174D02*
X15123515Y-15314222D01*
X15123515Y-15314222D02*
X15123515Y-15418984D01*
X15513991Y-15209460D02*
X15342563Y-15466603D01*
X15771134Y-15218984D02*
X15790182Y-15218984D01*
X15790182Y-15218984D02*
X15809229Y-15228508D01*
X15809229Y-15228508D02*
X15818753Y-15238031D01*
X15818753Y-15238031D02*
X15828277Y-15257079D01*
X15828277Y-15257079D02*
X15837801Y-15295174D01*
X15837801Y-15295174D02*
X15837801Y-15342793D01*
X15837801Y-15342793D02*
X15828277Y-15380888D01*
X15828277Y-15380888D02*
X15818753Y-15399936D01*
X15818753Y-15399936D02*
X15809229Y-15409460D01*
X15809229Y-15409460D02*
X15790182Y-15418984D01*
X15790182Y-15418984D02*
X15771134Y-15418984D01*
X15771134Y-15418984D02*
X15752086Y-15409460D01*
X15752086Y-15409460D02*
X15742563Y-15399936D01*
X15742563Y-15399936D02*
X15733039Y-15380888D01*
X15733039Y-15380888D02*
X15723515Y-15342793D01*
X15723515Y-15342793D02*
X15723515Y-15295174D01*
X15723515Y-15295174D02*
X15733039Y-15257079D01*
X15733039Y-15257079D02*
X15742563Y-15238031D01*
X15742563Y-15238031D02*
X15752086Y-15228508D01*
X15752086Y-15228508D02*
X15771134Y-15218984D01*
X15933039Y-15409460D02*
X15933039Y-15418984D01*
X15933039Y-15418984D02*
X15923515Y-15438031D01*
X15923515Y-15438031D02*
X15913991Y-15447555D01*
X16056848Y-15218984D02*
X16075896Y-15218984D01*
X16075896Y-15218984D02*
X16094944Y-15228508D01*
X16094944Y-15228508D02*
X16104467Y-15238031D01*
X16104467Y-15238031D02*
X16113991Y-15257079D01*
X16113991Y-15257079D02*
X16123515Y-15295174D01*
X16123515Y-15295174D02*
X16123515Y-15342793D01*
X16123515Y-15342793D02*
X16113991Y-15380888D01*
X16113991Y-15380888D02*
X16104467Y-15399936D01*
X16104467Y-15399936D02*
X16094944Y-15409460D01*
X16094944Y-15409460D02*
X16075896Y-15418984D01*
X16075896Y-15418984D02*
X16056848Y-15418984D01*
X16056848Y-15418984D02*
X16037801Y-15409460D01*
X16037801Y-15409460D02*
X16028277Y-15399936D01*
X16028277Y-15399936D02*
X16018753Y-15380888D01*
X16018753Y-15380888D02*
X16009229Y-15342793D01*
X16009229Y-15342793D02*
X16009229Y-15295174D01*
X16009229Y-15295174D02*
X16018753Y-15257079D01*
X16018753Y-15257079D02*
X16028277Y-15238031D01*
X16028277Y-15238031D02*
X16037801Y-15228508D01*
X16037801Y-15228508D02*
X16056848Y-15218984D01*
X16304467Y-15218984D02*
X16209229Y-15218984D01*
X16209229Y-15218984D02*
X16199706Y-15314222D01*
X16199706Y-15314222D02*
X16209229Y-15304698D01*
X16209229Y-15304698D02*
X16228277Y-15295174D01*
X16228277Y-15295174D02*
X16275896Y-15295174D01*
X16275896Y-15295174D02*
X16294944Y-15304698D01*
X16294944Y-15304698D02*
X16304467Y-15314222D01*
X16304467Y-15314222D02*
X16313991Y-15333269D01*
X16313991Y-15333269D02*
X16313991Y-15380888D01*
X16313991Y-15380888D02*
X16304467Y-15399936D01*
X16304467Y-15399936D02*
X16294944Y-15409460D01*
X16294944Y-15409460D02*
X16275896Y-15418984D01*
X16275896Y-15418984D02*
X16228277Y-15418984D01*
X16228277Y-15418984D02*
X16209229Y-15409460D01*
X16209229Y-15409460D02*
X16199706Y-15399936D01*
X16504467Y-15418984D02*
X16390182Y-15418984D01*
X16447325Y-15418984D02*
X16447325Y-15218984D01*
X16447325Y-15218984D02*
X16428277Y-15247555D01*
X16428277Y-15247555D02*
X16409229Y-15266603D01*
X16409229Y-15266603D02*
X16390182Y-15276127D01*
X16580658Y-15238031D02*
X16590182Y-15228508D01*
X16590182Y-15228508D02*
X16609229Y-15218984D01*
X16609229Y-15218984D02*
X16656848Y-15218984D01*
X16656848Y-15218984D02*
X16675896Y-15228508D01*
X16675896Y-15228508D02*
X16685420Y-15238031D01*
X16685420Y-15238031D02*
X16694944Y-15257079D01*
X16694944Y-15257079D02*
X16694944Y-15276127D01*
X16694944Y-15276127D02*
X16685420Y-15304698D01*
X16685420Y-15304698D02*
X16571134Y-15418984D01*
X16571134Y-15418984D02*
X16694944Y-15418984D01*
X16771134Y-15218984D02*
X16771134Y-15257079D01*
X16847325Y-15218984D02*
X16847325Y-15257079D01*
X17142563Y-15495174D02*
X17133039Y-15485650D01*
X17133039Y-15485650D02*
X17113991Y-15457079D01*
X17113991Y-15457079D02*
X17104468Y-15438031D01*
X17104468Y-15438031D02*
X17094944Y-15409460D01*
X17094944Y-15409460D02*
X17085420Y-15361841D01*
X17085420Y-15361841D02*
X17085420Y-15323746D01*
X17085420Y-15323746D02*
X17094944Y-15276127D01*
X17094944Y-15276127D02*
X17104468Y-15247555D01*
X17104468Y-15247555D02*
X17113991Y-15228508D01*
X17113991Y-15228508D02*
X17133039Y-15199936D01*
X17133039Y-15199936D02*
X17142563Y-15190412D01*
X17209230Y-15238031D02*
X17218753Y-15228508D01*
X17218753Y-15228508D02*
X17237801Y-15218984D01*
X17237801Y-15218984D02*
X17285420Y-15218984D01*
X17285420Y-15218984D02*
X17304468Y-15228508D01*
X17304468Y-15228508D02*
X17313991Y-15238031D01*
X17313991Y-15238031D02*
X17323515Y-15257079D01*
X17323515Y-15257079D02*
X17323515Y-15276127D01*
X17323515Y-15276127D02*
X17313991Y-15304698D01*
X17313991Y-15304698D02*
X17199706Y-15418984D01*
X17199706Y-15418984D02*
X17323515Y-15418984D01*
X17561611Y-15418984D02*
X17561611Y-15218984D01*
X17647325Y-15418984D02*
X17647325Y-15314222D01*
X17647325Y-15314222D02*
X17637801Y-15295174D01*
X17637801Y-15295174D02*
X17618753Y-15285650D01*
X17618753Y-15285650D02*
X17590182Y-15285650D01*
X17590182Y-15285650D02*
X17571134Y-15295174D01*
X17571134Y-15295174D02*
X17561611Y-15304698D01*
X17771134Y-15418984D02*
X17752087Y-15409460D01*
X17752087Y-15409460D02*
X17742563Y-15399936D01*
X17742563Y-15399936D02*
X17733039Y-15380888D01*
X17733039Y-15380888D02*
X17733039Y-15323746D01*
X17733039Y-15323746D02*
X17742563Y-15304698D01*
X17742563Y-15304698D02*
X17752087Y-15295174D01*
X17752087Y-15295174D02*
X17771134Y-15285650D01*
X17771134Y-15285650D02*
X17799706Y-15285650D01*
X17799706Y-15285650D02*
X17818753Y-15295174D01*
X17818753Y-15295174D02*
X17828277Y-15304698D01*
X17828277Y-15304698D02*
X17837801Y-15323746D01*
X17837801Y-15323746D02*
X17837801Y-15380888D01*
X17837801Y-15380888D02*
X17828277Y-15399936D01*
X17828277Y-15399936D02*
X17818753Y-15409460D01*
X17818753Y-15409460D02*
X17799706Y-15418984D01*
X17799706Y-15418984D02*
X17771134Y-15418984D01*
X17952087Y-15418984D02*
X17933039Y-15409460D01*
X17933039Y-15409460D02*
X17923515Y-15390412D01*
X17923515Y-15390412D02*
X17923515Y-15218984D01*
X18104468Y-15409460D02*
X18085420Y-15418984D01*
X18085420Y-15418984D02*
X18047325Y-15418984D01*
X18047325Y-15418984D02*
X18028277Y-15409460D01*
X18028277Y-15409460D02*
X18018753Y-15390412D01*
X18018753Y-15390412D02*
X18018753Y-15314222D01*
X18018753Y-15314222D02*
X18028277Y-15295174D01*
X18028277Y-15295174D02*
X18047325Y-15285650D01*
X18047325Y-15285650D02*
X18085420Y-15285650D01*
X18085420Y-15285650D02*
X18104468Y-15295174D01*
X18104468Y-15295174D02*
X18113992Y-15314222D01*
X18113992Y-15314222D02*
X18113992Y-15333269D01*
X18113992Y-15333269D02*
X18018753Y-15352317D01*
X18190182Y-15409460D02*
X18209230Y-15418984D01*
X18209230Y-15418984D02*
X18247325Y-15418984D01*
X18247325Y-15418984D02*
X18266373Y-15409460D01*
X18266373Y-15409460D02*
X18275896Y-15390412D01*
X18275896Y-15390412D02*
X18275896Y-15380888D01*
X18275896Y-15380888D02*
X18266373Y-15361841D01*
X18266373Y-15361841D02*
X18247325Y-15352317D01*
X18247325Y-15352317D02*
X18218753Y-15352317D01*
X18218753Y-15352317D02*
X18199706Y-15342793D01*
X18199706Y-15342793D02*
X18190182Y-15323746D01*
X18190182Y-15323746D02*
X18190182Y-15314222D01*
X18190182Y-15314222D02*
X18199706Y-15295174D01*
X18199706Y-15295174D02*
X18218753Y-15285650D01*
X18218753Y-15285650D02*
X18247325Y-15285650D01*
X18247325Y-15285650D02*
X18266373Y-15295174D01*
X18342563Y-15495174D02*
X18352087Y-15485650D01*
X18352087Y-15485650D02*
X18371134Y-15457079D01*
X18371134Y-15457079D02*
X18380658Y-15438031D01*
X18380658Y-15438031D02*
X18390182Y-15409460D01*
X18390182Y-15409460D02*
X18399706Y-15361841D01*
X18399706Y-15361841D02*
X18399706Y-15323746D01*
X18399706Y-15323746D02*
X18390182Y-15276127D01*
X18390182Y-15276127D02*
X18380658Y-15247555D01*
X18380658Y-15247555D02*
X18371134Y-15228508D01*
X18371134Y-15228508D02*
X18352087Y-15199936D01*
X18352087Y-15199936D02*
X18342563Y-15190412D01*
X13367500Y-15491500D02*
X13567500Y-15691500D01*
X13567500Y-15491500D02*
X13367500Y-15691500D01*
X13467500Y-15491500D02*
X13467500Y-15691500D01*
X13367500Y-15591500D02*
X13567500Y-15591500D01*
X13818753Y-15502031D02*
X13828277Y-15492508D01*
X13828277Y-15492508D02*
X13847324Y-15482984D01*
X13847324Y-15482984D02*
X13894943Y-15482984D01*
X13894943Y-15482984D02*
X13913991Y-15492508D01*
X13913991Y-15492508D02*
X13923515Y-15502031D01*
X13923515Y-15502031D02*
X13933039Y-15521079D01*
X13933039Y-15521079D02*
X13933039Y-15540127D01*
X13933039Y-15540127D02*
X13923515Y-15568698D01*
X13923515Y-15568698D02*
X13809229Y-15682984D01*
X13809229Y-15682984D02*
X13933039Y-15682984D01*
X14028277Y-15673460D02*
X14028277Y-15682984D01*
X14028277Y-15682984D02*
X14018753Y-15702031D01*
X14018753Y-15702031D02*
X14009229Y-15711555D01*
X14104467Y-15502031D02*
X14113991Y-15492508D01*
X14113991Y-15492508D02*
X14133039Y-15482984D01*
X14133039Y-15482984D02*
X14180658Y-15482984D01*
X14180658Y-15482984D02*
X14199705Y-15492508D01*
X14199705Y-15492508D02*
X14209229Y-15502031D01*
X14209229Y-15502031D02*
X14218753Y-15521079D01*
X14218753Y-15521079D02*
X14218753Y-15540127D01*
X14218753Y-15540127D02*
X14209229Y-15568698D01*
X14209229Y-15568698D02*
X14094943Y-15682984D01*
X14094943Y-15682984D02*
X14218753Y-15682984D01*
X14342562Y-15482984D02*
X14361610Y-15482984D01*
X14361610Y-15482984D02*
X14380658Y-15492508D01*
X14380658Y-15492508D02*
X14390182Y-15502031D01*
X14390182Y-15502031D02*
X14399705Y-15521079D01*
X14399705Y-15521079D02*
X14409229Y-15559174D01*
X14409229Y-15559174D02*
X14409229Y-15606793D01*
X14409229Y-15606793D02*
X14399705Y-15644888D01*
X14399705Y-15644888D02*
X14390182Y-15663936D01*
X14390182Y-15663936D02*
X14380658Y-15673460D01*
X14380658Y-15673460D02*
X14361610Y-15682984D01*
X14361610Y-15682984D02*
X14342562Y-15682984D01*
X14342562Y-15682984D02*
X14323515Y-15673460D01*
X14323515Y-15673460D02*
X14313991Y-15663936D01*
X14313991Y-15663936D02*
X14304467Y-15644888D01*
X14304467Y-15644888D02*
X14294943Y-15606793D01*
X14294943Y-15606793D02*
X14294943Y-15559174D01*
X14294943Y-15559174D02*
X14304467Y-15521079D01*
X14304467Y-15521079D02*
X14313991Y-15502031D01*
X14313991Y-15502031D02*
X14323515Y-15492508D01*
X14323515Y-15492508D02*
X14342562Y-15482984D01*
X14533039Y-15482984D02*
X14552086Y-15482984D01*
X14552086Y-15482984D02*
X14571134Y-15492508D01*
X14571134Y-15492508D02*
X14580658Y-15502031D01*
X14580658Y-15502031D02*
X14590182Y-15521079D01*
X14590182Y-15521079D02*
X14599705Y-15559174D01*
X14599705Y-15559174D02*
X14599705Y-15606793D01*
X14599705Y-15606793D02*
X14590182Y-15644888D01*
X14590182Y-15644888D02*
X14580658Y-15663936D01*
X14580658Y-15663936D02*
X14571134Y-15673460D01*
X14571134Y-15673460D02*
X14552086Y-15682984D01*
X14552086Y-15682984D02*
X14533039Y-15682984D01*
X14533039Y-15682984D02*
X14513991Y-15673460D01*
X14513991Y-15673460D02*
X14504467Y-15663936D01*
X14504467Y-15663936D02*
X14494943Y-15644888D01*
X14494943Y-15644888D02*
X14485420Y-15606793D01*
X14485420Y-15606793D02*
X14485420Y-15559174D01*
X14485420Y-15559174D02*
X14494943Y-15521079D01*
X14494943Y-15521079D02*
X14504467Y-15502031D01*
X14504467Y-15502031D02*
X14513991Y-15492508D01*
X14513991Y-15492508D02*
X14533039Y-15482984D01*
X14685420Y-15682984D02*
X14685420Y-15549650D01*
X14685420Y-15568698D02*
X14694943Y-15559174D01*
X14694943Y-15559174D02*
X14713991Y-15549650D01*
X14713991Y-15549650D02*
X14742563Y-15549650D01*
X14742563Y-15549650D02*
X14761610Y-15559174D01*
X14761610Y-15559174D02*
X14771134Y-15578222D01*
X14771134Y-15578222D02*
X14771134Y-15682984D01*
X14771134Y-15578222D02*
X14780658Y-15559174D01*
X14780658Y-15559174D02*
X14799705Y-15549650D01*
X14799705Y-15549650D02*
X14828277Y-15549650D01*
X14828277Y-15549650D02*
X14847324Y-15559174D01*
X14847324Y-15559174D02*
X14856848Y-15578222D01*
X14856848Y-15578222D02*
X14856848Y-15682984D01*
X14952086Y-15682984D02*
X14952086Y-15549650D01*
X14952086Y-15568698D02*
X14961610Y-15559174D01*
X14961610Y-15559174D02*
X14980658Y-15549650D01*
X14980658Y-15549650D02*
X15009229Y-15549650D01*
X15009229Y-15549650D02*
X15028277Y-15559174D01*
X15028277Y-15559174D02*
X15037801Y-15578222D01*
X15037801Y-15578222D02*
X15037801Y-15682984D01*
X15037801Y-15578222D02*
X15047324Y-15559174D01*
X15047324Y-15559174D02*
X15066372Y-15549650D01*
X15066372Y-15549650D02*
X15094943Y-15549650D01*
X15094943Y-15549650D02*
X15113991Y-15559174D01*
X15113991Y-15559174D02*
X15123515Y-15578222D01*
X15123515Y-15578222D02*
X15123515Y-15682984D01*
X15513991Y-15473460D02*
X15342563Y-15730603D01*
X15771134Y-15482984D02*
X15790182Y-15482984D01*
X15790182Y-15482984D02*
X15809229Y-15492508D01*
X15809229Y-15492508D02*
X15818753Y-15502031D01*
X15818753Y-15502031D02*
X15828277Y-15521079D01*
X15828277Y-15521079D02*
X15837801Y-15559174D01*
X15837801Y-15559174D02*
X15837801Y-15606793D01*
X15837801Y-15606793D02*
X15828277Y-15644888D01*
X15828277Y-15644888D02*
X15818753Y-15663936D01*
X15818753Y-15663936D02*
X15809229Y-15673460D01*
X15809229Y-15673460D02*
X15790182Y-15682984D01*
X15790182Y-15682984D02*
X15771134Y-15682984D01*
X15771134Y-15682984D02*
X15752086Y-15673460D01*
X15752086Y-15673460D02*
X15742563Y-15663936D01*
X15742563Y-15663936D02*
X15733039Y-15644888D01*
X15733039Y-15644888D02*
X15723515Y-15606793D01*
X15723515Y-15606793D02*
X15723515Y-15559174D01*
X15723515Y-15559174D02*
X15733039Y-15521079D01*
X15733039Y-15521079D02*
X15742563Y-15502031D01*
X15742563Y-15502031D02*
X15752086Y-15492508D01*
X15752086Y-15492508D02*
X15771134Y-15482984D01*
X15933039Y-15673460D02*
X15933039Y-15682984D01*
X15933039Y-15682984D02*
X15923515Y-15702031D01*
X15923515Y-15702031D02*
X15913991Y-15711555D01*
X16056848Y-15482984D02*
X16075896Y-15482984D01*
X16075896Y-15482984D02*
X16094944Y-15492508D01*
X16094944Y-15492508D02*
X16104467Y-15502031D01*
X16104467Y-15502031D02*
X16113991Y-15521079D01*
X16113991Y-15521079D02*
X16123515Y-15559174D01*
X16123515Y-15559174D02*
X16123515Y-15606793D01*
X16123515Y-15606793D02*
X16113991Y-15644888D01*
X16113991Y-15644888D02*
X16104467Y-15663936D01*
X16104467Y-15663936D02*
X16094944Y-15673460D01*
X16094944Y-15673460D02*
X16075896Y-15682984D01*
X16075896Y-15682984D02*
X16056848Y-15682984D01*
X16056848Y-15682984D02*
X16037801Y-15673460D01*
X16037801Y-15673460D02*
X16028277Y-15663936D01*
X16028277Y-15663936D02*
X16018753Y-15644888D01*
X16018753Y-15644888D02*
X16009229Y-15606793D01*
X16009229Y-15606793D02*
X16009229Y-15559174D01*
X16009229Y-15559174D02*
X16018753Y-15521079D01*
X16018753Y-15521079D02*
X16028277Y-15502031D01*
X16028277Y-15502031D02*
X16037801Y-15492508D01*
X16037801Y-15492508D02*
X16056848Y-15482984D01*
X16237801Y-15568698D02*
X16218753Y-15559174D01*
X16218753Y-15559174D02*
X16209229Y-15549650D01*
X16209229Y-15549650D02*
X16199706Y-15530603D01*
X16199706Y-15530603D02*
X16199706Y-15521079D01*
X16199706Y-15521079D02*
X16209229Y-15502031D01*
X16209229Y-15502031D02*
X16218753Y-15492508D01*
X16218753Y-15492508D02*
X16237801Y-15482984D01*
X16237801Y-15482984D02*
X16275896Y-15482984D01*
X16275896Y-15482984D02*
X16294944Y-15492508D01*
X16294944Y-15492508D02*
X16304467Y-15502031D01*
X16304467Y-15502031D02*
X16313991Y-15521079D01*
X16313991Y-15521079D02*
X16313991Y-15530603D01*
X16313991Y-15530603D02*
X16304467Y-15549650D01*
X16304467Y-15549650D02*
X16294944Y-15559174D01*
X16294944Y-15559174D02*
X16275896Y-15568698D01*
X16275896Y-15568698D02*
X16237801Y-15568698D01*
X16237801Y-15568698D02*
X16218753Y-15578222D01*
X16218753Y-15578222D02*
X16209229Y-15587746D01*
X16209229Y-15587746D02*
X16199706Y-15606793D01*
X16199706Y-15606793D02*
X16199706Y-15644888D01*
X16199706Y-15644888D02*
X16209229Y-15663936D01*
X16209229Y-15663936D02*
X16218753Y-15673460D01*
X16218753Y-15673460D02*
X16237801Y-15682984D01*
X16237801Y-15682984D02*
X16275896Y-15682984D01*
X16275896Y-15682984D02*
X16294944Y-15673460D01*
X16294944Y-15673460D02*
X16304467Y-15663936D01*
X16304467Y-15663936D02*
X16313991Y-15644888D01*
X16313991Y-15644888D02*
X16313991Y-15606793D01*
X16313991Y-15606793D02*
X16304467Y-15587746D01*
X16304467Y-15587746D02*
X16294944Y-15578222D01*
X16294944Y-15578222D02*
X16275896Y-15568698D01*
X16485420Y-15482984D02*
X16447325Y-15482984D01*
X16447325Y-15482984D02*
X16428277Y-15492508D01*
X16428277Y-15492508D02*
X16418753Y-15502031D01*
X16418753Y-15502031D02*
X16399706Y-15530603D01*
X16399706Y-15530603D02*
X16390182Y-15568698D01*
X16390182Y-15568698D02*
X16390182Y-15644888D01*
X16390182Y-15644888D02*
X16399706Y-15663936D01*
X16399706Y-15663936D02*
X16409229Y-15673460D01*
X16409229Y-15673460D02*
X16428277Y-15682984D01*
X16428277Y-15682984D02*
X16466372Y-15682984D01*
X16466372Y-15682984D02*
X16485420Y-15673460D01*
X16485420Y-15673460D02*
X16494944Y-15663936D01*
X16494944Y-15663936D02*
X16504467Y-15644888D01*
X16504467Y-15644888D02*
X16504467Y-15597269D01*
X16504467Y-15597269D02*
X16494944Y-15578222D01*
X16494944Y-15578222D02*
X16485420Y-15568698D01*
X16485420Y-15568698D02*
X16466372Y-15559174D01*
X16466372Y-15559174D02*
X16428277Y-15559174D01*
X16428277Y-15559174D02*
X16409229Y-15568698D01*
X16409229Y-15568698D02*
X16399706Y-15578222D01*
X16399706Y-15578222D02*
X16390182Y-15597269D01*
X16675896Y-15482984D02*
X16637801Y-15482984D01*
X16637801Y-15482984D02*
X16618753Y-15492508D01*
X16618753Y-15492508D02*
X16609229Y-15502031D01*
X16609229Y-15502031D02*
X16590182Y-15530603D01*
X16590182Y-15530603D02*
X16580658Y-15568698D01*
X16580658Y-15568698D02*
X16580658Y-15644888D01*
X16580658Y-15644888D02*
X16590182Y-15663936D01*
X16590182Y-15663936D02*
X16599706Y-15673460D01*
X16599706Y-15673460D02*
X16618753Y-15682984D01*
X16618753Y-15682984D02*
X16656848Y-15682984D01*
X16656848Y-15682984D02*
X16675896Y-15673460D01*
X16675896Y-15673460D02*
X16685420Y-15663936D01*
X16685420Y-15663936D02*
X16694944Y-15644888D01*
X16694944Y-15644888D02*
X16694944Y-15597269D01*
X16694944Y-15597269D02*
X16685420Y-15578222D01*
X16685420Y-15578222D02*
X16675896Y-15568698D01*
X16675896Y-15568698D02*
X16656848Y-15559174D01*
X16656848Y-15559174D02*
X16618753Y-15559174D01*
X16618753Y-15559174D02*
X16599706Y-15568698D01*
X16599706Y-15568698D02*
X16590182Y-15578222D01*
X16590182Y-15578222D02*
X16580658Y-15597269D01*
X16771134Y-15482984D02*
X16771134Y-15521079D01*
X16847325Y-15482984D02*
X16847325Y-15521079D01*
X17142563Y-15759174D02*
X17133039Y-15749650D01*
X17133039Y-15749650D02*
X17113991Y-15721079D01*
X17113991Y-15721079D02*
X17104468Y-15702031D01*
X17104468Y-15702031D02*
X17094944Y-15673460D01*
X17094944Y-15673460D02*
X17085420Y-15625841D01*
X17085420Y-15625841D02*
X17085420Y-15587746D01*
X17085420Y-15587746D02*
X17094944Y-15540127D01*
X17094944Y-15540127D02*
X17104468Y-15511555D01*
X17104468Y-15511555D02*
X17113991Y-15492508D01*
X17113991Y-15492508D02*
X17133039Y-15463936D01*
X17133039Y-15463936D02*
X17142563Y-15454412D01*
X17304468Y-15549650D02*
X17304468Y-15682984D01*
X17256849Y-15473460D02*
X17209230Y-15616317D01*
X17209230Y-15616317D02*
X17333039Y-15616317D01*
X17561611Y-15682984D02*
X17561611Y-15482984D01*
X17647325Y-15682984D02*
X17647325Y-15578222D01*
X17647325Y-15578222D02*
X17637801Y-15559174D01*
X17637801Y-15559174D02*
X17618753Y-15549650D01*
X17618753Y-15549650D02*
X17590182Y-15549650D01*
X17590182Y-15549650D02*
X17571134Y-15559174D01*
X17571134Y-15559174D02*
X17561611Y-15568698D01*
X17771134Y-15682984D02*
X17752087Y-15673460D01*
X17752087Y-15673460D02*
X17742563Y-15663936D01*
X17742563Y-15663936D02*
X17733039Y-15644888D01*
X17733039Y-15644888D02*
X17733039Y-15587746D01*
X17733039Y-15587746D02*
X17742563Y-15568698D01*
X17742563Y-15568698D02*
X17752087Y-15559174D01*
X17752087Y-15559174D02*
X17771134Y-15549650D01*
X17771134Y-15549650D02*
X17799706Y-15549650D01*
X17799706Y-15549650D02*
X17818753Y-15559174D01*
X17818753Y-15559174D02*
X17828277Y-15568698D01*
X17828277Y-15568698D02*
X17837801Y-15587746D01*
X17837801Y-15587746D02*
X17837801Y-15644888D01*
X17837801Y-15644888D02*
X17828277Y-15663936D01*
X17828277Y-15663936D02*
X17818753Y-15673460D01*
X17818753Y-15673460D02*
X17799706Y-15682984D01*
X17799706Y-15682984D02*
X17771134Y-15682984D01*
X17952087Y-15682984D02*
X17933039Y-15673460D01*
X17933039Y-15673460D02*
X17923515Y-15654412D01*
X17923515Y-15654412D02*
X17923515Y-15482984D01*
X18104468Y-15673460D02*
X18085420Y-15682984D01*
X18085420Y-15682984D02*
X18047325Y-15682984D01*
X18047325Y-15682984D02*
X18028277Y-15673460D01*
X18028277Y-15673460D02*
X18018753Y-15654412D01*
X18018753Y-15654412D02*
X18018753Y-15578222D01*
X18018753Y-15578222D02*
X18028277Y-15559174D01*
X18028277Y-15559174D02*
X18047325Y-15549650D01*
X18047325Y-15549650D02*
X18085420Y-15549650D01*
X18085420Y-15549650D02*
X18104468Y-15559174D01*
X18104468Y-15559174D02*
X18113992Y-15578222D01*
X18113992Y-15578222D02*
X18113992Y-15597269D01*
X18113992Y-15597269D02*
X18018753Y-15616317D01*
X18190182Y-15673460D02*
X18209230Y-15682984D01*
X18209230Y-15682984D02*
X18247325Y-15682984D01*
X18247325Y-15682984D02*
X18266373Y-15673460D01*
X18266373Y-15673460D02*
X18275896Y-15654412D01*
X18275896Y-15654412D02*
X18275896Y-15644888D01*
X18275896Y-15644888D02*
X18266373Y-15625841D01*
X18266373Y-15625841D02*
X18247325Y-15616317D01*
X18247325Y-15616317D02*
X18218753Y-15616317D01*
X18218753Y-15616317D02*
X18199706Y-15606793D01*
X18199706Y-15606793D02*
X18190182Y-15587746D01*
X18190182Y-15587746D02*
X18190182Y-15578222D01*
X18190182Y-15578222D02*
X18199706Y-15559174D01*
X18199706Y-15559174D02*
X18218753Y-15549650D01*
X18218753Y-15549650D02*
X18247325Y-15549650D01*
X18247325Y-15549650D02*
X18266373Y-15559174D01*
X18342563Y-15759174D02*
X18352087Y-15749650D01*
X18352087Y-15749650D02*
X18371134Y-15721079D01*
X18371134Y-15721079D02*
X18380658Y-15702031D01*
X18380658Y-15702031D02*
X18390182Y-15673460D01*
X18390182Y-15673460D02*
X18399706Y-15625841D01*
X18399706Y-15625841D02*
X18399706Y-15587746D01*
X18399706Y-15587746D02*
X18390182Y-15540127D01*
X18390182Y-15540127D02*
X18380658Y-15511555D01*
X18380658Y-15511555D02*
X18371134Y-15492508D01*
X18371134Y-15492508D02*
X18352087Y-15463936D01*
X18352087Y-15463936D02*
X18342563Y-15454412D01*
X18704468Y-15759174D02*
X18694944Y-15749650D01*
X18694944Y-15749650D02*
X18675896Y-15721079D01*
X18675896Y-15721079D02*
X18666373Y-15702031D01*
X18666373Y-15702031D02*
X18656849Y-15673460D01*
X18656849Y-15673460D02*
X18647325Y-15625841D01*
X18647325Y-15625841D02*
X18647325Y-15587746D01*
X18647325Y-15587746D02*
X18656849Y-15540127D01*
X18656849Y-15540127D02*
X18666373Y-15511555D01*
X18666373Y-15511555D02*
X18675896Y-15492508D01*
X18675896Y-15492508D02*
X18694944Y-15463936D01*
X18694944Y-15463936D02*
X18704468Y-15454412D01*
X18780658Y-15549650D02*
X18780658Y-15682984D01*
X18780658Y-15568698D02*
X18790182Y-15559174D01*
X18790182Y-15559174D02*
X18809230Y-15549650D01*
X18809230Y-15549650D02*
X18837801Y-15549650D01*
X18837801Y-15549650D02*
X18856849Y-15559174D01*
X18856849Y-15559174D02*
X18866373Y-15578222D01*
X18866373Y-15578222D02*
X18866373Y-15682984D01*
X18990182Y-15682984D02*
X18971134Y-15673460D01*
X18971134Y-15673460D02*
X18961611Y-15663936D01*
X18961611Y-15663936D02*
X18952087Y-15644888D01*
X18952087Y-15644888D02*
X18952087Y-15587746D01*
X18952087Y-15587746D02*
X18961611Y-15568698D01*
X18961611Y-15568698D02*
X18971134Y-15559174D01*
X18971134Y-15559174D02*
X18990182Y-15549650D01*
X18990182Y-15549650D02*
X19018754Y-15549650D01*
X19018754Y-15549650D02*
X19037801Y-15559174D01*
X19037801Y-15559174D02*
X19047325Y-15568698D01*
X19047325Y-15568698D02*
X19056849Y-15587746D01*
X19056849Y-15587746D02*
X19056849Y-15644888D01*
X19056849Y-15644888D02*
X19047325Y-15663936D01*
X19047325Y-15663936D02*
X19037801Y-15673460D01*
X19037801Y-15673460D02*
X19018754Y-15682984D01*
X19018754Y-15682984D02*
X18990182Y-15682984D01*
X19113992Y-15549650D02*
X19190182Y-15549650D01*
X19142563Y-15482984D02*
X19142563Y-15654412D01*
X19142563Y-15654412D02*
X19152087Y-15673460D01*
X19152087Y-15673460D02*
X19171134Y-15682984D01*
X19171134Y-15682984D02*
X19190182Y-15682984D01*
X19409230Y-15549650D02*
X19409230Y-15749650D01*
X19409230Y-15559174D02*
X19428277Y-15549650D01*
X19428277Y-15549650D02*
X19466373Y-15549650D01*
X19466373Y-15549650D02*
X19485420Y-15559174D01*
X19485420Y-15559174D02*
X19494944Y-15568698D01*
X19494944Y-15568698D02*
X19504468Y-15587746D01*
X19504468Y-15587746D02*
X19504468Y-15644888D01*
X19504468Y-15644888D02*
X19494944Y-15663936D01*
X19494944Y-15663936D02*
X19485420Y-15673460D01*
X19485420Y-15673460D02*
X19466373Y-15682984D01*
X19466373Y-15682984D02*
X19428277Y-15682984D01*
X19428277Y-15682984D02*
X19409230Y-15673460D01*
X19618754Y-15682984D02*
X19599706Y-15673460D01*
X19599706Y-15673460D02*
X19590182Y-15654412D01*
X19590182Y-15654412D02*
X19590182Y-15482984D01*
X19780658Y-15682984D02*
X19780658Y-15578222D01*
X19780658Y-15578222D02*
X19771135Y-15559174D01*
X19771135Y-15559174D02*
X19752087Y-15549650D01*
X19752087Y-15549650D02*
X19713992Y-15549650D01*
X19713992Y-15549650D02*
X19694944Y-15559174D01*
X19780658Y-15673460D02*
X19761611Y-15682984D01*
X19761611Y-15682984D02*
X19713992Y-15682984D01*
X19713992Y-15682984D02*
X19694944Y-15673460D01*
X19694944Y-15673460D02*
X19685420Y-15654412D01*
X19685420Y-15654412D02*
X19685420Y-15635365D01*
X19685420Y-15635365D02*
X19694944Y-15616317D01*
X19694944Y-15616317D02*
X19713992Y-15606793D01*
X19713992Y-15606793D02*
X19761611Y-15606793D01*
X19761611Y-15606793D02*
X19780658Y-15597269D01*
X19847325Y-15549650D02*
X19923515Y-15549650D01*
X19875896Y-15482984D02*
X19875896Y-15654412D01*
X19875896Y-15654412D02*
X19885420Y-15673460D01*
X19885420Y-15673460D02*
X19904468Y-15682984D01*
X19904468Y-15682984D02*
X19923515Y-15682984D01*
X20066373Y-15673460D02*
X20047325Y-15682984D01*
X20047325Y-15682984D02*
X20009230Y-15682984D01*
X20009230Y-15682984D02*
X19990182Y-15673460D01*
X19990182Y-15673460D02*
X19980658Y-15654412D01*
X19980658Y-15654412D02*
X19980658Y-15578222D01*
X19980658Y-15578222D02*
X19990182Y-15559174D01*
X19990182Y-15559174D02*
X20009230Y-15549650D01*
X20009230Y-15549650D02*
X20047325Y-15549650D01*
X20047325Y-15549650D02*
X20066373Y-15559174D01*
X20066373Y-15559174D02*
X20075896Y-15578222D01*
X20075896Y-15578222D02*
X20075896Y-15597269D01*
X20075896Y-15597269D02*
X19980658Y-15616317D01*
X20247325Y-15682984D02*
X20247325Y-15482984D01*
X20247325Y-15673460D02*
X20228277Y-15682984D01*
X20228277Y-15682984D02*
X20190182Y-15682984D01*
X20190182Y-15682984D02*
X20171135Y-15673460D01*
X20171135Y-15673460D02*
X20161611Y-15663936D01*
X20161611Y-15663936D02*
X20152087Y-15644888D01*
X20152087Y-15644888D02*
X20152087Y-15587746D01*
X20152087Y-15587746D02*
X20161611Y-15568698D01*
X20161611Y-15568698D02*
X20171135Y-15559174D01*
X20171135Y-15559174D02*
X20190182Y-15549650D01*
X20190182Y-15549650D02*
X20228277Y-15549650D01*
X20228277Y-15549650D02*
X20247325Y-15559174D01*
X20323516Y-15759174D02*
X20333039Y-15749650D01*
X20333039Y-15749650D02*
X20352087Y-15721079D01*
X20352087Y-15721079D02*
X20361611Y-15702031D01*
X20361611Y-15702031D02*
X20371135Y-15673460D01*
X20371135Y-15673460D02*
X20380658Y-15625841D01*
X20380658Y-15625841D02*
X20380658Y-15587746D01*
X20380658Y-15587746D02*
X20371135Y-15540127D01*
X20371135Y-15540127D02*
X20361611Y-15511555D01*
X20361611Y-15511555D02*
X20352087Y-15492508D01*
X20352087Y-15492508D02*
X20333039Y-15463936D01*
X20333039Y-15463936D02*
X20323516Y-15454412D01*
M02*
