%TF.GenerationSoftware,KiCad,Pcbnew,10.0.0*%
%TF.CreationDate,2026-10-01T10:11:34+02:00*%
%TF.ProjectId,AirHumidifier_hardware,41697248-756d-4696-9469-666965725f68,rev?*%
%TF.SameCoordinates,Original*%
%TF.FileFunction,Paste,Top*%
%TF.FilePolarity,Positive*%
%FSLAX46Y46*%
G04 Gerber Fmt 4.6, Leading zero omitted, Abs format (unit mm)*
G04 Created by KiCad (PCBNEW 10.0.0) date 2026-10-01 10:11:34*
%MOMM*%
%LPD*%
G01*
G04 APERTURE LIST*
G04 Aperture macros list*
%AMRoundRect*
0 Rectangle with rounded corners*
0 $1 Rounding radius*
0 $2 $3 $4 $5 $6 $7 $8 $9 X,Y pos of 4 corners*
0 Add a 4 corners polygon primitive as box body*
4,1,4,$2,$3,$4,$5,$6,$7,$8,$9,$2,$3,0*
0 Add four circle primitives for the rounded corners*
1,1,$1+$1,$2,$3*
1,1,$1+$1,$4,$5*
1,1,$1+$1,$6,$7*
1,1,$1+$1,$8,$9*
0 Add four rect primitives between the rounded corners*
20,1,$1+$1,$2,$3,$4,$5,0*
20,1,$1+$1,$4,$5,$6,$7,0*
20,1,$1+$1,$6,$7,$8,$9,0*
20,1,$1+$1,$8,$9,$2,$3,0*%
G04 Aperture macros list end*
%ADD10RoundRect,0.250000X0.262500X0.450000X-0.262500X0.450000X-0.262500X-0.450000X0.262500X-0.450000X0*%
%ADD11RoundRect,0.250000X-0.450000X0.262500X-0.450000X-0.262500X0.450000X-0.262500X0.450000X0.262500X0*%
%ADD12RoundRect,0.250000X-0.475000X0.250000X-0.475000X-0.250000X0.475000X-0.250000X0.475000X0.250000X0*%
%ADD13RoundRect,0.250000X-0.262500X-0.450000X0.262500X-0.450000X0.262500X0.450000X-0.262500X0.450000X0*%
%ADD14RoundRect,0.218750X-0.218750X-0.256250X0.218750X-0.256250X0.218750X0.256250X-0.218750X0.256250X0*%
%ADD15RoundRect,0.250000X0.475000X-0.250000X0.475000X0.250000X-0.475000X0.250000X-0.475000X-0.250000X0*%
%ADD16RoundRect,0.250000X0.250000X0.475000X-0.250000X0.475000X-0.250000X-0.475000X0.250000X-0.475000X0*%
%ADD17RoundRect,0.250000X-1.000000X-0.900000X1.000000X-0.900000X1.000000X0.900000X-1.000000X0.900000X0*%
%ADD18RoundRect,0.250000X0.457500X0.445000X-0.457500X0.445000X-0.457500X-0.445000X0.457500X-0.445000X0*%
%ADD19RoundRect,0.250000X-0.312500X-1.450000X0.312500X-1.450000X0.312500X1.450000X-0.312500X1.450000X0*%
%ADD20RoundRect,0.250000X1.000000X0.650000X-1.000000X0.650000X-1.000000X-0.650000X1.000000X-0.650000X0*%
%ADD21R,0.900000X0.900000*%
%ADD22R,1.500000X0.900000*%
%ADD23R,0.900000X1.500000*%
%ADD24RoundRect,0.250000X-0.250000X-0.475000X0.250000X-0.475000X0.250000X0.475000X-0.250000X0.475000X0*%
%ADD25RoundRect,0.250000X0.450000X-0.262500X0.450000X0.262500X-0.450000X0.262500X-0.450000X-0.262500X0*%
%ADD26RoundRect,0.250000X0.445000X-0.457500X0.445000X0.457500X-0.445000X0.457500X-0.445000X-0.457500X0*%
%ADD27RoundRect,0.075000X-0.700000X-0.075000X0.700000X-0.075000X0.700000X0.075000X-0.700000X0.075000X0*%
%ADD28RoundRect,0.075000X-0.075000X-0.700000X0.075000X-0.700000X0.075000X0.700000X-0.075000X0.700000X0*%
%ADD29RoundRect,0.250000X-0.457500X-0.445000X0.457500X-0.445000X0.457500X0.445000X-0.457500X0.445000X0*%
%ADD30RoundRect,0.375000X-0.375000X0.625000X-0.375000X-0.625000X0.375000X-0.625000X0.375000X0.625000X0*%
%ADD31RoundRect,0.500000X-1.400000X0.500000X-1.400000X-0.500000X1.400000X-0.500000X1.400000X0.500000X0*%
G04 APERTURE END LIST*
D10*
%TO.C,R3*%
X170062500Y-110550000D03*
X168237500Y-110550000D03*
%TD*%
D11*
%TO.C,R7*%
X142500000Y-82200000D03*
X142500000Y-84025000D03*
%TD*%
D12*
%TO.C,C3*%
X163780000Y-127690000D03*
X163780000Y-129590000D03*
%TD*%
D13*
%TO.C,R5*%
X147850000Y-100605000D03*
X149675000Y-100605000D03*
%TD*%
D14*
%TO.C,L1*%
X148200000Y-110080000D03*
X149775000Y-110080000D03*
%TD*%
D15*
%TO.C,C7*%
X163925000Y-99230000D03*
X163925000Y-97330000D03*
%TD*%
D12*
%TO.C,C6*%
X163050000Y-110600000D03*
X163050000Y-112500000D03*
%TD*%
D11*
%TO.C,R11*%
X140475000Y-103337500D03*
X140475000Y-105162500D03*
%TD*%
D16*
%TO.C,C10*%
X149725000Y-108180000D03*
X147825000Y-108180000D03*
%TD*%
%TO.C,C15*%
X148950000Y-77475000D03*
X147050000Y-77475000D03*
%TD*%
%TO.C,C12*%
X149700000Y-102705000D03*
X147800000Y-102705000D03*
%TD*%
%TO.C,C14*%
X148950000Y-73175000D03*
X147050000Y-73175000D03*
%TD*%
D17*
%TO.C,D2*%
X156425000Y-128050000D03*
X160725000Y-128050000D03*
%TD*%
D18*
%TO.C,C1*%
X164080000Y-116450000D03*
X161375000Y-116450000D03*
%TD*%
D19*
%TO.C,F1*%
X156062500Y-119650000D03*
X160337500Y-119650000D03*
%TD*%
D20*
%TO.C,D1*%
X160400000Y-123900000D03*
X156400000Y-123900000D03*
%TD*%
D10*
%TO.C,R4*%
X170062500Y-112700000D03*
X168237500Y-112700000D03*
%TD*%
D16*
%TO.C,C4*%
X149675000Y-98480000D03*
X147775000Y-98480000D03*
%TD*%
D11*
%TO.C,R12*%
X143000000Y-103337500D03*
X143000000Y-105162500D03*
%TD*%
D21*
%TO.C,U3*%
X156800000Y-79450000D03*
X156800000Y-80850000D03*
X156800000Y-82250000D03*
X158200000Y-79450000D03*
X158200000Y-80850000D03*
X158200000Y-82250000D03*
X159600000Y-79450000D03*
X159600000Y-80850000D03*
X159600000Y-82250000D03*
D22*
X150950000Y-73130000D03*
X150950000Y-74400000D03*
X150950000Y-75670000D03*
X150950000Y-76940000D03*
X150950000Y-78210000D03*
X150950000Y-79480000D03*
X150950000Y-80750000D03*
X150950000Y-82020000D03*
X150950000Y-83290000D03*
X150950000Y-84560000D03*
X150950000Y-85830000D03*
X150950000Y-87100000D03*
X150950000Y-88370000D03*
X150950000Y-89640000D03*
D23*
X152715000Y-90890000D03*
X153985000Y-90890000D03*
X155255000Y-90890000D03*
X156525000Y-90890000D03*
X157795000Y-90890000D03*
X159065000Y-90890000D03*
X160335000Y-90890000D03*
X161605000Y-90890000D03*
X162875000Y-90890000D03*
X164145000Y-90890000D03*
X165415000Y-90890000D03*
X166685000Y-90890000D03*
D22*
X168450000Y-89640000D03*
X168450000Y-88370000D03*
X168450000Y-87100000D03*
X168450000Y-85830000D03*
X168450000Y-84560000D03*
X168450000Y-83290000D03*
X168450000Y-82020000D03*
X168450000Y-80750000D03*
X168450000Y-79480000D03*
X168450000Y-78210000D03*
X168450000Y-76940000D03*
X168450000Y-75670000D03*
X168450000Y-74400000D03*
X168450000Y-73130000D03*
%TD*%
D11*
%TO.C,R1*%
X169400000Y-101050000D03*
X169400000Y-102875000D03*
%TD*%
D24*
%TO.C,C5*%
X154100000Y-112600000D03*
X156000000Y-112600000D03*
%TD*%
D25*
%TO.C,R6*%
X142500000Y-87687500D03*
X142500000Y-85862500D03*
%TD*%
D26*
%TO.C,C8*%
X151900000Y-97855000D03*
X151900000Y-95150000D03*
%TD*%
D24*
%TO.C,C11*%
X168200000Y-114950000D03*
X170100000Y-114950000D03*
%TD*%
D27*
%TO.C,U2*%
X151725000Y-100655000D03*
X151725000Y-101155000D03*
X151725000Y-101655000D03*
X151725000Y-102155000D03*
X151725000Y-102655000D03*
X151725000Y-103155000D03*
X151725000Y-103655000D03*
X151725000Y-104155000D03*
X151725000Y-104655000D03*
X151725000Y-105155000D03*
X151725000Y-105655000D03*
X151725000Y-106155000D03*
X151725000Y-106655000D03*
X151725000Y-107155000D03*
X151725000Y-107655000D03*
X151725000Y-108155000D03*
D28*
X153650000Y-110080000D03*
X154150000Y-110080000D03*
X154650000Y-110080000D03*
X155150000Y-110080000D03*
X155650000Y-110080000D03*
X156150000Y-110080000D03*
X156650000Y-110080000D03*
X157150000Y-110080000D03*
X157650000Y-110080000D03*
X158150000Y-110080000D03*
X158650000Y-110080000D03*
X159150000Y-110080000D03*
X159650000Y-110080000D03*
X160150000Y-110080000D03*
X160650000Y-110080000D03*
X161150000Y-110080000D03*
D27*
X163075000Y-108155000D03*
X163075000Y-107655000D03*
X163075000Y-107155000D03*
X163075000Y-106655000D03*
X163075000Y-106155000D03*
X163075000Y-105655000D03*
X163075000Y-105155000D03*
X163075000Y-104655000D03*
X163075000Y-104155000D03*
X163075000Y-103655000D03*
X163075000Y-103155000D03*
X163075000Y-102655000D03*
X163075000Y-102155000D03*
X163075000Y-101655000D03*
X163075000Y-101155000D03*
X163075000Y-100655000D03*
D28*
X161150000Y-98730000D03*
X160650000Y-98730000D03*
X160150000Y-98730000D03*
X159650000Y-98730000D03*
X159150000Y-98730000D03*
X158650000Y-98730000D03*
X158150000Y-98730000D03*
X157650000Y-98730000D03*
X157150000Y-98730000D03*
X156650000Y-98730000D03*
X156150000Y-98730000D03*
X155650000Y-98730000D03*
X155150000Y-98730000D03*
X154650000Y-98730000D03*
X154150000Y-98730000D03*
X153650000Y-98730000D03*
%TD*%
D11*
%TO.C,R10*%
X137950000Y-103337500D03*
X137950000Y-105162500D03*
%TD*%
D13*
%TO.C,R2*%
X171250000Y-123950000D03*
X173075000Y-123950000D03*
%TD*%
%TO.C,R9*%
X147087500Y-80400000D03*
X148912500Y-80400000D03*
%TD*%
D29*
%TO.C,C2*%
X166080000Y-128000000D03*
X168785000Y-128000000D03*
%TD*%
D30*
%TO.C,U1*%
X168550000Y-118950000D03*
X166250000Y-118950000D03*
D31*
X166250000Y-125250000D03*
D30*
X163950000Y-118950000D03*
%TD*%
D11*
%TO.C,R8*%
X154900000Y-94942500D03*
X154900000Y-96767500D03*
%TD*%
D16*
%TO.C,C16*%
X160197500Y-112550000D03*
X158297500Y-112550000D03*
%TD*%
D18*
%TO.C,C9*%
X149502500Y-105455000D03*
X146797500Y-105455000D03*
%TD*%
D16*
%TO.C,C13*%
X148950000Y-75275000D03*
X147050000Y-75275000D03*
%TD*%
M02*
