M48
; DRILL file KiCad 10.0.0 date 2026-10-01T10:12:22
; FORMAT={-:-/ absolute / metric / decimal}
; #@! TF.CreationDate,2026-10-01T10:12:22+02:00
; #@! TF.GenerationSoftware,Kicad,Pcbnew,10.0.0
; #@! TF.FileFunction,MixedPlating,1,2
FMAT,2
METRIC
; #@! TA.AperFunction,Plated,PTH,ViaDrill
T1C0.300
; #@! TA.AperFunction,Plated,PTH,ComponentDrill
T2C0.300
; #@! TA.AperFunction,Plated,PTH,ComponentDrill
T3C0.700
; #@! TA.AperFunction,Plated,PTH,ComponentDrill
T4C0.900
; #@! TA.AperFunction,Plated,PTH,ComponentDrill
T5C1.000
; #@! TA.AperFunction,Plated,PTH,ComponentDrill
T6C1.300
; #@! TA.AperFunction,NonPlated,NPTH,ComponentDrill
T7C2.200
%
G90
G05
T1
X137.45Y-115.75
X137.45Y-116.5
X137.45Y-117.25
X137.45Y-118.0
X137.5Y-111.65
X137.5Y-112.4
X137.5Y-113.15
X137.5Y-113.9
X138.05Y-78.9
X138.075Y-78.2
X138.2Y-115.75
X138.2Y-116.5
X138.2Y-117.25
X138.2Y-118.0
X138.25Y-111.65
X138.25Y-112.4
X138.25Y-113.15
X138.25Y-113.9
X138.8Y-78.9
X138.825Y-78.2
X138.95Y-115.75
X138.95Y-116.5
X138.95Y-117.25
X138.95Y-118.0
X139.0Y-111.65
X139.0Y-112.4
X139.0Y-113.15
X139.0Y-113.9
X139.55Y-78.9
X139.575Y-78.2
X140.3Y-78.9
X140.325Y-78.2
X142.275Y-110.625
X143.6Y-115.6
X143.6Y-116.35
X143.6Y-117.1
X143.6Y-117.85
X144.35Y-115.6
X144.35Y-116.35
X144.35Y-117.1
X144.35Y-117.85
X144.4Y-94.5
X144.475Y-126.65
X144.475Y-127.4
X144.475Y-128.15
X144.475Y-128.9
X144.75Y-79.125
X144.9Y-104.1
X144.95Y-107.205
X144.95Y-108.005
X144.95Y-108.805
X145.1Y-115.6
X145.1Y-116.35
X145.1Y-117.1
X145.1Y-117.85
X145.225Y-126.65
X145.225Y-127.4
X145.225Y-128.15
X145.225Y-128.9
X145.3Y-95.75
X145.3Y-96.5
X145.35Y-86.15
X145.35Y-90.7
X145.7Y-118.95
X145.7Y-119.7
X145.975Y-126.65
X145.975Y-127.4
X145.975Y-128.15
X145.975Y-128.9
X146.05Y-95.75
X146.05Y-96.5
X146.1Y-113.05
X146.1Y-113.8
X146.45Y-118.95
X146.45Y-119.7
X146.8Y-95.75
X146.8Y-96.5
X146.85Y-113.05
X146.85Y-113.8
X147.2Y-118.95
X147.2Y-119.7
X147.6Y-113.05
X147.6Y-113.8
X148.15Y-82.4
X148.2Y-118.95
X148.2Y-119.7
X148.275Y-126.625
X148.275Y-127.375
X148.275Y-128.125
X148.275Y-128.875
X148.3Y-86.2
X148.4Y-93.7
X148.8Y-113.1
X148.95Y-118.95
X148.95Y-119.7
X149.025Y-126.625
X149.025Y-127.375
X149.025Y-128.125
X149.025Y-128.875
X149.7Y-118.95
X149.7Y-119.7
X149.775Y-126.625
X149.775Y-127.375
X149.775Y-128.125
X149.775Y-128.875
X150.6Y-114.1
X150.6Y-114.85
X150.6Y-115.6
X151.1Y-122.0
X151.1Y-122.75
X151.1Y-123.5
X151.1Y-124.25
X151.35Y-114.1
X151.35Y-114.85
X151.35Y-115.6
X151.85Y-122.0
X151.85Y-122.75
X151.85Y-123.5
X151.85Y-124.25
X152.1Y-114.1
X152.1Y-114.85
X152.1Y-115.6
X152.5Y-111.7
X152.6Y-122.0
X152.6Y-122.75
X152.6Y-123.5
X152.6Y-124.25
X152.85Y-114.1
X152.85Y-114.85
X152.85Y-115.6
X153.4Y-82.1
X153.4Y-101.8
X153.625Y-104.85
X153.65Y-102.65
X153.65Y-131.7
X153.675Y-103.65
X153.725Y-88.8
X153.75Y-106.0
X153.85Y-77.4
X153.85Y-78.15
X153.85Y-78.9
X153.85Y-79.65
X154.25Y-74.125
X154.275Y-73.425
X154.4Y-131.7
X154.55Y-77.425
X154.55Y-78.175
X154.55Y-78.925
X154.55Y-79.675
X154.7Y-103.2
X154.85Y-105.2
X154.975Y-100.5
X155.0Y-74.125
X155.025Y-73.425
X155.15Y-131.7
X155.75Y-74.125
X155.775Y-73.425
X155.9Y-131.7
X156.175Y-101.3
X156.197Y-108.005
X156.201Y-107.205
X156.208Y-108.805
X156.3Y-100.4
X156.45Y-89.2
X156.5Y-74.125
X156.525Y-73.425
X156.65Y-102.6
X156.95Y-131.7
X157.1Y-106.125
X157.425Y-85.75
X157.45Y-85.05
X157.7Y-89.1
X157.7Y-131.7
X157.9Y-114.8
X158.175Y-85.75
X158.175Y-106.9
X158.2Y-85.05
X158.45Y-102.6
X158.45Y-131.7
X158.575Y-100.15
X158.625Y-101.05
X158.925Y-85.75
X158.95Y-85.05
X159.0Y-107.8
X159.2Y-131.7
X159.3Y-73.5
X159.5Y-92.25
X159.525Y-100.25
X159.675Y-85.75
X159.675Y-103.125
X159.7Y-85.05
X159.775Y-104.3
X160.05Y-97.4
X160.05Y-105.075
X160.75Y-92.2
X160.8Y-95.7
X160.8Y-102.2
X160.9Y-105.9
X161.15Y-104.225
X161.3Y-77.6
X161.3Y-88.2
X161.6Y-106.65
X161.65Y-94.95
X161.65Y-102.15
X162.125Y-83.125
X162.15Y-82.425
X162.875Y-83.125
X162.9Y-82.425
X163.0Y-74.125
X163.025Y-73.425
X163.475Y-122.825
X163.475Y-123.575
X163.625Y-83.125
X163.65Y-82.425
X163.75Y-74.125
X163.75Y-79.2
X163.775Y-73.425
X163.775Y-78.5
X164.225Y-122.825
X164.225Y-123.575
X164.375Y-83.125
X164.375Y-85.45
X164.375Y-86.2
X164.375Y-86.95
X164.375Y-87.7
X164.4Y-82.425
X164.5Y-74.125
X164.5Y-79.2
X164.525Y-73.425
X164.525Y-78.5
X164.975Y-122.825
X164.975Y-123.575
X165.075Y-85.475
X165.075Y-86.225
X165.075Y-86.975
X165.075Y-87.725
X165.1Y-112.9
X165.25Y-74.125
X165.25Y-79.2
X165.275Y-73.425
X165.275Y-78.5
X165.4Y-107.4
X165.4Y-129.45
X165.4Y-130.2
X165.4Y-130.95
X165.4Y-131.7
X165.725Y-122.825
X165.725Y-123.575
X165.8Y-93.3
X166.0Y-79.2
X166.025Y-78.5
X166.09Y-81.44
X166.15Y-129.45
X166.15Y-130.2
X166.15Y-130.95
X166.15Y-131.7
X166.2Y-109.9
X166.4Y-75.67
X166.775Y-122.825
X166.775Y-123.575
X167.05Y-97.525
X167.075Y-130.95
X167.075Y-131.725
X167.525Y-122.825
X167.525Y-123.575
X167.6Y-103.05
X167.675Y-93.5
X167.825Y-130.95
X167.825Y-131.725
X168.275Y-122.825
X168.275Y-123.575
X168.625Y-129.45
X168.625Y-130.2
X168.625Y-130.95
X168.625Y-131.7
X168.75Y-106.8
X169.025Y-122.825
X169.025Y-123.575
X169.375Y-129.45
X169.375Y-130.2
X169.375Y-130.95
X169.375Y-131.7
X170.575Y-75.675
X171.25Y-92.45
X171.95Y-88.7
X172.9Y-116.65
X172.9Y-117.4
X172.9Y-118.15
X173.175Y-92.525
X173.175Y-93.275
X173.5Y-114.9
X173.65Y-116.65
X173.65Y-117.4
X173.65Y-118.15
X173.925Y-92.525
X173.925Y-93.275
X174.4Y-120.1
X174.675Y-92.525
X174.675Y-93.275
X176.2Y-108.6
X176.58Y-79.08
X177.8Y-125.7
X182.5Y-78.05
X182.5Y-78.8
X182.5Y-79.55
X182.5Y-80.3
X182.5Y-81.1
X182.5Y-81.85
X182.5Y-82.6
X182.5Y-83.35
X182.55Y-88.75
X182.55Y-89.5
X182.55Y-90.25
X182.55Y-91.0
X182.55Y-91.8
X182.55Y-92.55
X182.55Y-93.3
X182.55Y-94.05
T2
X156.8Y-80.15
X156.8Y-81.55
X157.5Y-79.45
X157.5Y-80.85
X157.5Y-82.25
X158.2Y-80.15
X158.2Y-81.55
X158.9Y-79.45
X158.9Y-80.85
X158.9Y-82.25
X159.6Y-80.15
X159.6Y-81.55
T3
X138.885Y-98.625
X140.155Y-98.625
X141.425Y-98.625
X142.695Y-98.625
T4
X172.4Y-128.3
X174.94Y-128.3
T5
X139.55Y-83.22
X139.55Y-85.76
X139.55Y-88.3
X139.55Y-90.84
X172.36Y-103.75
X172.59Y-96.35
X174.9Y-103.75
X175.13Y-96.35
X175.635Y-83.595
X175.635Y-86.135
X175.635Y-88.675
X177.44Y-103.75
X177.67Y-96.35
X178.175Y-83.595
X178.175Y-86.135
X178.175Y-88.675
X179.98Y-103.75
X180.21Y-96.35
T6
X176.975Y-112.67
X176.975Y-117.75
T7
X139.1Y-75.0
X139.1Y-130.25
X180.3Y-75.0
X180.3Y-130.25
T5
X146.9Y-116.4G85X148.9Y-116.4
G05
X146.9Y-122.4G85X148.9Y-122.4
G05
X152.6Y-120.4G85X152.6Y-118.4
G05
M30
