%TF.GenerationSoftware,KiCad,Pcbnew,10.0.0*%
%TF.CreationDate,2026-10-01T10:11:34+02:00*%
%TF.ProjectId,AirHumidifier_hardware,41697248-756d-4696-9469-666965725f68,rev?*%
%TF.SameCoordinates,Original*%
%TF.FileFunction,Legend,Top*%
%TF.FilePolarity,Positive*%
%FSLAX46Y46*%
G04 Gerber Fmt 4.6, Leading zero omitted, Abs format (unit mm)*
G04 Created by KiCad (PCBNEW 10.0.0) date 2026-10-01 10:11:34*
%MOMM*%
%LPD*%
G01*
G04 APERTURE LIST*
%ADD10C,0.100000*%
%ADD11C,0.150000*%
%ADD12C,0.120000*%
G04 APERTURE END LIST*
D10*
X144803884Y-131641466D02*
X145565789Y-131641466D01*
X145184836Y-132022419D02*
X145184836Y-131260514D01*
X146565788Y-132022419D02*
X145994360Y-132022419D01*
X146280074Y-132022419D02*
X146280074Y-131022419D01*
X146280074Y-131022419D02*
X146184836Y-131165276D01*
X146184836Y-131165276D02*
X146089598Y-131260514D01*
X146089598Y-131260514D02*
X145994360Y-131308133D01*
X146946741Y-131117657D02*
X146994360Y-131070038D01*
X146994360Y-131070038D02*
X147089598Y-131022419D01*
X147089598Y-131022419D02*
X147327693Y-131022419D01*
X147327693Y-131022419D02*
X147422931Y-131070038D01*
X147422931Y-131070038D02*
X147470550Y-131117657D01*
X147470550Y-131117657D02*
X147518169Y-131212895D01*
X147518169Y-131212895D02*
X147518169Y-131308133D01*
X147518169Y-131308133D02*
X147470550Y-131450990D01*
X147470550Y-131450990D02*
X146899122Y-132022419D01*
X146899122Y-132022419D02*
X147518169Y-132022419D01*
X147803884Y-131022419D02*
X148137217Y-132022419D01*
X148137217Y-132022419D02*
X148470550Y-131022419D01*
X149565789Y-132022419D02*
X149565789Y-131022419D01*
X150041979Y-132022419D02*
X150041979Y-131022419D01*
X150041979Y-131022419D02*
X150613407Y-132022419D01*
X150613407Y-132022419D02*
X150613407Y-131022419D01*
X137374800Y-83343734D02*
X137422419Y-83200877D01*
X137422419Y-83200877D02*
X137422419Y-82962782D01*
X137422419Y-82962782D02*
X137374800Y-82867544D01*
X137374800Y-82867544D02*
X137327180Y-82819925D01*
X137327180Y-82819925D02*
X137231942Y-82772306D01*
X137231942Y-82772306D02*
X137136704Y-82772306D01*
X137136704Y-82772306D02*
X137041466Y-82819925D01*
X137041466Y-82819925D02*
X136993847Y-82867544D01*
X136993847Y-82867544D02*
X136946228Y-82962782D01*
X136946228Y-82962782D02*
X136898609Y-83153258D01*
X136898609Y-83153258D02*
X136850990Y-83248496D01*
X136850990Y-83248496D02*
X136803371Y-83296115D01*
X136803371Y-83296115D02*
X136708133Y-83343734D01*
X136708133Y-83343734D02*
X136612895Y-83343734D01*
X136612895Y-83343734D02*
X136517657Y-83296115D01*
X136517657Y-83296115D02*
X136470038Y-83248496D01*
X136470038Y-83248496D02*
X136422419Y-83153258D01*
X136422419Y-83153258D02*
X136422419Y-82915163D01*
X136422419Y-82915163D02*
X136470038Y-82772306D01*
X137327180Y-81772306D02*
X137374800Y-81819925D01*
X137374800Y-81819925D02*
X137422419Y-81962782D01*
X137422419Y-81962782D02*
X137422419Y-82058020D01*
X137422419Y-82058020D02*
X137374800Y-82200877D01*
X137374800Y-82200877D02*
X137279561Y-82296115D01*
X137279561Y-82296115D02*
X137184323Y-82343734D01*
X137184323Y-82343734D02*
X136993847Y-82391353D01*
X136993847Y-82391353D02*
X136850990Y-82391353D01*
X136850990Y-82391353D02*
X136660514Y-82343734D01*
X136660514Y-82343734D02*
X136565276Y-82296115D01*
X136565276Y-82296115D02*
X136470038Y-82200877D01*
X136470038Y-82200877D02*
X136422419Y-82058020D01*
X136422419Y-82058020D02*
X136422419Y-81962782D01*
X136422419Y-81962782D02*
X136470038Y-81819925D01*
X136470038Y-81819925D02*
X136517657Y-81772306D01*
X137422419Y-80867544D02*
X137422419Y-81343734D01*
X137422419Y-81343734D02*
X136422419Y-81343734D01*
X137374800Y-86468734D02*
X137422419Y-86325877D01*
X137422419Y-86325877D02*
X137422419Y-86087782D01*
X137422419Y-86087782D02*
X137374800Y-85992544D01*
X137374800Y-85992544D02*
X137327180Y-85944925D01*
X137327180Y-85944925D02*
X137231942Y-85897306D01*
X137231942Y-85897306D02*
X137136704Y-85897306D01*
X137136704Y-85897306D02*
X137041466Y-85944925D01*
X137041466Y-85944925D02*
X136993847Y-85992544D01*
X136993847Y-85992544D02*
X136946228Y-86087782D01*
X136946228Y-86087782D02*
X136898609Y-86278258D01*
X136898609Y-86278258D02*
X136850990Y-86373496D01*
X136850990Y-86373496D02*
X136803371Y-86421115D01*
X136803371Y-86421115D02*
X136708133Y-86468734D01*
X136708133Y-86468734D02*
X136612895Y-86468734D01*
X136612895Y-86468734D02*
X136517657Y-86421115D01*
X136517657Y-86421115D02*
X136470038Y-86373496D01*
X136470038Y-86373496D02*
X136422419Y-86278258D01*
X136422419Y-86278258D02*
X136422419Y-86040163D01*
X136422419Y-86040163D02*
X136470038Y-85897306D01*
X137422419Y-85468734D02*
X136422419Y-85468734D01*
X136422419Y-85468734D02*
X136422419Y-85230639D01*
X136422419Y-85230639D02*
X136470038Y-85087782D01*
X136470038Y-85087782D02*
X136565276Y-84992544D01*
X136565276Y-84992544D02*
X136660514Y-84944925D01*
X136660514Y-84944925D02*
X136850990Y-84897306D01*
X136850990Y-84897306D02*
X136993847Y-84897306D01*
X136993847Y-84897306D02*
X137184323Y-84944925D01*
X137184323Y-84944925D02*
X137279561Y-84992544D01*
X137279561Y-84992544D02*
X137374800Y-85087782D01*
X137374800Y-85087782D02*
X137422419Y-85230639D01*
X137422419Y-85230639D02*
X137422419Y-85468734D01*
X137136704Y-84516353D02*
X137136704Y-84040163D01*
X137422419Y-84611591D02*
X136422419Y-84278258D01*
X136422419Y-84278258D02*
X137422419Y-83944925D01*
X136442419Y-93191353D02*
X136442419Y-92572306D01*
X136442419Y-92572306D02*
X136823371Y-92905639D01*
X136823371Y-92905639D02*
X136823371Y-92762782D01*
X136823371Y-92762782D02*
X136870990Y-92667544D01*
X136870990Y-92667544D02*
X136918609Y-92619925D01*
X136918609Y-92619925D02*
X137013847Y-92572306D01*
X137013847Y-92572306D02*
X137251942Y-92572306D01*
X137251942Y-92572306D02*
X137347180Y-92619925D01*
X137347180Y-92619925D02*
X137394800Y-92667544D01*
X137394800Y-92667544D02*
X137442419Y-92762782D01*
X137442419Y-92762782D02*
X137442419Y-93048496D01*
X137442419Y-93048496D02*
X137394800Y-93143734D01*
X137394800Y-93143734D02*
X137347180Y-93191353D01*
X137347180Y-92143734D02*
X137394800Y-92096115D01*
X137394800Y-92096115D02*
X137442419Y-92143734D01*
X137442419Y-92143734D02*
X137394800Y-92191353D01*
X137394800Y-92191353D02*
X137347180Y-92143734D01*
X137347180Y-92143734D02*
X137442419Y-92143734D01*
X136442419Y-91762782D02*
X136442419Y-91143735D01*
X136442419Y-91143735D02*
X136823371Y-91477068D01*
X136823371Y-91477068D02*
X136823371Y-91334211D01*
X136823371Y-91334211D02*
X136870990Y-91238973D01*
X136870990Y-91238973D02*
X136918609Y-91191354D01*
X136918609Y-91191354D02*
X137013847Y-91143735D01*
X137013847Y-91143735D02*
X137251942Y-91143735D01*
X137251942Y-91143735D02*
X137347180Y-91191354D01*
X137347180Y-91191354D02*
X137394800Y-91238973D01*
X137394800Y-91238973D02*
X137442419Y-91334211D01*
X137442419Y-91334211D02*
X137442419Y-91619925D01*
X137442419Y-91619925D02*
X137394800Y-91715163D01*
X137394800Y-91715163D02*
X137347180Y-91762782D01*
X136442419Y-90858020D02*
X137442419Y-90524687D01*
X137442419Y-90524687D02*
X136442419Y-90191354D01*
X136495038Y-89047306D02*
X136447419Y-89142544D01*
X136447419Y-89142544D02*
X136447419Y-89285401D01*
X136447419Y-89285401D02*
X136495038Y-89428258D01*
X136495038Y-89428258D02*
X136590276Y-89523496D01*
X136590276Y-89523496D02*
X136685514Y-89571115D01*
X136685514Y-89571115D02*
X136875990Y-89618734D01*
X136875990Y-89618734D02*
X137018847Y-89618734D01*
X137018847Y-89618734D02*
X137209323Y-89571115D01*
X137209323Y-89571115D02*
X137304561Y-89523496D01*
X137304561Y-89523496D02*
X137399800Y-89428258D01*
X137399800Y-89428258D02*
X137447419Y-89285401D01*
X137447419Y-89285401D02*
X137447419Y-89190163D01*
X137447419Y-89190163D02*
X137399800Y-89047306D01*
X137399800Y-89047306D02*
X137352180Y-88999687D01*
X137352180Y-88999687D02*
X137018847Y-88999687D01*
X137018847Y-88999687D02*
X137018847Y-89190163D01*
X137447419Y-88571115D02*
X136447419Y-88571115D01*
X136447419Y-88571115D02*
X137447419Y-87999687D01*
X137447419Y-87999687D02*
X136447419Y-87999687D01*
X137447419Y-87523496D02*
X136447419Y-87523496D01*
X136447419Y-87523496D02*
X136447419Y-87285401D01*
X136447419Y-87285401D02*
X136495038Y-87142544D01*
X136495038Y-87142544D02*
X136590276Y-87047306D01*
X136590276Y-87047306D02*
X136685514Y-86999687D01*
X136685514Y-86999687D02*
X136875990Y-86952068D01*
X136875990Y-86952068D02*
X137018847Y-86952068D01*
X137018847Y-86952068D02*
X137209323Y-86999687D01*
X137209323Y-86999687D02*
X137304561Y-87047306D01*
X137304561Y-87047306D02*
X137399800Y-87142544D01*
X137399800Y-87142544D02*
X137447419Y-87285401D01*
X137447419Y-87285401D02*
X137447419Y-87523496D01*
X172697419Y-108771115D02*
X171697419Y-108771115D01*
X171697419Y-108771115D02*
X171697419Y-108390163D01*
X171697419Y-108390163D02*
X171745038Y-108294925D01*
X171745038Y-108294925D02*
X171792657Y-108247306D01*
X171792657Y-108247306D02*
X171887895Y-108199687D01*
X171887895Y-108199687D02*
X172030752Y-108199687D01*
X172030752Y-108199687D02*
X172125990Y-108247306D01*
X172125990Y-108247306D02*
X172173609Y-108294925D01*
X172173609Y-108294925D02*
X172221228Y-108390163D01*
X172221228Y-108390163D02*
X172221228Y-108771115D01*
X171697419Y-107866353D02*
X172697419Y-107628258D01*
X172697419Y-107628258D02*
X171983133Y-107437782D01*
X171983133Y-107437782D02*
X172697419Y-107247306D01*
X172697419Y-107247306D02*
X171697419Y-107009211D01*
X172697419Y-106628258D02*
X171697419Y-106628258D01*
X171697419Y-106628258D02*
X172411704Y-106294925D01*
X172411704Y-106294925D02*
X171697419Y-105961592D01*
X171697419Y-105961592D02*
X172697419Y-105961592D01*
X172852180Y-100274687D02*
X172899800Y-100322306D01*
X172899800Y-100322306D02*
X172947419Y-100465163D01*
X172947419Y-100465163D02*
X172947419Y-100560401D01*
X172947419Y-100560401D02*
X172899800Y-100703258D01*
X172899800Y-100703258D02*
X172804561Y-100798496D01*
X172804561Y-100798496D02*
X172709323Y-100846115D01*
X172709323Y-100846115D02*
X172518847Y-100893734D01*
X172518847Y-100893734D02*
X172375990Y-100893734D01*
X172375990Y-100893734D02*
X172185514Y-100846115D01*
X172185514Y-100846115D02*
X172090276Y-100798496D01*
X172090276Y-100798496D02*
X171995038Y-100703258D01*
X171995038Y-100703258D02*
X171947419Y-100560401D01*
X171947419Y-100560401D02*
X171947419Y-100465163D01*
X171947419Y-100465163D02*
X171995038Y-100322306D01*
X171995038Y-100322306D02*
X172042657Y-100274687D01*
X172947419Y-99369925D02*
X172947419Y-99846115D01*
X172947419Y-99846115D02*
X171947419Y-99846115D01*
X172947419Y-99036591D02*
X171947419Y-99036591D01*
X172947419Y-98465163D02*
X172375990Y-98893734D01*
X171947419Y-98465163D02*
X172518847Y-99036591D01*
X175447419Y-107999687D02*
X174971228Y-108333020D01*
X175447419Y-108571115D02*
X174447419Y-108571115D01*
X174447419Y-108571115D02*
X174447419Y-108190163D01*
X174447419Y-108190163D02*
X174495038Y-108094925D01*
X174495038Y-108094925D02*
X174542657Y-108047306D01*
X174542657Y-108047306D02*
X174637895Y-107999687D01*
X174637895Y-107999687D02*
X174780752Y-107999687D01*
X174780752Y-107999687D02*
X174875990Y-108047306D01*
X174875990Y-108047306D02*
X174923609Y-108094925D01*
X174923609Y-108094925D02*
X174971228Y-108190163D01*
X174971228Y-108190163D02*
X174971228Y-108571115D01*
X175447419Y-107571115D02*
X174447419Y-107571115D01*
X174447419Y-107571115D02*
X174447419Y-107190163D01*
X174447419Y-107190163D02*
X174495038Y-107094925D01*
X174495038Y-107094925D02*
X174542657Y-107047306D01*
X174542657Y-107047306D02*
X174637895Y-106999687D01*
X174637895Y-106999687D02*
X174780752Y-106999687D01*
X174780752Y-106999687D02*
X174875990Y-107047306D01*
X174875990Y-107047306D02*
X174923609Y-107094925D01*
X174923609Y-107094925D02*
X174971228Y-107190163D01*
X174971228Y-107190163D02*
X174971228Y-107571115D01*
X175447419Y-106571115D02*
X174447419Y-106571115D01*
X174447419Y-106571115D02*
X175161704Y-106237782D01*
X175161704Y-106237782D02*
X174447419Y-105904449D01*
X174447419Y-105904449D02*
X175447419Y-105904449D01*
X175647419Y-100771115D02*
X174647419Y-100771115D01*
X174647419Y-100771115D02*
X174647419Y-100533020D01*
X174647419Y-100533020D02*
X174695038Y-100390163D01*
X174695038Y-100390163D02*
X174790276Y-100294925D01*
X174790276Y-100294925D02*
X174885514Y-100247306D01*
X174885514Y-100247306D02*
X175075990Y-100199687D01*
X175075990Y-100199687D02*
X175218847Y-100199687D01*
X175218847Y-100199687D02*
X175409323Y-100247306D01*
X175409323Y-100247306D02*
X175504561Y-100294925D01*
X175504561Y-100294925D02*
X175599800Y-100390163D01*
X175599800Y-100390163D02*
X175647419Y-100533020D01*
X175647419Y-100533020D02*
X175647419Y-100771115D01*
X175647419Y-99771115D02*
X174647419Y-99771115D01*
X174647419Y-99104449D02*
X174647419Y-98913973D01*
X174647419Y-98913973D02*
X174695038Y-98818735D01*
X174695038Y-98818735D02*
X174790276Y-98723497D01*
X174790276Y-98723497D02*
X174980752Y-98675878D01*
X174980752Y-98675878D02*
X175314085Y-98675878D01*
X175314085Y-98675878D02*
X175504561Y-98723497D01*
X175504561Y-98723497D02*
X175599800Y-98818735D01*
X175599800Y-98818735D02*
X175647419Y-98913973D01*
X175647419Y-98913973D02*
X175647419Y-99104449D01*
X175647419Y-99104449D02*
X175599800Y-99199687D01*
X175599800Y-99199687D02*
X175504561Y-99294925D01*
X175504561Y-99294925D02*
X175314085Y-99342544D01*
X175314085Y-99342544D02*
X174980752Y-99342544D01*
X174980752Y-99342544D02*
X174790276Y-99294925D01*
X174790276Y-99294925D02*
X174695038Y-99199687D01*
X174695038Y-99199687D02*
X174647419Y-99104449D01*
X177932419Y-108032306D02*
X177932419Y-108603734D01*
X177932419Y-108318020D02*
X176932419Y-108318020D01*
X176932419Y-108318020D02*
X177075276Y-108413258D01*
X177075276Y-108413258D02*
X177170514Y-108508496D01*
X177170514Y-108508496D02*
X177218133Y-108603734D01*
X177027657Y-107651353D02*
X176980038Y-107603734D01*
X176980038Y-107603734D02*
X176932419Y-107508496D01*
X176932419Y-107508496D02*
X176932419Y-107270401D01*
X176932419Y-107270401D02*
X176980038Y-107175163D01*
X176980038Y-107175163D02*
X177027657Y-107127544D01*
X177027657Y-107127544D02*
X177122895Y-107079925D01*
X177122895Y-107079925D02*
X177218133Y-107079925D01*
X177218133Y-107079925D02*
X177360990Y-107127544D01*
X177360990Y-107127544D02*
X177932419Y-107698972D01*
X177932419Y-107698972D02*
X177932419Y-107079925D01*
X176932419Y-106794210D02*
X177932419Y-106460877D01*
X177932419Y-106460877D02*
X176932419Y-106127544D01*
X177245038Y-100622306D02*
X177197419Y-100717544D01*
X177197419Y-100717544D02*
X177197419Y-100860401D01*
X177197419Y-100860401D02*
X177245038Y-101003258D01*
X177245038Y-101003258D02*
X177340276Y-101098496D01*
X177340276Y-101098496D02*
X177435514Y-101146115D01*
X177435514Y-101146115D02*
X177625990Y-101193734D01*
X177625990Y-101193734D02*
X177768847Y-101193734D01*
X177768847Y-101193734D02*
X177959323Y-101146115D01*
X177959323Y-101146115D02*
X178054561Y-101098496D01*
X178054561Y-101098496D02*
X178149800Y-101003258D01*
X178149800Y-101003258D02*
X178197419Y-100860401D01*
X178197419Y-100860401D02*
X178197419Y-100765163D01*
X178197419Y-100765163D02*
X178149800Y-100622306D01*
X178149800Y-100622306D02*
X178102180Y-100574687D01*
X178102180Y-100574687D02*
X177768847Y-100574687D01*
X177768847Y-100574687D02*
X177768847Y-100765163D01*
X178197419Y-100146115D02*
X177197419Y-100146115D01*
X177197419Y-100146115D02*
X178197419Y-99574687D01*
X178197419Y-99574687D02*
X177197419Y-99574687D01*
X178197419Y-99098496D02*
X177197419Y-99098496D01*
X177197419Y-99098496D02*
X177197419Y-98860401D01*
X177197419Y-98860401D02*
X177245038Y-98717544D01*
X177245038Y-98717544D02*
X177340276Y-98622306D01*
X177340276Y-98622306D02*
X177435514Y-98574687D01*
X177435514Y-98574687D02*
X177625990Y-98527068D01*
X177625990Y-98527068D02*
X177768847Y-98527068D01*
X177768847Y-98527068D02*
X177959323Y-98574687D01*
X177959323Y-98574687D02*
X178054561Y-98622306D01*
X178054561Y-98622306D02*
X178149800Y-98717544D01*
X178149800Y-98717544D02*
X178197419Y-98860401D01*
X178197419Y-98860401D02*
X178197419Y-99098496D01*
X179500038Y-108132306D02*
X179452419Y-108227544D01*
X179452419Y-108227544D02*
X179452419Y-108370401D01*
X179452419Y-108370401D02*
X179500038Y-108513258D01*
X179500038Y-108513258D02*
X179595276Y-108608496D01*
X179595276Y-108608496D02*
X179690514Y-108656115D01*
X179690514Y-108656115D02*
X179880990Y-108703734D01*
X179880990Y-108703734D02*
X180023847Y-108703734D01*
X180023847Y-108703734D02*
X180214323Y-108656115D01*
X180214323Y-108656115D02*
X180309561Y-108608496D01*
X180309561Y-108608496D02*
X180404800Y-108513258D01*
X180404800Y-108513258D02*
X180452419Y-108370401D01*
X180452419Y-108370401D02*
X180452419Y-108275163D01*
X180452419Y-108275163D02*
X180404800Y-108132306D01*
X180404800Y-108132306D02*
X180357180Y-108084687D01*
X180357180Y-108084687D02*
X180023847Y-108084687D01*
X180023847Y-108084687D02*
X180023847Y-108275163D01*
X180452419Y-107656115D02*
X179452419Y-107656115D01*
X179452419Y-107656115D02*
X180452419Y-107084687D01*
X180452419Y-107084687D02*
X179452419Y-107084687D01*
X180452419Y-106608496D02*
X179452419Y-106608496D01*
X179452419Y-106608496D02*
X179452419Y-106370401D01*
X179452419Y-106370401D02*
X179500038Y-106227544D01*
X179500038Y-106227544D02*
X179595276Y-106132306D01*
X179595276Y-106132306D02*
X179690514Y-106084687D01*
X179690514Y-106084687D02*
X179880990Y-106037068D01*
X179880990Y-106037068D02*
X180023847Y-106037068D01*
X180023847Y-106037068D02*
X180214323Y-106084687D01*
X180214323Y-106084687D02*
X180309561Y-106132306D01*
X180309561Y-106132306D02*
X180404800Y-106227544D01*
X180404800Y-106227544D02*
X180452419Y-106370401D01*
X180452419Y-106370401D02*
X180452419Y-106608496D01*
X179722419Y-101466353D02*
X179722419Y-100847306D01*
X179722419Y-100847306D02*
X180103371Y-101180639D01*
X180103371Y-101180639D02*
X180103371Y-101037782D01*
X180103371Y-101037782D02*
X180150990Y-100942544D01*
X180150990Y-100942544D02*
X180198609Y-100894925D01*
X180198609Y-100894925D02*
X180293847Y-100847306D01*
X180293847Y-100847306D02*
X180531942Y-100847306D01*
X180531942Y-100847306D02*
X180627180Y-100894925D01*
X180627180Y-100894925D02*
X180674800Y-100942544D01*
X180674800Y-100942544D02*
X180722419Y-101037782D01*
X180722419Y-101037782D02*
X180722419Y-101323496D01*
X180722419Y-101323496D02*
X180674800Y-101418734D01*
X180674800Y-101418734D02*
X180627180Y-101466353D01*
X180627180Y-100418734D02*
X180674800Y-100371115D01*
X180674800Y-100371115D02*
X180722419Y-100418734D01*
X180722419Y-100418734D02*
X180674800Y-100466353D01*
X180674800Y-100466353D02*
X180627180Y-100418734D01*
X180627180Y-100418734D02*
X180722419Y-100418734D01*
X179722419Y-100037782D02*
X179722419Y-99418735D01*
X179722419Y-99418735D02*
X180103371Y-99752068D01*
X180103371Y-99752068D02*
X180103371Y-99609211D01*
X180103371Y-99609211D02*
X180150990Y-99513973D01*
X180150990Y-99513973D02*
X180198609Y-99466354D01*
X180198609Y-99466354D02*
X180293847Y-99418735D01*
X180293847Y-99418735D02*
X180531942Y-99418735D01*
X180531942Y-99418735D02*
X180627180Y-99466354D01*
X180627180Y-99466354D02*
X180674800Y-99513973D01*
X180674800Y-99513973D02*
X180722419Y-99609211D01*
X180722419Y-99609211D02*
X180722419Y-99894925D01*
X180722419Y-99894925D02*
X180674800Y-99990163D01*
X180674800Y-99990163D02*
X180627180Y-100037782D01*
X179722419Y-99133020D02*
X180722419Y-98799687D01*
X180722419Y-98799687D02*
X179722419Y-98466354D01*
X182491466Y-111146115D02*
X182491466Y-110384211D01*
X182872419Y-110765163D02*
X182110514Y-110765163D01*
D11*
X166979819Y-110716666D02*
X166503628Y-111049999D01*
X166979819Y-111288094D02*
X165979819Y-111288094D01*
X165979819Y-111288094D02*
X165979819Y-110907142D01*
X165979819Y-110907142D02*
X166027438Y-110811904D01*
X166027438Y-110811904D02*
X166075057Y-110764285D01*
X166075057Y-110764285D02*
X166170295Y-110716666D01*
X166170295Y-110716666D02*
X166313152Y-110716666D01*
X166313152Y-110716666D02*
X166408390Y-110764285D01*
X166408390Y-110764285D02*
X166456009Y-110811904D01*
X166456009Y-110811904D02*
X166503628Y-110907142D01*
X166503628Y-110907142D02*
X166503628Y-111288094D01*
X165979819Y-110383332D02*
X165979819Y-109764285D01*
X165979819Y-109764285D02*
X166360771Y-110097618D01*
X166360771Y-110097618D02*
X166360771Y-109954761D01*
X166360771Y-109954761D02*
X166408390Y-109859523D01*
X166408390Y-109859523D02*
X166456009Y-109811904D01*
X166456009Y-109811904D02*
X166551247Y-109764285D01*
X166551247Y-109764285D02*
X166789342Y-109764285D01*
X166789342Y-109764285D02*
X166884580Y-109811904D01*
X166884580Y-109811904D02*
X166932200Y-109859523D01*
X166932200Y-109859523D02*
X166979819Y-109954761D01*
X166979819Y-109954761D02*
X166979819Y-110240475D01*
X166979819Y-110240475D02*
X166932200Y-110335713D01*
X166932200Y-110335713D02*
X166884580Y-110383332D01*
X138428571Y-122181009D02*
X138095238Y-122181009D01*
X138095238Y-122704819D02*
X138095238Y-121704819D01*
X138095238Y-121704819D02*
X138571428Y-121704819D01*
X138952381Y-122704819D02*
X138952381Y-121704819D01*
X139428571Y-122704819D02*
X139428571Y-121704819D01*
X139428571Y-121704819D02*
X139666666Y-121704819D01*
X139666666Y-121704819D02*
X139809523Y-121752438D01*
X139809523Y-121752438D02*
X139904761Y-121847676D01*
X139904761Y-121847676D02*
X139952380Y-121942914D01*
X139952380Y-121942914D02*
X139999999Y-122133390D01*
X139999999Y-122133390D02*
X139999999Y-122276247D01*
X139999999Y-122276247D02*
X139952380Y-122466723D01*
X139952380Y-122466723D02*
X139904761Y-122561961D01*
X139904761Y-122561961D02*
X139809523Y-122657200D01*
X139809523Y-122657200D02*
X139666666Y-122704819D01*
X139666666Y-122704819D02*
X139428571Y-122704819D01*
X140952380Y-122704819D02*
X140380952Y-122704819D01*
X140666666Y-122704819D02*
X140666666Y-121704819D01*
X140666666Y-121704819D02*
X140571428Y-121847676D01*
X140571428Y-121847676D02*
X140476190Y-121942914D01*
X140476190Y-121942914D02*
X140380952Y-121990533D01*
X150628571Y-112681009D02*
X150295238Y-112681009D01*
X150295238Y-113204819D02*
X150295238Y-112204819D01*
X150295238Y-112204819D02*
X150771428Y-112204819D01*
X151152381Y-113204819D02*
X151152381Y-112204819D01*
X151628571Y-113204819D02*
X151628571Y-112204819D01*
X151628571Y-112204819D02*
X151866666Y-112204819D01*
X151866666Y-112204819D02*
X152009523Y-112252438D01*
X152009523Y-112252438D02*
X152104761Y-112347676D01*
X152104761Y-112347676D02*
X152152380Y-112442914D01*
X152152380Y-112442914D02*
X152199999Y-112633390D01*
X152199999Y-112633390D02*
X152199999Y-112776247D01*
X152199999Y-112776247D02*
X152152380Y-112966723D01*
X152152380Y-112966723D02*
X152104761Y-113061961D01*
X152104761Y-113061961D02*
X152009523Y-113157200D01*
X152009523Y-113157200D02*
X151866666Y-113204819D01*
X151866666Y-113204819D02*
X151628571Y-113204819D01*
X153057142Y-112538152D02*
X153057142Y-113204819D01*
X152819047Y-112157200D02*
X152580952Y-112871485D01*
X152580952Y-112871485D02*
X153199999Y-112871485D01*
X172251666Y-76504819D02*
X172251666Y-77219104D01*
X172251666Y-77219104D02*
X172204047Y-77361961D01*
X172204047Y-77361961D02*
X172108809Y-77457200D01*
X172108809Y-77457200D02*
X171965952Y-77504819D01*
X171965952Y-77504819D02*
X171870714Y-77504819D01*
X173156428Y-76838152D02*
X173156428Y-77504819D01*
X172918333Y-76457200D02*
X172680238Y-77171485D01*
X172680238Y-77171485D02*
X173299285Y-77171485D01*
X144854819Y-83279166D02*
X144378628Y-83612499D01*
X144854819Y-83850594D02*
X143854819Y-83850594D01*
X143854819Y-83850594D02*
X143854819Y-83469642D01*
X143854819Y-83469642D02*
X143902438Y-83374404D01*
X143902438Y-83374404D02*
X143950057Y-83326785D01*
X143950057Y-83326785D02*
X144045295Y-83279166D01*
X144045295Y-83279166D02*
X144188152Y-83279166D01*
X144188152Y-83279166D02*
X144283390Y-83326785D01*
X144283390Y-83326785D02*
X144331009Y-83374404D01*
X144331009Y-83374404D02*
X144378628Y-83469642D01*
X144378628Y-83469642D02*
X144378628Y-83850594D01*
X143854819Y-82945832D02*
X143854819Y-82279166D01*
X143854819Y-82279166D02*
X144854819Y-82707737D01*
X163543333Y-131619580D02*
X163495714Y-131667200D01*
X163495714Y-131667200D02*
X163352857Y-131714819D01*
X163352857Y-131714819D02*
X163257619Y-131714819D01*
X163257619Y-131714819D02*
X163114762Y-131667200D01*
X163114762Y-131667200D02*
X163019524Y-131571961D01*
X163019524Y-131571961D02*
X162971905Y-131476723D01*
X162971905Y-131476723D02*
X162924286Y-131286247D01*
X162924286Y-131286247D02*
X162924286Y-131143390D01*
X162924286Y-131143390D02*
X162971905Y-130952914D01*
X162971905Y-130952914D02*
X163019524Y-130857676D01*
X163019524Y-130857676D02*
X163114762Y-130762438D01*
X163114762Y-130762438D02*
X163257619Y-130714819D01*
X163257619Y-130714819D02*
X163352857Y-130714819D01*
X163352857Y-130714819D02*
X163495714Y-130762438D01*
X163495714Y-130762438D02*
X163543333Y-130810057D01*
X163876667Y-130714819D02*
X164495714Y-130714819D01*
X164495714Y-130714819D02*
X164162381Y-131095771D01*
X164162381Y-131095771D02*
X164305238Y-131095771D01*
X164305238Y-131095771D02*
X164400476Y-131143390D01*
X164400476Y-131143390D02*
X164448095Y-131191009D01*
X164448095Y-131191009D02*
X164495714Y-131286247D01*
X164495714Y-131286247D02*
X164495714Y-131524342D01*
X164495714Y-131524342D02*
X164448095Y-131619580D01*
X164448095Y-131619580D02*
X164400476Y-131667200D01*
X164400476Y-131667200D02*
X164305238Y-131714819D01*
X164305238Y-131714819D02*
X164019524Y-131714819D01*
X164019524Y-131714819D02*
X163924286Y-131667200D01*
X163924286Y-131667200D02*
X163876667Y-131619580D01*
X145608333Y-101129819D02*
X145275000Y-100653628D01*
X145036905Y-101129819D02*
X145036905Y-100129819D01*
X145036905Y-100129819D02*
X145417857Y-100129819D01*
X145417857Y-100129819D02*
X145513095Y-100177438D01*
X145513095Y-100177438D02*
X145560714Y-100225057D01*
X145560714Y-100225057D02*
X145608333Y-100320295D01*
X145608333Y-100320295D02*
X145608333Y-100463152D01*
X145608333Y-100463152D02*
X145560714Y-100558390D01*
X145560714Y-100558390D02*
X145513095Y-100606009D01*
X145513095Y-100606009D02*
X145417857Y-100653628D01*
X145417857Y-100653628D02*
X145036905Y-100653628D01*
X146513095Y-100129819D02*
X146036905Y-100129819D01*
X146036905Y-100129819D02*
X145989286Y-100606009D01*
X145989286Y-100606009D02*
X146036905Y-100558390D01*
X146036905Y-100558390D02*
X146132143Y-100510771D01*
X146132143Y-100510771D02*
X146370238Y-100510771D01*
X146370238Y-100510771D02*
X146465476Y-100558390D01*
X146465476Y-100558390D02*
X146513095Y-100606009D01*
X146513095Y-100606009D02*
X146560714Y-100701247D01*
X146560714Y-100701247D02*
X146560714Y-100939342D01*
X146560714Y-100939342D02*
X146513095Y-101034580D01*
X146513095Y-101034580D02*
X146465476Y-101082200D01*
X146465476Y-101082200D02*
X146370238Y-101129819D01*
X146370238Y-101129819D02*
X146132143Y-101129819D01*
X146132143Y-101129819D02*
X146036905Y-101082200D01*
X146036905Y-101082200D02*
X145989286Y-101034580D01*
X179578571Y-125931009D02*
X179245238Y-125931009D01*
X179245238Y-126454819D02*
X179245238Y-125454819D01*
X179245238Y-125454819D02*
X179721428Y-125454819D01*
X180102381Y-126454819D02*
X180102381Y-125454819D01*
X180578571Y-126454819D02*
X180578571Y-125454819D01*
X180578571Y-125454819D02*
X180816666Y-125454819D01*
X180816666Y-125454819D02*
X180959523Y-125502438D01*
X180959523Y-125502438D02*
X181054761Y-125597676D01*
X181054761Y-125597676D02*
X181102380Y-125692914D01*
X181102380Y-125692914D02*
X181149999Y-125883390D01*
X181149999Y-125883390D02*
X181149999Y-126026247D01*
X181149999Y-126026247D02*
X181102380Y-126216723D01*
X181102380Y-126216723D02*
X181054761Y-126311961D01*
X181054761Y-126311961D02*
X180959523Y-126407200D01*
X180959523Y-126407200D02*
X180816666Y-126454819D01*
X180816666Y-126454819D02*
X180578571Y-126454819D01*
X181483333Y-125454819D02*
X182102380Y-125454819D01*
X182102380Y-125454819D02*
X181769047Y-125835771D01*
X181769047Y-125835771D02*
X181911904Y-125835771D01*
X181911904Y-125835771D02*
X182007142Y-125883390D01*
X182007142Y-125883390D02*
X182054761Y-125931009D01*
X182054761Y-125931009D02*
X182102380Y-126026247D01*
X182102380Y-126026247D02*
X182102380Y-126264342D01*
X182102380Y-126264342D02*
X182054761Y-126359580D01*
X182054761Y-126359580D02*
X182007142Y-126407200D01*
X182007142Y-126407200D02*
X181911904Y-126454819D01*
X181911904Y-126454819D02*
X181626190Y-126454819D01*
X181626190Y-126454819D02*
X181530952Y-126407200D01*
X181530952Y-126407200D02*
X181483333Y-126359580D01*
X148083333Y-112204819D02*
X147607143Y-112204819D01*
X147607143Y-112204819D02*
X147607143Y-111204819D01*
X148940476Y-112204819D02*
X148369048Y-112204819D01*
X148654762Y-112204819D02*
X148654762Y-111204819D01*
X148654762Y-111204819D02*
X148559524Y-111347676D01*
X148559524Y-111347676D02*
X148464286Y-111442914D01*
X148464286Y-111442914D02*
X148369048Y-111490533D01*
X163708333Y-96084580D02*
X163660714Y-96132200D01*
X163660714Y-96132200D02*
X163517857Y-96179819D01*
X163517857Y-96179819D02*
X163422619Y-96179819D01*
X163422619Y-96179819D02*
X163279762Y-96132200D01*
X163279762Y-96132200D02*
X163184524Y-96036961D01*
X163184524Y-96036961D02*
X163136905Y-95941723D01*
X163136905Y-95941723D02*
X163089286Y-95751247D01*
X163089286Y-95751247D02*
X163089286Y-95608390D01*
X163089286Y-95608390D02*
X163136905Y-95417914D01*
X163136905Y-95417914D02*
X163184524Y-95322676D01*
X163184524Y-95322676D02*
X163279762Y-95227438D01*
X163279762Y-95227438D02*
X163422619Y-95179819D01*
X163422619Y-95179819D02*
X163517857Y-95179819D01*
X163517857Y-95179819D02*
X163660714Y-95227438D01*
X163660714Y-95227438D02*
X163708333Y-95275057D01*
X164041667Y-95179819D02*
X164708333Y-95179819D01*
X164708333Y-95179819D02*
X164279762Y-96179819D01*
X162858333Y-114529580D02*
X162810714Y-114577200D01*
X162810714Y-114577200D02*
X162667857Y-114624819D01*
X162667857Y-114624819D02*
X162572619Y-114624819D01*
X162572619Y-114624819D02*
X162429762Y-114577200D01*
X162429762Y-114577200D02*
X162334524Y-114481961D01*
X162334524Y-114481961D02*
X162286905Y-114386723D01*
X162286905Y-114386723D02*
X162239286Y-114196247D01*
X162239286Y-114196247D02*
X162239286Y-114053390D01*
X162239286Y-114053390D02*
X162286905Y-113862914D01*
X162286905Y-113862914D02*
X162334524Y-113767676D01*
X162334524Y-113767676D02*
X162429762Y-113672438D01*
X162429762Y-113672438D02*
X162572619Y-113624819D01*
X162572619Y-113624819D02*
X162667857Y-113624819D01*
X162667857Y-113624819D02*
X162810714Y-113672438D01*
X162810714Y-113672438D02*
X162858333Y-113720057D01*
X163715476Y-113624819D02*
X163525000Y-113624819D01*
X163525000Y-113624819D02*
X163429762Y-113672438D01*
X163429762Y-113672438D02*
X163382143Y-113720057D01*
X163382143Y-113720057D02*
X163286905Y-113862914D01*
X163286905Y-113862914D02*
X163239286Y-114053390D01*
X163239286Y-114053390D02*
X163239286Y-114434342D01*
X163239286Y-114434342D02*
X163286905Y-114529580D01*
X163286905Y-114529580D02*
X163334524Y-114577200D01*
X163334524Y-114577200D02*
X163429762Y-114624819D01*
X163429762Y-114624819D02*
X163620238Y-114624819D01*
X163620238Y-114624819D02*
X163715476Y-114577200D01*
X163715476Y-114577200D02*
X163763095Y-114529580D01*
X163763095Y-114529580D02*
X163810714Y-114434342D01*
X163810714Y-114434342D02*
X163810714Y-114196247D01*
X163810714Y-114196247D02*
X163763095Y-114101009D01*
X163763095Y-114101009D02*
X163715476Y-114053390D01*
X163715476Y-114053390D02*
X163620238Y-114005771D01*
X163620238Y-114005771D02*
X163429762Y-114005771D01*
X163429762Y-114005771D02*
X163334524Y-114053390D01*
X163334524Y-114053390D02*
X163286905Y-114101009D01*
X163286905Y-114101009D02*
X163239286Y-114196247D01*
X140954819Y-109142857D02*
X140478628Y-109476190D01*
X140954819Y-109714285D02*
X139954819Y-109714285D01*
X139954819Y-109714285D02*
X139954819Y-109333333D01*
X139954819Y-109333333D02*
X140002438Y-109238095D01*
X140002438Y-109238095D02*
X140050057Y-109190476D01*
X140050057Y-109190476D02*
X140145295Y-109142857D01*
X140145295Y-109142857D02*
X140288152Y-109142857D01*
X140288152Y-109142857D02*
X140383390Y-109190476D01*
X140383390Y-109190476D02*
X140431009Y-109238095D01*
X140431009Y-109238095D02*
X140478628Y-109333333D01*
X140478628Y-109333333D02*
X140478628Y-109714285D01*
X140954819Y-108190476D02*
X140954819Y-108761904D01*
X140954819Y-108476190D02*
X139954819Y-108476190D01*
X139954819Y-108476190D02*
X140097676Y-108571428D01*
X140097676Y-108571428D02*
X140192914Y-108666666D01*
X140192914Y-108666666D02*
X140240533Y-108761904D01*
X140954819Y-107238095D02*
X140954819Y-107809523D01*
X140954819Y-107523809D02*
X139954819Y-107523809D01*
X139954819Y-107523809D02*
X140097676Y-107619047D01*
X140097676Y-107619047D02*
X140192914Y-107714285D01*
X140192914Y-107714285D02*
X140240533Y-107809523D01*
X146509580Y-109242857D02*
X146557200Y-109290476D01*
X146557200Y-109290476D02*
X146604819Y-109433333D01*
X146604819Y-109433333D02*
X146604819Y-109528571D01*
X146604819Y-109528571D02*
X146557200Y-109671428D01*
X146557200Y-109671428D02*
X146461961Y-109766666D01*
X146461961Y-109766666D02*
X146366723Y-109814285D01*
X146366723Y-109814285D02*
X146176247Y-109861904D01*
X146176247Y-109861904D02*
X146033390Y-109861904D01*
X146033390Y-109861904D02*
X145842914Y-109814285D01*
X145842914Y-109814285D02*
X145747676Y-109766666D01*
X145747676Y-109766666D02*
X145652438Y-109671428D01*
X145652438Y-109671428D02*
X145604819Y-109528571D01*
X145604819Y-109528571D02*
X145604819Y-109433333D01*
X145604819Y-109433333D02*
X145652438Y-109290476D01*
X145652438Y-109290476D02*
X145700057Y-109242857D01*
X146604819Y-108290476D02*
X146604819Y-108861904D01*
X146604819Y-108576190D02*
X145604819Y-108576190D01*
X145604819Y-108576190D02*
X145747676Y-108671428D01*
X145747676Y-108671428D02*
X145842914Y-108766666D01*
X145842914Y-108766666D02*
X145890533Y-108861904D01*
X145604819Y-107671428D02*
X145604819Y-107576190D01*
X145604819Y-107576190D02*
X145652438Y-107480952D01*
X145652438Y-107480952D02*
X145700057Y-107433333D01*
X145700057Y-107433333D02*
X145795295Y-107385714D01*
X145795295Y-107385714D02*
X145985771Y-107338095D01*
X145985771Y-107338095D02*
X146223866Y-107338095D01*
X146223866Y-107338095D02*
X146414342Y-107385714D01*
X146414342Y-107385714D02*
X146509580Y-107433333D01*
X146509580Y-107433333D02*
X146557200Y-107480952D01*
X146557200Y-107480952D02*
X146604819Y-107576190D01*
X146604819Y-107576190D02*
X146604819Y-107671428D01*
X146604819Y-107671428D02*
X146557200Y-107766666D01*
X146557200Y-107766666D02*
X146509580Y-107814285D01*
X146509580Y-107814285D02*
X146414342Y-107861904D01*
X146414342Y-107861904D02*
X146223866Y-107909523D01*
X146223866Y-107909523D02*
X145985771Y-107909523D01*
X145985771Y-107909523D02*
X145795295Y-107861904D01*
X145795295Y-107861904D02*
X145700057Y-107814285D01*
X145700057Y-107814285D02*
X145652438Y-107766666D01*
X145652438Y-107766666D02*
X145604819Y-107671428D01*
X143882142Y-77859580D02*
X143834523Y-77907200D01*
X143834523Y-77907200D02*
X143691666Y-77954819D01*
X143691666Y-77954819D02*
X143596428Y-77954819D01*
X143596428Y-77954819D02*
X143453571Y-77907200D01*
X143453571Y-77907200D02*
X143358333Y-77811961D01*
X143358333Y-77811961D02*
X143310714Y-77716723D01*
X143310714Y-77716723D02*
X143263095Y-77526247D01*
X143263095Y-77526247D02*
X143263095Y-77383390D01*
X143263095Y-77383390D02*
X143310714Y-77192914D01*
X143310714Y-77192914D02*
X143358333Y-77097676D01*
X143358333Y-77097676D02*
X143453571Y-77002438D01*
X143453571Y-77002438D02*
X143596428Y-76954819D01*
X143596428Y-76954819D02*
X143691666Y-76954819D01*
X143691666Y-76954819D02*
X143834523Y-77002438D01*
X143834523Y-77002438D02*
X143882142Y-77050057D01*
X144834523Y-77954819D02*
X144263095Y-77954819D01*
X144548809Y-77954819D02*
X144548809Y-76954819D01*
X144548809Y-76954819D02*
X144453571Y-77097676D01*
X144453571Y-77097676D02*
X144358333Y-77192914D01*
X144358333Y-77192914D02*
X144263095Y-77240533D01*
X145739285Y-76954819D02*
X145263095Y-76954819D01*
X145263095Y-76954819D02*
X145215476Y-77431009D01*
X145215476Y-77431009D02*
X145263095Y-77383390D01*
X145263095Y-77383390D02*
X145358333Y-77335771D01*
X145358333Y-77335771D02*
X145596428Y-77335771D01*
X145596428Y-77335771D02*
X145691666Y-77383390D01*
X145691666Y-77383390D02*
X145739285Y-77431009D01*
X145739285Y-77431009D02*
X145786904Y-77526247D01*
X145786904Y-77526247D02*
X145786904Y-77764342D01*
X145786904Y-77764342D02*
X145739285Y-77859580D01*
X145739285Y-77859580D02*
X145691666Y-77907200D01*
X145691666Y-77907200D02*
X145596428Y-77954819D01*
X145596428Y-77954819D02*
X145358333Y-77954819D01*
X145358333Y-77954819D02*
X145263095Y-77907200D01*
X145263095Y-77907200D02*
X145215476Y-77859580D01*
X174955952Y-124729819D02*
X174479762Y-124729819D01*
X174479762Y-124729819D02*
X174479762Y-123729819D01*
X175289286Y-124206009D02*
X175622619Y-124206009D01*
X175765476Y-124729819D02*
X175289286Y-124729819D01*
X175289286Y-124729819D02*
X175289286Y-123729819D01*
X175289286Y-123729819D02*
X175765476Y-123729819D01*
X176194048Y-124729819D02*
X176194048Y-123729819D01*
X176194048Y-123729819D02*
X176432143Y-123729819D01*
X176432143Y-123729819D02*
X176575000Y-123777438D01*
X176575000Y-123777438D02*
X176670238Y-123872676D01*
X176670238Y-123872676D02*
X176717857Y-123967914D01*
X176717857Y-123967914D02*
X176765476Y-124158390D01*
X176765476Y-124158390D02*
X176765476Y-124301247D01*
X176765476Y-124301247D02*
X176717857Y-124491723D01*
X176717857Y-124491723D02*
X176670238Y-124586961D01*
X176670238Y-124586961D02*
X176575000Y-124682200D01*
X176575000Y-124682200D02*
X176432143Y-124729819D01*
X176432143Y-124729819D02*
X176194048Y-124729819D01*
X177717857Y-124729819D02*
X177146429Y-124729819D01*
X177432143Y-124729819D02*
X177432143Y-123729819D01*
X177432143Y-123729819D02*
X177336905Y-123872676D01*
X177336905Y-123872676D02*
X177241667Y-123967914D01*
X177241667Y-123967914D02*
X177146429Y-124015533D01*
X144907142Y-103134580D02*
X144859523Y-103182200D01*
X144859523Y-103182200D02*
X144716666Y-103229819D01*
X144716666Y-103229819D02*
X144621428Y-103229819D01*
X144621428Y-103229819D02*
X144478571Y-103182200D01*
X144478571Y-103182200D02*
X144383333Y-103086961D01*
X144383333Y-103086961D02*
X144335714Y-102991723D01*
X144335714Y-102991723D02*
X144288095Y-102801247D01*
X144288095Y-102801247D02*
X144288095Y-102658390D01*
X144288095Y-102658390D02*
X144335714Y-102467914D01*
X144335714Y-102467914D02*
X144383333Y-102372676D01*
X144383333Y-102372676D02*
X144478571Y-102277438D01*
X144478571Y-102277438D02*
X144621428Y-102229819D01*
X144621428Y-102229819D02*
X144716666Y-102229819D01*
X144716666Y-102229819D02*
X144859523Y-102277438D01*
X144859523Y-102277438D02*
X144907142Y-102325057D01*
X145859523Y-103229819D02*
X145288095Y-103229819D01*
X145573809Y-103229819D02*
X145573809Y-102229819D01*
X145573809Y-102229819D02*
X145478571Y-102372676D01*
X145478571Y-102372676D02*
X145383333Y-102467914D01*
X145383333Y-102467914D02*
X145288095Y-102515533D01*
X146240476Y-102325057D02*
X146288095Y-102277438D01*
X146288095Y-102277438D02*
X146383333Y-102229819D01*
X146383333Y-102229819D02*
X146621428Y-102229819D01*
X146621428Y-102229819D02*
X146716666Y-102277438D01*
X146716666Y-102277438D02*
X146764285Y-102325057D01*
X146764285Y-102325057D02*
X146811904Y-102420295D01*
X146811904Y-102420295D02*
X146811904Y-102515533D01*
X146811904Y-102515533D02*
X146764285Y-102658390D01*
X146764285Y-102658390D02*
X146192857Y-103229819D01*
X146192857Y-103229819D02*
X146811904Y-103229819D01*
X143957142Y-73684580D02*
X143909523Y-73732200D01*
X143909523Y-73732200D02*
X143766666Y-73779819D01*
X143766666Y-73779819D02*
X143671428Y-73779819D01*
X143671428Y-73779819D02*
X143528571Y-73732200D01*
X143528571Y-73732200D02*
X143433333Y-73636961D01*
X143433333Y-73636961D02*
X143385714Y-73541723D01*
X143385714Y-73541723D02*
X143338095Y-73351247D01*
X143338095Y-73351247D02*
X143338095Y-73208390D01*
X143338095Y-73208390D02*
X143385714Y-73017914D01*
X143385714Y-73017914D02*
X143433333Y-72922676D01*
X143433333Y-72922676D02*
X143528571Y-72827438D01*
X143528571Y-72827438D02*
X143671428Y-72779819D01*
X143671428Y-72779819D02*
X143766666Y-72779819D01*
X143766666Y-72779819D02*
X143909523Y-72827438D01*
X143909523Y-72827438D02*
X143957142Y-72875057D01*
X144909523Y-73779819D02*
X144338095Y-73779819D01*
X144623809Y-73779819D02*
X144623809Y-72779819D01*
X144623809Y-72779819D02*
X144528571Y-72922676D01*
X144528571Y-72922676D02*
X144433333Y-73017914D01*
X144433333Y-73017914D02*
X144338095Y-73065533D01*
X145766666Y-73113152D02*
X145766666Y-73779819D01*
X145528571Y-72732200D02*
X145290476Y-73446485D01*
X145290476Y-73446485D02*
X145909523Y-73446485D01*
X171078571Y-73731009D02*
X170745238Y-73731009D01*
X170745238Y-74254819D02*
X170745238Y-73254819D01*
X170745238Y-73254819D02*
X171221428Y-73254819D01*
X171602381Y-74254819D02*
X171602381Y-73254819D01*
X172078571Y-74254819D02*
X172078571Y-73254819D01*
X172078571Y-73254819D02*
X172316666Y-73254819D01*
X172316666Y-73254819D02*
X172459523Y-73302438D01*
X172459523Y-73302438D02*
X172554761Y-73397676D01*
X172554761Y-73397676D02*
X172602380Y-73492914D01*
X172602380Y-73492914D02*
X172649999Y-73683390D01*
X172649999Y-73683390D02*
X172649999Y-73826247D01*
X172649999Y-73826247D02*
X172602380Y-74016723D01*
X172602380Y-74016723D02*
X172554761Y-74111961D01*
X172554761Y-74111961D02*
X172459523Y-74207200D01*
X172459523Y-74207200D02*
X172316666Y-74254819D01*
X172316666Y-74254819D02*
X172078571Y-74254819D01*
X173030952Y-73350057D02*
X173078571Y-73302438D01*
X173078571Y-73302438D02*
X173173809Y-73254819D01*
X173173809Y-73254819D02*
X173411904Y-73254819D01*
X173411904Y-73254819D02*
X173507142Y-73302438D01*
X173507142Y-73302438D02*
X173554761Y-73350057D01*
X173554761Y-73350057D02*
X173602380Y-73445295D01*
X173602380Y-73445295D02*
X173602380Y-73540533D01*
X173602380Y-73540533D02*
X173554761Y-73683390D01*
X173554761Y-73683390D02*
X172983333Y-74254819D01*
X172983333Y-74254819D02*
X173602380Y-74254819D01*
X154454819Y-128838094D02*
X153454819Y-128838094D01*
X153454819Y-128838094D02*
X153454819Y-128599999D01*
X153454819Y-128599999D02*
X153502438Y-128457142D01*
X153502438Y-128457142D02*
X153597676Y-128361904D01*
X153597676Y-128361904D02*
X153692914Y-128314285D01*
X153692914Y-128314285D02*
X153883390Y-128266666D01*
X153883390Y-128266666D02*
X154026247Y-128266666D01*
X154026247Y-128266666D02*
X154216723Y-128314285D01*
X154216723Y-128314285D02*
X154311961Y-128361904D01*
X154311961Y-128361904D02*
X154407200Y-128457142D01*
X154407200Y-128457142D02*
X154454819Y-128599999D01*
X154454819Y-128599999D02*
X154454819Y-128838094D01*
X153550057Y-127885713D02*
X153502438Y-127838094D01*
X153502438Y-127838094D02*
X153454819Y-127742856D01*
X153454819Y-127742856D02*
X153454819Y-127504761D01*
X153454819Y-127504761D02*
X153502438Y-127409523D01*
X153502438Y-127409523D02*
X153550057Y-127361904D01*
X153550057Y-127361904D02*
X153645295Y-127314285D01*
X153645295Y-127314285D02*
X153740533Y-127314285D01*
X153740533Y-127314285D02*
X153883390Y-127361904D01*
X153883390Y-127361904D02*
X154454819Y-127933332D01*
X154454819Y-127933332D02*
X154454819Y-127314285D01*
X139141666Y-79729819D02*
X139141666Y-80444104D01*
X139141666Y-80444104D02*
X139094047Y-80586961D01*
X139094047Y-80586961D02*
X138998809Y-80682200D01*
X138998809Y-80682200D02*
X138855952Y-80729819D01*
X138855952Y-80729819D02*
X138760714Y-80729819D01*
X140094047Y-79729819D02*
X139617857Y-79729819D01*
X139617857Y-79729819D02*
X139570238Y-80206009D01*
X139570238Y-80206009D02*
X139617857Y-80158390D01*
X139617857Y-80158390D02*
X139713095Y-80110771D01*
X139713095Y-80110771D02*
X139951190Y-80110771D01*
X139951190Y-80110771D02*
X140046428Y-80158390D01*
X140046428Y-80158390D02*
X140094047Y-80206009D01*
X140094047Y-80206009D02*
X140141666Y-80301247D01*
X140141666Y-80301247D02*
X140141666Y-80539342D01*
X140141666Y-80539342D02*
X140094047Y-80634580D01*
X140094047Y-80634580D02*
X140046428Y-80682200D01*
X140046428Y-80682200D02*
X139951190Y-80729819D01*
X139951190Y-80729819D02*
X139713095Y-80729819D01*
X139713095Y-80729819D02*
X139617857Y-80682200D01*
X139617857Y-80682200D02*
X139570238Y-80634580D01*
X159263333Y-116889580D02*
X159215714Y-116937200D01*
X159215714Y-116937200D02*
X159072857Y-116984819D01*
X159072857Y-116984819D02*
X158977619Y-116984819D01*
X158977619Y-116984819D02*
X158834762Y-116937200D01*
X158834762Y-116937200D02*
X158739524Y-116841961D01*
X158739524Y-116841961D02*
X158691905Y-116746723D01*
X158691905Y-116746723D02*
X158644286Y-116556247D01*
X158644286Y-116556247D02*
X158644286Y-116413390D01*
X158644286Y-116413390D02*
X158691905Y-116222914D01*
X158691905Y-116222914D02*
X158739524Y-116127676D01*
X158739524Y-116127676D02*
X158834762Y-116032438D01*
X158834762Y-116032438D02*
X158977619Y-115984819D01*
X158977619Y-115984819D02*
X159072857Y-115984819D01*
X159072857Y-115984819D02*
X159215714Y-116032438D01*
X159215714Y-116032438D02*
X159263333Y-116080057D01*
X160215714Y-116984819D02*
X159644286Y-116984819D01*
X159930000Y-116984819D02*
X159930000Y-115984819D01*
X159930000Y-115984819D02*
X159834762Y-116127676D01*
X159834762Y-116127676D02*
X159739524Y-116222914D01*
X159739524Y-116222914D02*
X159644286Y-116270533D01*
X161793509Y-119983333D02*
X161793509Y-120316666D01*
X162317319Y-120316666D02*
X161317319Y-120316666D01*
X161317319Y-120316666D02*
X161317319Y-119840476D01*
X162317319Y-118935714D02*
X162317319Y-119507142D01*
X162317319Y-119221428D02*
X161317319Y-119221428D01*
X161317319Y-119221428D02*
X161460176Y-119316666D01*
X161460176Y-119316666D02*
X161555414Y-119411904D01*
X161555414Y-119411904D02*
X161603033Y-119507142D01*
X154454819Y-124638094D02*
X153454819Y-124638094D01*
X153454819Y-124638094D02*
X153454819Y-124399999D01*
X153454819Y-124399999D02*
X153502438Y-124257142D01*
X153502438Y-124257142D02*
X153597676Y-124161904D01*
X153597676Y-124161904D02*
X153692914Y-124114285D01*
X153692914Y-124114285D02*
X153883390Y-124066666D01*
X153883390Y-124066666D02*
X154026247Y-124066666D01*
X154026247Y-124066666D02*
X154216723Y-124114285D01*
X154216723Y-124114285D02*
X154311961Y-124161904D01*
X154311961Y-124161904D02*
X154407200Y-124257142D01*
X154407200Y-124257142D02*
X154454819Y-124399999D01*
X154454819Y-124399999D02*
X154454819Y-124638094D01*
X154454819Y-123114285D02*
X154454819Y-123685713D01*
X154454819Y-123399999D02*
X153454819Y-123399999D01*
X153454819Y-123399999D02*
X153597676Y-123495237D01*
X153597676Y-123495237D02*
X153692914Y-123590475D01*
X153692914Y-123590475D02*
X153740533Y-123685713D01*
X166904819Y-112791666D02*
X166428628Y-113124999D01*
X166904819Y-113363094D02*
X165904819Y-113363094D01*
X165904819Y-113363094D02*
X165904819Y-112982142D01*
X165904819Y-112982142D02*
X165952438Y-112886904D01*
X165952438Y-112886904D02*
X166000057Y-112839285D01*
X166000057Y-112839285D02*
X166095295Y-112791666D01*
X166095295Y-112791666D02*
X166238152Y-112791666D01*
X166238152Y-112791666D02*
X166333390Y-112839285D01*
X166333390Y-112839285D02*
X166381009Y-112886904D01*
X166381009Y-112886904D02*
X166428628Y-112982142D01*
X166428628Y-112982142D02*
X166428628Y-113363094D01*
X166238152Y-111934523D02*
X166904819Y-111934523D01*
X165857200Y-112172618D02*
X166571485Y-112410713D01*
X166571485Y-112410713D02*
X166571485Y-111791666D01*
X145558333Y-98859580D02*
X145510714Y-98907200D01*
X145510714Y-98907200D02*
X145367857Y-98954819D01*
X145367857Y-98954819D02*
X145272619Y-98954819D01*
X145272619Y-98954819D02*
X145129762Y-98907200D01*
X145129762Y-98907200D02*
X145034524Y-98811961D01*
X145034524Y-98811961D02*
X144986905Y-98716723D01*
X144986905Y-98716723D02*
X144939286Y-98526247D01*
X144939286Y-98526247D02*
X144939286Y-98383390D01*
X144939286Y-98383390D02*
X144986905Y-98192914D01*
X144986905Y-98192914D02*
X145034524Y-98097676D01*
X145034524Y-98097676D02*
X145129762Y-98002438D01*
X145129762Y-98002438D02*
X145272619Y-97954819D01*
X145272619Y-97954819D02*
X145367857Y-97954819D01*
X145367857Y-97954819D02*
X145510714Y-98002438D01*
X145510714Y-98002438D02*
X145558333Y-98050057D01*
X146415476Y-98288152D02*
X146415476Y-98954819D01*
X146177381Y-97907200D02*
X145939286Y-98621485D01*
X145939286Y-98621485D02*
X146558333Y-98621485D01*
X143454819Y-109192857D02*
X142978628Y-109526190D01*
X143454819Y-109764285D02*
X142454819Y-109764285D01*
X142454819Y-109764285D02*
X142454819Y-109383333D01*
X142454819Y-109383333D02*
X142502438Y-109288095D01*
X142502438Y-109288095D02*
X142550057Y-109240476D01*
X142550057Y-109240476D02*
X142645295Y-109192857D01*
X142645295Y-109192857D02*
X142788152Y-109192857D01*
X142788152Y-109192857D02*
X142883390Y-109240476D01*
X142883390Y-109240476D02*
X142931009Y-109288095D01*
X142931009Y-109288095D02*
X142978628Y-109383333D01*
X142978628Y-109383333D02*
X142978628Y-109764285D01*
X143454819Y-108240476D02*
X143454819Y-108811904D01*
X143454819Y-108526190D02*
X142454819Y-108526190D01*
X142454819Y-108526190D02*
X142597676Y-108621428D01*
X142597676Y-108621428D02*
X142692914Y-108716666D01*
X142692914Y-108716666D02*
X142740533Y-108811904D01*
X142550057Y-107859523D02*
X142502438Y-107811904D01*
X142502438Y-107811904D02*
X142454819Y-107716666D01*
X142454819Y-107716666D02*
X142454819Y-107478571D01*
X142454819Y-107478571D02*
X142502438Y-107383333D01*
X142502438Y-107383333D02*
X142550057Y-107335714D01*
X142550057Y-107335714D02*
X142645295Y-107288095D01*
X142645295Y-107288095D02*
X142740533Y-107288095D01*
X142740533Y-107288095D02*
X142883390Y-107335714D01*
X142883390Y-107335714D02*
X143454819Y-107907142D01*
X143454819Y-107907142D02*
X143454819Y-107288095D01*
X176291666Y-121154819D02*
X176291666Y-121869104D01*
X176291666Y-121869104D02*
X176244047Y-122011961D01*
X176244047Y-122011961D02*
X176148809Y-122107200D01*
X176148809Y-122107200D02*
X176005952Y-122154819D01*
X176005952Y-122154819D02*
X175910714Y-122154819D01*
X176672619Y-121154819D02*
X177291666Y-121154819D01*
X177291666Y-121154819D02*
X176958333Y-121535771D01*
X176958333Y-121535771D02*
X177101190Y-121535771D01*
X177101190Y-121535771D02*
X177196428Y-121583390D01*
X177196428Y-121583390D02*
X177244047Y-121631009D01*
X177244047Y-121631009D02*
X177291666Y-121726247D01*
X177291666Y-121726247D02*
X177291666Y-121964342D01*
X177291666Y-121964342D02*
X177244047Y-122059580D01*
X177244047Y-122059580D02*
X177196428Y-122107200D01*
X177196428Y-122107200D02*
X177101190Y-122154819D01*
X177101190Y-122154819D02*
X176815476Y-122154819D01*
X176815476Y-122154819D02*
X176720238Y-122107200D01*
X176720238Y-122107200D02*
X176672619Y-122059580D01*
X139623333Y-95119819D02*
X139290000Y-94643628D01*
X139051905Y-95119819D02*
X139051905Y-94119819D01*
X139051905Y-94119819D02*
X139432857Y-94119819D01*
X139432857Y-94119819D02*
X139528095Y-94167438D01*
X139528095Y-94167438D02*
X139575714Y-94215057D01*
X139575714Y-94215057D02*
X139623333Y-94310295D01*
X139623333Y-94310295D02*
X139623333Y-94453152D01*
X139623333Y-94453152D02*
X139575714Y-94548390D01*
X139575714Y-94548390D02*
X139528095Y-94596009D01*
X139528095Y-94596009D02*
X139432857Y-94643628D01*
X139432857Y-94643628D02*
X139051905Y-94643628D01*
X140575714Y-94167438D02*
X140480476Y-94119819D01*
X140480476Y-94119819D02*
X140337619Y-94119819D01*
X140337619Y-94119819D02*
X140194762Y-94167438D01*
X140194762Y-94167438D02*
X140099524Y-94262676D01*
X140099524Y-94262676D02*
X140051905Y-94357914D01*
X140051905Y-94357914D02*
X140004286Y-94548390D01*
X140004286Y-94548390D02*
X140004286Y-94691247D01*
X140004286Y-94691247D02*
X140051905Y-94881723D01*
X140051905Y-94881723D02*
X140099524Y-94976961D01*
X140099524Y-94976961D02*
X140194762Y-95072200D01*
X140194762Y-95072200D02*
X140337619Y-95119819D01*
X140337619Y-95119819D02*
X140432857Y-95119819D01*
X140432857Y-95119819D02*
X140575714Y-95072200D01*
X140575714Y-95072200D02*
X140623333Y-95024580D01*
X140623333Y-95024580D02*
X140623333Y-94691247D01*
X140623333Y-94691247D02*
X140432857Y-94691247D01*
X141385238Y-94596009D02*
X141528095Y-94643628D01*
X141528095Y-94643628D02*
X141575714Y-94691247D01*
X141575714Y-94691247D02*
X141623333Y-94786485D01*
X141623333Y-94786485D02*
X141623333Y-94929342D01*
X141623333Y-94929342D02*
X141575714Y-95024580D01*
X141575714Y-95024580D02*
X141528095Y-95072200D01*
X141528095Y-95072200D02*
X141432857Y-95119819D01*
X141432857Y-95119819D02*
X141051905Y-95119819D01*
X141051905Y-95119819D02*
X141051905Y-94119819D01*
X141051905Y-94119819D02*
X141385238Y-94119819D01*
X141385238Y-94119819D02*
X141480476Y-94167438D01*
X141480476Y-94167438D02*
X141528095Y-94215057D01*
X141528095Y-94215057D02*
X141575714Y-94310295D01*
X141575714Y-94310295D02*
X141575714Y-94405533D01*
X141575714Y-94405533D02*
X141528095Y-94500771D01*
X141528095Y-94500771D02*
X141480476Y-94548390D01*
X141480476Y-94548390D02*
X141385238Y-94596009D01*
X141385238Y-94596009D02*
X141051905Y-94596009D01*
X142575714Y-95119819D02*
X142004286Y-95119819D01*
X142290000Y-95119819D02*
X142290000Y-94119819D01*
X142290000Y-94119819D02*
X142194762Y-94262676D01*
X142194762Y-94262676D02*
X142099524Y-94357914D01*
X142099524Y-94357914D02*
X142004286Y-94405533D01*
X148654819Y-90551904D02*
X149464342Y-90551904D01*
X149464342Y-90551904D02*
X149559580Y-90504285D01*
X149559580Y-90504285D02*
X149607200Y-90456666D01*
X149607200Y-90456666D02*
X149654819Y-90361428D01*
X149654819Y-90361428D02*
X149654819Y-90170952D01*
X149654819Y-90170952D02*
X149607200Y-90075714D01*
X149607200Y-90075714D02*
X149559580Y-90028095D01*
X149559580Y-90028095D02*
X149464342Y-89980476D01*
X149464342Y-89980476D02*
X148654819Y-89980476D01*
X148654819Y-89599523D02*
X148654819Y-88980476D01*
X148654819Y-88980476D02*
X149035771Y-89313809D01*
X149035771Y-89313809D02*
X149035771Y-89170952D01*
X149035771Y-89170952D02*
X149083390Y-89075714D01*
X149083390Y-89075714D02*
X149131009Y-89028095D01*
X149131009Y-89028095D02*
X149226247Y-88980476D01*
X149226247Y-88980476D02*
X149464342Y-88980476D01*
X149464342Y-88980476D02*
X149559580Y-89028095D01*
X149559580Y-89028095D02*
X149607200Y-89075714D01*
X149607200Y-89075714D02*
X149654819Y-89170952D01*
X149654819Y-89170952D02*
X149654819Y-89456666D01*
X149654819Y-89456666D02*
X149607200Y-89551904D01*
X149607200Y-89551904D02*
X149559580Y-89599523D01*
X168004819Y-101376666D02*
X167528628Y-101709999D01*
X168004819Y-101948094D02*
X167004819Y-101948094D01*
X167004819Y-101948094D02*
X167004819Y-101567142D01*
X167004819Y-101567142D02*
X167052438Y-101471904D01*
X167052438Y-101471904D02*
X167100057Y-101424285D01*
X167100057Y-101424285D02*
X167195295Y-101376666D01*
X167195295Y-101376666D02*
X167338152Y-101376666D01*
X167338152Y-101376666D02*
X167433390Y-101424285D01*
X167433390Y-101424285D02*
X167481009Y-101471904D01*
X167481009Y-101471904D02*
X167528628Y-101567142D01*
X167528628Y-101567142D02*
X167528628Y-101948094D01*
X168004819Y-100424285D02*
X168004819Y-100995713D01*
X168004819Y-100709999D02*
X167004819Y-100709999D01*
X167004819Y-100709999D02*
X167147676Y-100805237D01*
X167147676Y-100805237D02*
X167242914Y-100900475D01*
X167242914Y-100900475D02*
X167290533Y-100995713D01*
X154933333Y-115054580D02*
X154885714Y-115102200D01*
X154885714Y-115102200D02*
X154742857Y-115149819D01*
X154742857Y-115149819D02*
X154647619Y-115149819D01*
X154647619Y-115149819D02*
X154504762Y-115102200D01*
X154504762Y-115102200D02*
X154409524Y-115006961D01*
X154409524Y-115006961D02*
X154361905Y-114911723D01*
X154361905Y-114911723D02*
X154314286Y-114721247D01*
X154314286Y-114721247D02*
X154314286Y-114578390D01*
X154314286Y-114578390D02*
X154361905Y-114387914D01*
X154361905Y-114387914D02*
X154409524Y-114292676D01*
X154409524Y-114292676D02*
X154504762Y-114197438D01*
X154504762Y-114197438D02*
X154647619Y-114149819D01*
X154647619Y-114149819D02*
X154742857Y-114149819D01*
X154742857Y-114149819D02*
X154885714Y-114197438D01*
X154885714Y-114197438D02*
X154933333Y-114245057D01*
X155838095Y-114149819D02*
X155361905Y-114149819D01*
X155361905Y-114149819D02*
X155314286Y-114626009D01*
X155314286Y-114626009D02*
X155361905Y-114578390D01*
X155361905Y-114578390D02*
X155457143Y-114530771D01*
X155457143Y-114530771D02*
X155695238Y-114530771D01*
X155695238Y-114530771D02*
X155790476Y-114578390D01*
X155790476Y-114578390D02*
X155838095Y-114626009D01*
X155838095Y-114626009D02*
X155885714Y-114721247D01*
X155885714Y-114721247D02*
X155885714Y-114959342D01*
X155885714Y-114959342D02*
X155838095Y-115054580D01*
X155838095Y-115054580D02*
X155790476Y-115102200D01*
X155790476Y-115102200D02*
X155695238Y-115149819D01*
X155695238Y-115149819D02*
X155457143Y-115149819D01*
X155457143Y-115149819D02*
X155361905Y-115102200D01*
X155361905Y-115102200D02*
X155314286Y-115054580D01*
X144704819Y-87066666D02*
X144228628Y-87399999D01*
X144704819Y-87638094D02*
X143704819Y-87638094D01*
X143704819Y-87638094D02*
X143704819Y-87257142D01*
X143704819Y-87257142D02*
X143752438Y-87161904D01*
X143752438Y-87161904D02*
X143800057Y-87114285D01*
X143800057Y-87114285D02*
X143895295Y-87066666D01*
X143895295Y-87066666D02*
X144038152Y-87066666D01*
X144038152Y-87066666D02*
X144133390Y-87114285D01*
X144133390Y-87114285D02*
X144181009Y-87161904D01*
X144181009Y-87161904D02*
X144228628Y-87257142D01*
X144228628Y-87257142D02*
X144228628Y-87638094D01*
X143704819Y-86209523D02*
X143704819Y-86399999D01*
X143704819Y-86399999D02*
X143752438Y-86495237D01*
X143752438Y-86495237D02*
X143800057Y-86542856D01*
X143800057Y-86542856D02*
X143942914Y-86638094D01*
X143942914Y-86638094D02*
X144133390Y-86685713D01*
X144133390Y-86685713D02*
X144514342Y-86685713D01*
X144514342Y-86685713D02*
X144609580Y-86638094D01*
X144609580Y-86638094D02*
X144657200Y-86590475D01*
X144657200Y-86590475D02*
X144704819Y-86495237D01*
X144704819Y-86495237D02*
X144704819Y-86304761D01*
X144704819Y-86304761D02*
X144657200Y-86209523D01*
X144657200Y-86209523D02*
X144609580Y-86161904D01*
X144609580Y-86161904D02*
X144514342Y-86114285D01*
X144514342Y-86114285D02*
X144276247Y-86114285D01*
X144276247Y-86114285D02*
X144181009Y-86161904D01*
X144181009Y-86161904D02*
X144133390Y-86209523D01*
X144133390Y-86209523D02*
X144085771Y-86304761D01*
X144085771Y-86304761D02*
X144085771Y-86495237D01*
X144085771Y-86495237D02*
X144133390Y-86590475D01*
X144133390Y-86590475D02*
X144181009Y-86638094D01*
X144181009Y-86638094D02*
X144276247Y-86685713D01*
X151683333Y-93759580D02*
X151635714Y-93807200D01*
X151635714Y-93807200D02*
X151492857Y-93854819D01*
X151492857Y-93854819D02*
X151397619Y-93854819D01*
X151397619Y-93854819D02*
X151254762Y-93807200D01*
X151254762Y-93807200D02*
X151159524Y-93711961D01*
X151159524Y-93711961D02*
X151111905Y-93616723D01*
X151111905Y-93616723D02*
X151064286Y-93426247D01*
X151064286Y-93426247D02*
X151064286Y-93283390D01*
X151064286Y-93283390D02*
X151111905Y-93092914D01*
X151111905Y-93092914D02*
X151159524Y-92997676D01*
X151159524Y-92997676D02*
X151254762Y-92902438D01*
X151254762Y-92902438D02*
X151397619Y-92854819D01*
X151397619Y-92854819D02*
X151492857Y-92854819D01*
X151492857Y-92854819D02*
X151635714Y-92902438D01*
X151635714Y-92902438D02*
X151683333Y-92950057D01*
X152254762Y-93283390D02*
X152159524Y-93235771D01*
X152159524Y-93235771D02*
X152111905Y-93188152D01*
X152111905Y-93188152D02*
X152064286Y-93092914D01*
X152064286Y-93092914D02*
X152064286Y-93045295D01*
X152064286Y-93045295D02*
X152111905Y-92950057D01*
X152111905Y-92950057D02*
X152159524Y-92902438D01*
X152159524Y-92902438D02*
X152254762Y-92854819D01*
X152254762Y-92854819D02*
X152445238Y-92854819D01*
X152445238Y-92854819D02*
X152540476Y-92902438D01*
X152540476Y-92902438D02*
X152588095Y-92950057D01*
X152588095Y-92950057D02*
X152635714Y-93045295D01*
X152635714Y-93045295D02*
X152635714Y-93092914D01*
X152635714Y-93092914D02*
X152588095Y-93188152D01*
X152588095Y-93188152D02*
X152540476Y-93235771D01*
X152540476Y-93235771D02*
X152445238Y-93283390D01*
X152445238Y-93283390D02*
X152254762Y-93283390D01*
X152254762Y-93283390D02*
X152159524Y-93331009D01*
X152159524Y-93331009D02*
X152111905Y-93378628D01*
X152111905Y-93378628D02*
X152064286Y-93473866D01*
X152064286Y-93473866D02*
X152064286Y-93664342D01*
X152064286Y-93664342D02*
X152111905Y-93759580D01*
X152111905Y-93759580D02*
X152159524Y-93807200D01*
X152159524Y-93807200D02*
X152254762Y-93854819D01*
X152254762Y-93854819D02*
X152445238Y-93854819D01*
X152445238Y-93854819D02*
X152540476Y-93807200D01*
X152540476Y-93807200D02*
X152588095Y-93759580D01*
X152588095Y-93759580D02*
X152635714Y-93664342D01*
X152635714Y-93664342D02*
X152635714Y-93473866D01*
X152635714Y-93473866D02*
X152588095Y-93378628D01*
X152588095Y-93378628D02*
X152540476Y-93331009D01*
X152540476Y-93331009D02*
X152445238Y-93283390D01*
X166709580Y-115917857D02*
X166757200Y-115965476D01*
X166757200Y-115965476D02*
X166804819Y-116108333D01*
X166804819Y-116108333D02*
X166804819Y-116203571D01*
X166804819Y-116203571D02*
X166757200Y-116346428D01*
X166757200Y-116346428D02*
X166661961Y-116441666D01*
X166661961Y-116441666D02*
X166566723Y-116489285D01*
X166566723Y-116489285D02*
X166376247Y-116536904D01*
X166376247Y-116536904D02*
X166233390Y-116536904D01*
X166233390Y-116536904D02*
X166042914Y-116489285D01*
X166042914Y-116489285D02*
X165947676Y-116441666D01*
X165947676Y-116441666D02*
X165852438Y-116346428D01*
X165852438Y-116346428D02*
X165804819Y-116203571D01*
X165804819Y-116203571D02*
X165804819Y-116108333D01*
X165804819Y-116108333D02*
X165852438Y-115965476D01*
X165852438Y-115965476D02*
X165900057Y-115917857D01*
X166804819Y-114965476D02*
X166804819Y-115536904D01*
X166804819Y-115251190D02*
X165804819Y-115251190D01*
X165804819Y-115251190D02*
X165947676Y-115346428D01*
X165947676Y-115346428D02*
X166042914Y-115441666D01*
X166042914Y-115441666D02*
X166090533Y-115536904D01*
X166804819Y-114013095D02*
X166804819Y-114584523D01*
X166804819Y-114298809D02*
X165804819Y-114298809D01*
X165804819Y-114298809D02*
X165947676Y-114394047D01*
X165947676Y-114394047D02*
X166042914Y-114489285D01*
X166042914Y-114489285D02*
X166090533Y-114584523D01*
X164488095Y-106704819D02*
X164488095Y-107514342D01*
X164488095Y-107514342D02*
X164535714Y-107609580D01*
X164535714Y-107609580D02*
X164583333Y-107657200D01*
X164583333Y-107657200D02*
X164678571Y-107704819D01*
X164678571Y-107704819D02*
X164869047Y-107704819D01*
X164869047Y-107704819D02*
X164964285Y-107657200D01*
X164964285Y-107657200D02*
X165011904Y-107609580D01*
X165011904Y-107609580D02*
X165059523Y-107514342D01*
X165059523Y-107514342D02*
X165059523Y-106704819D01*
X165488095Y-106800057D02*
X165535714Y-106752438D01*
X165535714Y-106752438D02*
X165630952Y-106704819D01*
X165630952Y-106704819D02*
X165869047Y-106704819D01*
X165869047Y-106704819D02*
X165964285Y-106752438D01*
X165964285Y-106752438D02*
X166011904Y-106800057D01*
X166011904Y-106800057D02*
X166059523Y-106895295D01*
X166059523Y-106895295D02*
X166059523Y-106990533D01*
X166059523Y-106990533D02*
X166011904Y-107133390D01*
X166011904Y-107133390D02*
X165440476Y-107704819D01*
X165440476Y-107704819D02*
X166059523Y-107704819D01*
X138404819Y-109142857D02*
X137928628Y-109476190D01*
X138404819Y-109714285D02*
X137404819Y-109714285D01*
X137404819Y-109714285D02*
X137404819Y-109333333D01*
X137404819Y-109333333D02*
X137452438Y-109238095D01*
X137452438Y-109238095D02*
X137500057Y-109190476D01*
X137500057Y-109190476D02*
X137595295Y-109142857D01*
X137595295Y-109142857D02*
X137738152Y-109142857D01*
X137738152Y-109142857D02*
X137833390Y-109190476D01*
X137833390Y-109190476D02*
X137881009Y-109238095D01*
X137881009Y-109238095D02*
X137928628Y-109333333D01*
X137928628Y-109333333D02*
X137928628Y-109714285D01*
X138404819Y-108190476D02*
X138404819Y-108761904D01*
X138404819Y-108476190D02*
X137404819Y-108476190D01*
X137404819Y-108476190D02*
X137547676Y-108571428D01*
X137547676Y-108571428D02*
X137642914Y-108666666D01*
X137642914Y-108666666D02*
X137690533Y-108761904D01*
X137404819Y-107571428D02*
X137404819Y-107476190D01*
X137404819Y-107476190D02*
X137452438Y-107380952D01*
X137452438Y-107380952D02*
X137500057Y-107333333D01*
X137500057Y-107333333D02*
X137595295Y-107285714D01*
X137595295Y-107285714D02*
X137785771Y-107238095D01*
X137785771Y-107238095D02*
X138023866Y-107238095D01*
X138023866Y-107238095D02*
X138214342Y-107285714D01*
X138214342Y-107285714D02*
X138309580Y-107333333D01*
X138309580Y-107333333D02*
X138357200Y-107380952D01*
X138357200Y-107380952D02*
X138404819Y-107476190D01*
X138404819Y-107476190D02*
X138404819Y-107571428D01*
X138404819Y-107571428D02*
X138357200Y-107666666D01*
X138357200Y-107666666D02*
X138309580Y-107714285D01*
X138309580Y-107714285D02*
X138214342Y-107761904D01*
X138214342Y-107761904D02*
X138023866Y-107809523D01*
X138023866Y-107809523D02*
X137785771Y-107809523D01*
X137785771Y-107809523D02*
X137595295Y-107761904D01*
X137595295Y-107761904D02*
X137500057Y-107714285D01*
X137500057Y-107714285D02*
X137452438Y-107666666D01*
X137452438Y-107666666D02*
X137404819Y-107571428D01*
X171133333Y-122679819D02*
X170800000Y-122203628D01*
X170561905Y-122679819D02*
X170561905Y-121679819D01*
X170561905Y-121679819D02*
X170942857Y-121679819D01*
X170942857Y-121679819D02*
X171038095Y-121727438D01*
X171038095Y-121727438D02*
X171085714Y-121775057D01*
X171085714Y-121775057D02*
X171133333Y-121870295D01*
X171133333Y-121870295D02*
X171133333Y-122013152D01*
X171133333Y-122013152D02*
X171085714Y-122108390D01*
X171085714Y-122108390D02*
X171038095Y-122156009D01*
X171038095Y-122156009D02*
X170942857Y-122203628D01*
X170942857Y-122203628D02*
X170561905Y-122203628D01*
X171514286Y-121775057D02*
X171561905Y-121727438D01*
X171561905Y-121727438D02*
X171657143Y-121679819D01*
X171657143Y-121679819D02*
X171895238Y-121679819D01*
X171895238Y-121679819D02*
X171990476Y-121727438D01*
X171990476Y-121727438D02*
X172038095Y-121775057D01*
X172038095Y-121775057D02*
X172085714Y-121870295D01*
X172085714Y-121870295D02*
X172085714Y-121965533D01*
X172085714Y-121965533D02*
X172038095Y-122108390D01*
X172038095Y-122108390D02*
X171466667Y-122679819D01*
X171466667Y-122679819D02*
X172085714Y-122679819D01*
X144783333Y-80904819D02*
X144450000Y-80428628D01*
X144211905Y-80904819D02*
X144211905Y-79904819D01*
X144211905Y-79904819D02*
X144592857Y-79904819D01*
X144592857Y-79904819D02*
X144688095Y-79952438D01*
X144688095Y-79952438D02*
X144735714Y-80000057D01*
X144735714Y-80000057D02*
X144783333Y-80095295D01*
X144783333Y-80095295D02*
X144783333Y-80238152D01*
X144783333Y-80238152D02*
X144735714Y-80333390D01*
X144735714Y-80333390D02*
X144688095Y-80381009D01*
X144688095Y-80381009D02*
X144592857Y-80428628D01*
X144592857Y-80428628D02*
X144211905Y-80428628D01*
X145259524Y-80904819D02*
X145450000Y-80904819D01*
X145450000Y-80904819D02*
X145545238Y-80857200D01*
X145545238Y-80857200D02*
X145592857Y-80809580D01*
X145592857Y-80809580D02*
X145688095Y-80666723D01*
X145688095Y-80666723D02*
X145735714Y-80476247D01*
X145735714Y-80476247D02*
X145735714Y-80095295D01*
X145735714Y-80095295D02*
X145688095Y-80000057D01*
X145688095Y-80000057D02*
X145640476Y-79952438D01*
X145640476Y-79952438D02*
X145545238Y-79904819D01*
X145545238Y-79904819D02*
X145354762Y-79904819D01*
X145354762Y-79904819D02*
X145259524Y-79952438D01*
X145259524Y-79952438D02*
X145211905Y-80000057D01*
X145211905Y-80000057D02*
X145164286Y-80095295D01*
X145164286Y-80095295D02*
X145164286Y-80333390D01*
X145164286Y-80333390D02*
X145211905Y-80428628D01*
X145211905Y-80428628D02*
X145259524Y-80476247D01*
X145259524Y-80476247D02*
X145354762Y-80523866D01*
X145354762Y-80523866D02*
X145545238Y-80523866D01*
X145545238Y-80523866D02*
X145640476Y-80476247D01*
X145640476Y-80476247D02*
X145688095Y-80428628D01*
X145688095Y-80428628D02*
X145735714Y-80333390D01*
X157778571Y-94631009D02*
X157445238Y-94631009D01*
X157445238Y-95154819D02*
X157445238Y-94154819D01*
X157445238Y-94154819D02*
X157921428Y-94154819D01*
X158302381Y-95154819D02*
X158302381Y-94154819D01*
X158778571Y-95154819D02*
X158778571Y-94154819D01*
X158778571Y-94154819D02*
X159016666Y-94154819D01*
X159016666Y-94154819D02*
X159159523Y-94202438D01*
X159159523Y-94202438D02*
X159254761Y-94297676D01*
X159254761Y-94297676D02*
X159302380Y-94392914D01*
X159302380Y-94392914D02*
X159349999Y-94583390D01*
X159349999Y-94583390D02*
X159349999Y-94726247D01*
X159349999Y-94726247D02*
X159302380Y-94916723D01*
X159302380Y-94916723D02*
X159254761Y-95011961D01*
X159254761Y-95011961D02*
X159159523Y-95107200D01*
X159159523Y-95107200D02*
X159016666Y-95154819D01*
X159016666Y-95154819D02*
X158778571Y-95154819D01*
X160254761Y-94154819D02*
X159778571Y-94154819D01*
X159778571Y-94154819D02*
X159730952Y-94631009D01*
X159730952Y-94631009D02*
X159778571Y-94583390D01*
X159778571Y-94583390D02*
X159873809Y-94535771D01*
X159873809Y-94535771D02*
X160111904Y-94535771D01*
X160111904Y-94535771D02*
X160207142Y-94583390D01*
X160207142Y-94583390D02*
X160254761Y-94631009D01*
X160254761Y-94631009D02*
X160302380Y-94726247D01*
X160302380Y-94726247D02*
X160302380Y-94964342D01*
X160302380Y-94964342D02*
X160254761Y-95059580D01*
X160254761Y-95059580D02*
X160207142Y-95107200D01*
X160207142Y-95107200D02*
X160111904Y-95154819D01*
X160111904Y-95154819D02*
X159873809Y-95154819D01*
X159873809Y-95154819D02*
X159778571Y-95107200D01*
X159778571Y-95107200D02*
X159730952Y-95059580D01*
X167223333Y-130369580D02*
X167175714Y-130417200D01*
X167175714Y-130417200D02*
X167032857Y-130464819D01*
X167032857Y-130464819D02*
X166937619Y-130464819D01*
X166937619Y-130464819D02*
X166794762Y-130417200D01*
X166794762Y-130417200D02*
X166699524Y-130321961D01*
X166699524Y-130321961D02*
X166651905Y-130226723D01*
X166651905Y-130226723D02*
X166604286Y-130036247D01*
X166604286Y-130036247D02*
X166604286Y-129893390D01*
X166604286Y-129893390D02*
X166651905Y-129702914D01*
X166651905Y-129702914D02*
X166699524Y-129607676D01*
X166699524Y-129607676D02*
X166794762Y-129512438D01*
X166794762Y-129512438D02*
X166937619Y-129464819D01*
X166937619Y-129464819D02*
X167032857Y-129464819D01*
X167032857Y-129464819D02*
X167175714Y-129512438D01*
X167175714Y-129512438D02*
X167223333Y-129560057D01*
X167604286Y-129560057D02*
X167651905Y-129512438D01*
X167651905Y-129512438D02*
X167747143Y-129464819D01*
X167747143Y-129464819D02*
X167985238Y-129464819D01*
X167985238Y-129464819D02*
X168080476Y-129512438D01*
X168080476Y-129512438D02*
X168128095Y-129560057D01*
X168128095Y-129560057D02*
X168175714Y-129655295D01*
X168175714Y-129655295D02*
X168175714Y-129750533D01*
X168175714Y-129750533D02*
X168128095Y-129893390D01*
X168128095Y-129893390D02*
X167556667Y-130464819D01*
X167556667Y-130464819D02*
X168175714Y-130464819D01*
X168238095Y-116354819D02*
X168238095Y-117164342D01*
X168238095Y-117164342D02*
X168285714Y-117259580D01*
X168285714Y-117259580D02*
X168333333Y-117307200D01*
X168333333Y-117307200D02*
X168428571Y-117354819D01*
X168428571Y-117354819D02*
X168619047Y-117354819D01*
X168619047Y-117354819D02*
X168714285Y-117307200D01*
X168714285Y-117307200D02*
X168761904Y-117259580D01*
X168761904Y-117259580D02*
X168809523Y-117164342D01*
X168809523Y-117164342D02*
X168809523Y-116354819D01*
X169809523Y-117354819D02*
X169238095Y-117354819D01*
X169523809Y-117354819D02*
X169523809Y-116354819D01*
X169523809Y-116354819D02*
X169428571Y-116497676D01*
X169428571Y-116497676D02*
X169333333Y-116592914D01*
X169333333Y-116592914D02*
X169238095Y-116640533D01*
X154683333Y-93854819D02*
X154350000Y-93378628D01*
X154111905Y-93854819D02*
X154111905Y-92854819D01*
X154111905Y-92854819D02*
X154492857Y-92854819D01*
X154492857Y-92854819D02*
X154588095Y-92902438D01*
X154588095Y-92902438D02*
X154635714Y-92950057D01*
X154635714Y-92950057D02*
X154683333Y-93045295D01*
X154683333Y-93045295D02*
X154683333Y-93188152D01*
X154683333Y-93188152D02*
X154635714Y-93283390D01*
X154635714Y-93283390D02*
X154588095Y-93331009D01*
X154588095Y-93331009D02*
X154492857Y-93378628D01*
X154492857Y-93378628D02*
X154111905Y-93378628D01*
X155254762Y-93283390D02*
X155159524Y-93235771D01*
X155159524Y-93235771D02*
X155111905Y-93188152D01*
X155111905Y-93188152D02*
X155064286Y-93092914D01*
X155064286Y-93092914D02*
X155064286Y-93045295D01*
X155064286Y-93045295D02*
X155111905Y-92950057D01*
X155111905Y-92950057D02*
X155159524Y-92902438D01*
X155159524Y-92902438D02*
X155254762Y-92854819D01*
X155254762Y-92854819D02*
X155445238Y-92854819D01*
X155445238Y-92854819D02*
X155540476Y-92902438D01*
X155540476Y-92902438D02*
X155588095Y-92950057D01*
X155588095Y-92950057D02*
X155635714Y-93045295D01*
X155635714Y-93045295D02*
X155635714Y-93092914D01*
X155635714Y-93092914D02*
X155588095Y-93188152D01*
X155588095Y-93188152D02*
X155540476Y-93235771D01*
X155540476Y-93235771D02*
X155445238Y-93283390D01*
X155445238Y-93283390D02*
X155254762Y-93283390D01*
X155254762Y-93283390D02*
X155159524Y-93331009D01*
X155159524Y-93331009D02*
X155111905Y-93378628D01*
X155111905Y-93378628D02*
X155064286Y-93473866D01*
X155064286Y-93473866D02*
X155064286Y-93664342D01*
X155064286Y-93664342D02*
X155111905Y-93759580D01*
X155111905Y-93759580D02*
X155159524Y-93807200D01*
X155159524Y-93807200D02*
X155254762Y-93854819D01*
X155254762Y-93854819D02*
X155445238Y-93854819D01*
X155445238Y-93854819D02*
X155540476Y-93807200D01*
X155540476Y-93807200D02*
X155588095Y-93759580D01*
X155588095Y-93759580D02*
X155635714Y-93664342D01*
X155635714Y-93664342D02*
X155635714Y-93473866D01*
X155635714Y-93473866D02*
X155588095Y-93378628D01*
X155588095Y-93378628D02*
X155540476Y-93331009D01*
X155540476Y-93331009D02*
X155445238Y-93283390D01*
X158604642Y-114589580D02*
X158557023Y-114637200D01*
X158557023Y-114637200D02*
X158414166Y-114684819D01*
X158414166Y-114684819D02*
X158318928Y-114684819D01*
X158318928Y-114684819D02*
X158176071Y-114637200D01*
X158176071Y-114637200D02*
X158080833Y-114541961D01*
X158080833Y-114541961D02*
X158033214Y-114446723D01*
X158033214Y-114446723D02*
X157985595Y-114256247D01*
X157985595Y-114256247D02*
X157985595Y-114113390D01*
X157985595Y-114113390D02*
X158033214Y-113922914D01*
X158033214Y-113922914D02*
X158080833Y-113827676D01*
X158080833Y-113827676D02*
X158176071Y-113732438D01*
X158176071Y-113732438D02*
X158318928Y-113684819D01*
X158318928Y-113684819D02*
X158414166Y-113684819D01*
X158414166Y-113684819D02*
X158557023Y-113732438D01*
X158557023Y-113732438D02*
X158604642Y-113780057D01*
X159557023Y-114684819D02*
X158985595Y-114684819D01*
X159271309Y-114684819D02*
X159271309Y-113684819D01*
X159271309Y-113684819D02*
X159176071Y-113827676D01*
X159176071Y-113827676D02*
X159080833Y-113922914D01*
X159080833Y-113922914D02*
X158985595Y-113970533D01*
X160414166Y-113684819D02*
X160223690Y-113684819D01*
X160223690Y-113684819D02*
X160128452Y-113732438D01*
X160128452Y-113732438D02*
X160080833Y-113780057D01*
X160080833Y-113780057D02*
X159985595Y-113922914D01*
X159985595Y-113922914D02*
X159937976Y-114113390D01*
X159937976Y-114113390D02*
X159937976Y-114494342D01*
X159937976Y-114494342D02*
X159985595Y-114589580D01*
X159985595Y-114589580D02*
X160033214Y-114637200D01*
X160033214Y-114637200D02*
X160128452Y-114684819D01*
X160128452Y-114684819D02*
X160318928Y-114684819D01*
X160318928Y-114684819D02*
X160414166Y-114637200D01*
X160414166Y-114637200D02*
X160461785Y-114589580D01*
X160461785Y-114589580D02*
X160509404Y-114494342D01*
X160509404Y-114494342D02*
X160509404Y-114256247D01*
X160509404Y-114256247D02*
X160461785Y-114161009D01*
X160461785Y-114161009D02*
X160414166Y-114113390D01*
X160414166Y-114113390D02*
X160318928Y-114065771D01*
X160318928Y-114065771D02*
X160128452Y-114065771D01*
X160128452Y-114065771D02*
X160033214Y-114113390D01*
X160033214Y-114113390D02*
X159985595Y-114161009D01*
X159985595Y-114161009D02*
X159937976Y-114256247D01*
X169847200Y-98817856D02*
X169894819Y-98674999D01*
X169894819Y-98674999D02*
X169894819Y-98436904D01*
X169894819Y-98436904D02*
X169847200Y-98341666D01*
X169847200Y-98341666D02*
X169799580Y-98294047D01*
X169799580Y-98294047D02*
X169704342Y-98246428D01*
X169704342Y-98246428D02*
X169609104Y-98246428D01*
X169609104Y-98246428D02*
X169513866Y-98294047D01*
X169513866Y-98294047D02*
X169466247Y-98341666D01*
X169466247Y-98341666D02*
X169418628Y-98436904D01*
X169418628Y-98436904D02*
X169371009Y-98627380D01*
X169371009Y-98627380D02*
X169323390Y-98722618D01*
X169323390Y-98722618D02*
X169275771Y-98770237D01*
X169275771Y-98770237D02*
X169180533Y-98817856D01*
X169180533Y-98817856D02*
X169085295Y-98817856D01*
X169085295Y-98817856D02*
X168990057Y-98770237D01*
X168990057Y-98770237D02*
X168942438Y-98722618D01*
X168942438Y-98722618D02*
X168894819Y-98627380D01*
X168894819Y-98627380D02*
X168894819Y-98389285D01*
X168894819Y-98389285D02*
X168942438Y-98246428D01*
X168894819Y-97960713D02*
X168894819Y-97389285D01*
X169894819Y-97674999D02*
X168894819Y-97674999D01*
X169894819Y-96579761D02*
X169894819Y-97055951D01*
X169894819Y-97055951D02*
X168894819Y-97055951D01*
X169894819Y-96246427D02*
X169228152Y-96246427D01*
X168894819Y-96246427D02*
X168942438Y-96294046D01*
X168942438Y-96294046D02*
X168990057Y-96246427D01*
X168990057Y-96246427D02*
X168942438Y-96198808D01*
X168942438Y-96198808D02*
X168894819Y-96246427D01*
X168894819Y-96246427D02*
X168990057Y-96246427D01*
X169228152Y-95770237D02*
X169894819Y-95770237D01*
X169323390Y-95770237D02*
X169275771Y-95722618D01*
X169275771Y-95722618D02*
X169228152Y-95627380D01*
X169228152Y-95627380D02*
X169228152Y-95484523D01*
X169228152Y-95484523D02*
X169275771Y-95389285D01*
X169275771Y-95389285D02*
X169371009Y-95341666D01*
X169371009Y-95341666D02*
X169894819Y-95341666D01*
X169894819Y-94865475D02*
X168894819Y-94865475D01*
X169513866Y-94770237D02*
X169894819Y-94484523D01*
X169228152Y-94484523D02*
X169609104Y-94865475D01*
X169894819Y-93532142D02*
X169894819Y-94103570D01*
X169894819Y-93817856D02*
X168894819Y-93817856D01*
X168894819Y-93817856D02*
X169037676Y-93913094D01*
X169037676Y-93913094D02*
X169132914Y-94008332D01*
X169132914Y-94008332D02*
X169180533Y-94103570D01*
X145459580Y-105666666D02*
X145507200Y-105714285D01*
X145507200Y-105714285D02*
X145554819Y-105857142D01*
X145554819Y-105857142D02*
X145554819Y-105952380D01*
X145554819Y-105952380D02*
X145507200Y-106095237D01*
X145507200Y-106095237D02*
X145411961Y-106190475D01*
X145411961Y-106190475D02*
X145316723Y-106238094D01*
X145316723Y-106238094D02*
X145126247Y-106285713D01*
X145126247Y-106285713D02*
X144983390Y-106285713D01*
X144983390Y-106285713D02*
X144792914Y-106238094D01*
X144792914Y-106238094D02*
X144697676Y-106190475D01*
X144697676Y-106190475D02*
X144602438Y-106095237D01*
X144602438Y-106095237D02*
X144554819Y-105952380D01*
X144554819Y-105952380D02*
X144554819Y-105857142D01*
X144554819Y-105857142D02*
X144602438Y-105714285D01*
X144602438Y-105714285D02*
X144650057Y-105666666D01*
X145554819Y-105190475D02*
X145554819Y-104999999D01*
X145554819Y-104999999D02*
X145507200Y-104904761D01*
X145507200Y-104904761D02*
X145459580Y-104857142D01*
X145459580Y-104857142D02*
X145316723Y-104761904D01*
X145316723Y-104761904D02*
X145126247Y-104714285D01*
X145126247Y-104714285D02*
X144745295Y-104714285D01*
X144745295Y-104714285D02*
X144650057Y-104761904D01*
X144650057Y-104761904D02*
X144602438Y-104809523D01*
X144602438Y-104809523D02*
X144554819Y-104904761D01*
X144554819Y-104904761D02*
X144554819Y-105095237D01*
X144554819Y-105095237D02*
X144602438Y-105190475D01*
X144602438Y-105190475D02*
X144650057Y-105238094D01*
X144650057Y-105238094D02*
X144745295Y-105285713D01*
X144745295Y-105285713D02*
X144983390Y-105285713D01*
X144983390Y-105285713D02*
X145078628Y-105238094D01*
X145078628Y-105238094D02*
X145126247Y-105190475D01*
X145126247Y-105190475D02*
X145173866Y-105095237D01*
X145173866Y-105095237D02*
X145173866Y-104904761D01*
X145173866Y-104904761D02*
X145126247Y-104809523D01*
X145126247Y-104809523D02*
X145078628Y-104761904D01*
X145078628Y-104761904D02*
X144983390Y-104714285D01*
X143516666Y-113829819D02*
X143516666Y-114544104D01*
X143516666Y-114544104D02*
X143469047Y-114686961D01*
X143469047Y-114686961D02*
X143373809Y-114782200D01*
X143373809Y-114782200D02*
X143230952Y-114829819D01*
X143230952Y-114829819D02*
X143135714Y-114829819D01*
X144516666Y-114829819D02*
X143945238Y-114829819D01*
X144230952Y-114829819D02*
X144230952Y-113829819D01*
X144230952Y-113829819D02*
X144135714Y-113972676D01*
X144135714Y-113972676D02*
X144040476Y-114067914D01*
X144040476Y-114067914D02*
X143945238Y-114115533D01*
X143932142Y-75809580D02*
X143884523Y-75857200D01*
X143884523Y-75857200D02*
X143741666Y-75904819D01*
X143741666Y-75904819D02*
X143646428Y-75904819D01*
X143646428Y-75904819D02*
X143503571Y-75857200D01*
X143503571Y-75857200D02*
X143408333Y-75761961D01*
X143408333Y-75761961D02*
X143360714Y-75666723D01*
X143360714Y-75666723D02*
X143313095Y-75476247D01*
X143313095Y-75476247D02*
X143313095Y-75333390D01*
X143313095Y-75333390D02*
X143360714Y-75142914D01*
X143360714Y-75142914D02*
X143408333Y-75047676D01*
X143408333Y-75047676D02*
X143503571Y-74952438D01*
X143503571Y-74952438D02*
X143646428Y-74904819D01*
X143646428Y-74904819D02*
X143741666Y-74904819D01*
X143741666Y-74904819D02*
X143884523Y-74952438D01*
X143884523Y-74952438D02*
X143932142Y-75000057D01*
X144884523Y-75904819D02*
X144313095Y-75904819D01*
X144598809Y-75904819D02*
X144598809Y-74904819D01*
X144598809Y-74904819D02*
X144503571Y-75047676D01*
X144503571Y-75047676D02*
X144408333Y-75142914D01*
X144408333Y-75142914D02*
X144313095Y-75190533D01*
X145217857Y-74904819D02*
X145836904Y-74904819D01*
X145836904Y-74904819D02*
X145503571Y-75285771D01*
X145503571Y-75285771D02*
X145646428Y-75285771D01*
X145646428Y-75285771D02*
X145741666Y-75333390D01*
X145741666Y-75333390D02*
X145789285Y-75381009D01*
X145789285Y-75381009D02*
X145836904Y-75476247D01*
X145836904Y-75476247D02*
X145836904Y-75714342D01*
X145836904Y-75714342D02*
X145789285Y-75809580D01*
X145789285Y-75809580D02*
X145741666Y-75857200D01*
X145741666Y-75857200D02*
X145646428Y-75904819D01*
X145646428Y-75904819D02*
X145360714Y-75904819D01*
X145360714Y-75904819D02*
X145265476Y-75857200D01*
X145265476Y-75857200D02*
X145217857Y-75809580D01*
X169166666Y-104454819D02*
X169166666Y-105169104D01*
X169166666Y-105169104D02*
X169119047Y-105311961D01*
X169119047Y-105311961D02*
X169023809Y-105407200D01*
X169023809Y-105407200D02*
X168880952Y-105454819D01*
X168880952Y-105454819D02*
X168785714Y-105454819D01*
X169595238Y-104550057D02*
X169642857Y-104502438D01*
X169642857Y-104502438D02*
X169738095Y-104454819D01*
X169738095Y-104454819D02*
X169976190Y-104454819D01*
X169976190Y-104454819D02*
X170071428Y-104502438D01*
X170071428Y-104502438D02*
X170119047Y-104550057D01*
X170119047Y-104550057D02*
X170166666Y-104645295D01*
X170166666Y-104645295D02*
X170166666Y-104740533D01*
X170166666Y-104740533D02*
X170119047Y-104883390D01*
X170119047Y-104883390D02*
X169547619Y-105454819D01*
X169547619Y-105454819D02*
X170166666Y-105454819D01*
%TO.C,R3*%
D12*
X169377064Y-109815000D02*
X168922936Y-109815000D01*
X169377064Y-111285000D02*
X168922936Y-111285000D01*
%TO.C,J4*%
X170955000Y-83095000D02*
X170955000Y-84095000D01*
X170955000Y-84095000D02*
X171955000Y-83595000D01*
X171955000Y-83595000D02*
X170955000Y-83095000D01*
X172345000Y-78385000D02*
X181465000Y-78385000D01*
X172345000Y-84085000D02*
X173655000Y-84085000D01*
X172345000Y-93885000D02*
X172345000Y-78385000D01*
X173655000Y-79685000D02*
X180155000Y-79685000D01*
X173655000Y-84085000D02*
X173655000Y-79685000D01*
X173655000Y-88185000D02*
X172345000Y-88185000D01*
X173655000Y-92585000D02*
X173655000Y-88185000D01*
X180155000Y-79685000D02*
X180155000Y-92585000D01*
X180155000Y-92585000D02*
X173655000Y-92585000D01*
X181465000Y-78385000D02*
X181465000Y-93885000D01*
X181465000Y-93885000D02*
X172345000Y-93885000D01*
%TO.C,R7*%
X141765000Y-82885436D02*
X141765000Y-83339564D01*
X143235000Y-82885436D02*
X143235000Y-83339564D01*
%TO.C,C3*%
X163045000Y-128378748D02*
X163045000Y-128901252D01*
X164515000Y-128378748D02*
X164515000Y-128901252D01*
%TO.C,R5*%
X148535436Y-99870000D02*
X148989564Y-99870000D01*
X148535436Y-101340000D02*
X148989564Y-101340000D01*
%TO.C,L1*%
X148824721Y-109570000D02*
X149150279Y-109570000D01*
X148824721Y-110590000D02*
X149150279Y-110590000D01*
%TO.C,C7*%
X163190000Y-98541252D02*
X163190000Y-98018748D01*
X164660000Y-98541252D02*
X164660000Y-98018748D01*
%TO.C,C6*%
X162315000Y-111288748D02*
X162315000Y-111811252D01*
X163785000Y-111288748D02*
X163785000Y-111811252D01*
%TO.C,R11*%
X139740000Y-104022936D02*
X139740000Y-104477064D01*
X141210000Y-104022936D02*
X141210000Y-104477064D01*
%TO.C,C10*%
X149036252Y-107445000D02*
X148513748Y-107445000D01*
X149036252Y-108915000D02*
X148513748Y-108915000D01*
%TO.C,C15*%
X148261252Y-76740000D02*
X147738748Y-76740000D01*
X148261252Y-78210000D02*
X147738748Y-78210000D01*
%TO.C,LED1*%
X171110000Y-126755000D02*
X171110000Y-129845000D01*
X171110000Y-126755170D02*
G75*
G02*
X176660000Y-128300000I2560000J-1544830D01*
G01*
X176660000Y-128300000D02*
G75*
G02*
X171110000Y-129844830I-2990000J0D01*
G01*
X176170000Y-128300000D02*
G75*
G02*
X171170000Y-128300000I-2500000J0D01*
G01*
X171170000Y-128300000D02*
G75*
G02*
X176170000Y-128300000I2500000J0D01*
G01*
%TO.C,C12*%
X149011252Y-101970000D02*
X148488748Y-101970000D01*
X149011252Y-103440000D02*
X148488748Y-103440000D01*
%TO.C,C14*%
X148261252Y-72440000D02*
X147738748Y-72440000D01*
X148261252Y-73910000D02*
X147738748Y-73910000D01*
%TO.C,D2*%
X154915000Y-125900000D02*
X154915000Y-130200000D01*
X154915000Y-125900000D02*
X160725000Y-125900000D01*
X154915000Y-130200000D02*
X160725000Y-130200000D01*
%TO.C,J5*%
X138170000Y-81840000D02*
X139550000Y-81840000D01*
X138170000Y-83220000D02*
X138170000Y-81840000D01*
X138170000Y-84490000D02*
X138170000Y-92220000D01*
X138170000Y-84490000D02*
X140930000Y-84490000D01*
X138170000Y-92220000D02*
X140930000Y-92220000D01*
X140930000Y-84490000D02*
X140930000Y-92220000D01*
%TO.C,C1*%
X161127500Y-117405000D02*
X165047500Y-117405000D01*
X165047500Y-115495000D02*
X161127500Y-115495000D01*
X165047500Y-117405000D02*
X165047500Y-115495000D01*
%TO.C,F1*%
X156813748Y-121360000D02*
X159586252Y-121360000D01*
X156813748Y-117940000D02*
X159586252Y-117940000D01*
%TO.C,D1*%
X161910000Y-125550000D02*
X161910000Y-122250000D01*
X161910000Y-125550000D02*
X156400000Y-125550000D01*
X161910000Y-122250000D02*
X156400000Y-122250000D01*
%TO.C,R4*%
X169377064Y-111965000D02*
X168922936Y-111965000D01*
X169377064Y-113435000D02*
X168922936Y-113435000D01*
%TO.C,C4*%
X148986252Y-97745000D02*
X148463748Y-97745000D01*
X148986252Y-99215000D02*
X148463748Y-99215000D01*
%TO.C,R12*%
X142265000Y-104022936D02*
X142265000Y-104477064D01*
X143735000Y-104022936D02*
X143735000Y-104477064D01*
%TO.C,J3*%
X171655000Y-110010000D02*
X181695000Y-110010000D01*
X171655000Y-120410000D02*
X171655000Y-110010000D01*
X174675000Y-120410000D02*
X174675000Y-110010000D01*
X179575000Y-120410000D02*
X179575000Y-110010000D01*
X181075000Y-120410000D02*
X181075000Y-110010000D01*
X181695000Y-110010000D02*
X181695000Y-117450000D01*
X181695000Y-118050000D02*
X181695000Y-120410000D01*
X181695000Y-120410000D02*
X171655000Y-120410000D01*
X182305000Y-118190000D02*
X181695000Y-117750000D01*
X182305000Y-117310000D01*
X182305000Y-118190000D01*
G36*
X182305000Y-118190000D02*
G01*
X181695000Y-117750000D01*
X182305000Y-117310000D01*
X182305000Y-118190000D01*
G37*
%TO.C,RGB1*%
X138230000Y-97080000D02*
X138230000Y-97545000D01*
X138230000Y-99705000D02*
X138230000Y-100170000D01*
X138230000Y-97080170D02*
G75*
G02*
X143578136Y-97545000I2560000J-1544830D01*
G01*
X138535316Y-97545000D02*
G75*
G02*
X143044684Y-97545000I2254684J-1080000D01*
G01*
X143044684Y-99705000D02*
G75*
G02*
X138535316Y-99705000I-2254684J1080000D01*
G01*
X143578136Y-99705000D02*
G75*
G02*
X138230000Y-100169830I-2788136J1080000D01*
G01*
%TO.C,U3*%
X150500000Y-65490000D02*
X150500000Y-71690000D01*
X150500000Y-65490000D02*
X168900000Y-65490000D01*
X150500000Y-90340000D02*
X150500000Y-91340000D01*
X150500000Y-91340000D02*
X152000000Y-91340000D01*
X168900000Y-65490000D02*
X168900000Y-71690000D01*
X168900000Y-91340000D02*
X167400000Y-91340000D01*
X168900000Y-91340000D02*
X168900000Y-90340000D01*
X150500000Y-72365000D02*
X150000000Y-72365000D01*
X150500000Y-71865000D01*
X150500000Y-72365000D01*
G36*
X150500000Y-72365000D02*
G01*
X150000000Y-72365000D01*
X150500000Y-71865000D01*
X150500000Y-72365000D01*
G37*
%TO.C,R1*%
X168665000Y-101735436D02*
X168665000Y-102189564D01*
X170135000Y-101735436D02*
X170135000Y-102189564D01*
%TO.C,C5*%
X154788748Y-111865000D02*
X155311252Y-111865000D01*
X154788748Y-113335000D02*
X155311252Y-113335000D01*
%TO.C,R6*%
X141765000Y-87002064D02*
X141765000Y-86547936D01*
X143235000Y-87002064D02*
X143235000Y-86547936D01*
%TO.C,C8*%
X150945000Y-94902500D02*
X150945000Y-98822500D01*
X150945000Y-98822500D02*
X152855000Y-98822500D01*
X152855000Y-98822500D02*
X152855000Y-94902500D01*
%TO.C,C11*%
X168888748Y-114215000D02*
X169411252Y-114215000D01*
X168888748Y-115685000D02*
X169411252Y-115685000D01*
%TO.C,U2*%
X152290000Y-99295000D02*
X153240000Y-99295000D01*
X152290000Y-100245000D02*
X152290000Y-99295000D01*
X152290000Y-109515000D02*
X152290000Y-108565000D01*
X153240000Y-109515000D02*
X152290000Y-109515000D01*
X161560000Y-99295000D02*
X162510000Y-99295000D01*
X162510000Y-99295000D02*
X162510000Y-100245000D01*
X162510000Y-108565000D02*
X162510000Y-109515000D01*
X162510000Y-109515000D02*
X161560000Y-109515000D01*
X151650000Y-100245000D02*
X151310000Y-99775000D01*
X151990000Y-99775000D01*
X151650000Y-100245000D01*
G36*
X151650000Y-100245000D02*
G01*
X151310000Y-99775000D01*
X151990000Y-99775000D01*
X151650000Y-100245000D01*
G37*
%TO.C,R10*%
X137215000Y-104022936D02*
X137215000Y-104477064D01*
X138685000Y-104022936D02*
X138685000Y-104477064D01*
%TO.C,R2*%
X171935436Y-123215000D02*
X172389564Y-123215000D01*
X171935436Y-124685000D02*
X172389564Y-124685000D01*
%TO.C,R9*%
X147772936Y-79665000D02*
X148227064Y-79665000D01*
X147772936Y-81135000D02*
X148227064Y-81135000D01*
%TO.C,C2*%
X165112500Y-127045000D02*
X165112500Y-128955000D01*
X165112500Y-128955000D02*
X169032500Y-128955000D01*
X169032500Y-127045000D02*
X165112500Y-127045000D01*
%TO.C,U1*%
X162840000Y-120250000D02*
X162840000Y-124010000D01*
X162840000Y-124010000D02*
X164100000Y-124010000D01*
X169660000Y-120250000D02*
X169660000Y-124010000D01*
X169660000Y-124010000D02*
X168400000Y-124010000D01*
X169890000Y-119210000D02*
X169560000Y-118970000D01*
X169890000Y-118730000D01*
X169890000Y-119210000D01*
G36*
X169890000Y-119210000D02*
G01*
X169560000Y-118970000D01*
X169890000Y-118730000D01*
X169890000Y-119210000D01*
G37*
%TO.C,R8*%
X154165000Y-95627936D02*
X154165000Y-96082064D01*
X155635000Y-95627936D02*
X155635000Y-96082064D01*
%TO.C,C16*%
X159508752Y-111815000D02*
X158986248Y-111815000D01*
X159508752Y-113285000D02*
X158986248Y-113285000D01*
%TO.C,STLink1*%
X171210000Y-97730000D02*
X171210000Y-96350000D01*
X172590000Y-97730000D02*
X171210000Y-97730000D01*
X173860000Y-94970000D02*
X181590000Y-94970000D01*
X173860000Y-97730000D02*
X173860000Y-94970000D01*
X173860000Y-97730000D02*
X181590000Y-97730000D01*
X181590000Y-97730000D02*
X181590000Y-94970000D01*
%TO.C,C9*%
X146550000Y-106410000D02*
X150470000Y-106410000D01*
X150470000Y-104500000D02*
X146550000Y-104500000D01*
X150470000Y-106410000D02*
X150470000Y-104500000D01*
%TO.C,J1*%
X143100000Y-116350000D02*
X143100000Y-115300000D01*
X143300000Y-115500000D02*
X145900000Y-115500000D01*
X143300000Y-130200000D02*
X143300000Y-115500000D01*
X144150000Y-115300000D02*
X143100000Y-115300000D01*
X149800000Y-115500000D02*
X152500000Y-115500000D01*
X152500000Y-115500000D02*
X152500000Y-117400000D01*
X152500000Y-121400000D02*
X152500000Y-130200000D01*
X152500000Y-130200000D02*
X143300000Y-130200000D01*
%TO.C,C13*%
X148261252Y-74540000D02*
X147738748Y-74540000D01*
X148261252Y-76010000D02*
X147738748Y-76010000D01*
%TO.C,J2*%
X170980000Y-102370000D02*
X170980000Y-105130000D01*
X178710000Y-102370000D02*
X170980000Y-102370000D01*
X178710000Y-102370000D02*
X178710000Y-105130000D01*
X178710000Y-105130000D02*
X170980000Y-105130000D01*
X179980000Y-102370000D02*
X181360000Y-102370000D01*
X181360000Y-102370000D02*
X181360000Y-103750000D01*
%TD*%
M02*
